M48
;Layer_Color=6321
;FILE_FORMAT=2:5
INCH,LZ
;TYPE=PLATED
T1F00S00C0.01400
T2F00S00C0.04016
;TYPE=NON_PLATED
T3F00S00C0.11811
%
T01
X0025Y00465
X00425Y00625
X0044Y00695
X003Y00815
X0035Y0099
X0045
X0009Y0084
X001Y0065
X00775Y00635
X006Y0046
X00665Y00995
T02
X00136Y0026508
X00254
Y0038319
X00136
X00135Y0106181
X00253
X00611
X00729
Y0037819
X00611
Y0026008
X00729
Y0117992
X00611
X00253
X00135
T03
X00195Y00095
X0067Y0009
Y0135
X00194
M30
