G04 Layer_Color=15065295*
%FSLAX25Y25*%
%MOIN*%
G70*
G01*
G75*
%ADD20C,0.02362*%
%ADD21C,0.00984*%
%ADD22C,0.00787*%
%ADD23C,0.00500*%
%ADD24C,0.00800*%
G36*
X33900Y110503D02*
X33864D01*
X33838Y110506D01*
X33809Y110510D01*
X33777Y110516D01*
X33744Y110523D01*
X33709Y110536D01*
X33706D01*
X33702Y110539D01*
X33683Y110545D01*
X33654Y110558D01*
X33615Y110578D01*
X33570Y110604D01*
X33518Y110636D01*
X33466Y110672D01*
X33411Y110717D01*
X33408D01*
X33404Y110724D01*
X33385Y110740D01*
X33356Y110769D01*
X33314Y110811D01*
X33265Y110860D01*
X33207Y110921D01*
X33142Y110996D01*
X33074Y111077D01*
X33071Y111080D01*
X33061Y111093D01*
X33045Y111112D01*
X33025Y111135D01*
X32999Y111164D01*
X32970Y111200D01*
X32938Y111235D01*
X32902Y111278D01*
X32824Y111359D01*
X32747Y111440D01*
X32708Y111478D01*
X32669Y111514D01*
X32633Y111547D01*
X32598Y111573D01*
X32594D01*
X32591Y111579D01*
X32581Y111585D01*
X32568Y111592D01*
X32533Y111615D01*
X32491Y111641D01*
X32439Y111663D01*
X32384Y111686D01*
X32322Y111699D01*
X32264Y111705D01*
X32257D01*
X32238Y111702D01*
X32206Y111699D01*
X32170Y111689D01*
X32125Y111676D01*
X32079Y111653D01*
X32034Y111624D01*
X31988Y111585D01*
X31982Y111579D01*
X31969Y111563D01*
X31953Y111540D01*
X31930Y111504D01*
X31911Y111459D01*
X31891Y111407D01*
X31878Y111346D01*
X31875Y111278D01*
Y111274D01*
Y111268D01*
Y111258D01*
X31878Y111245D01*
X31881Y111206D01*
X31891Y111161D01*
X31904Y111112D01*
X31927Y111057D01*
X31956Y111005D01*
X31995Y110957D01*
X32001Y110950D01*
X32018Y110937D01*
X32043Y110918D01*
X32082Y110899D01*
X32128Y110876D01*
X32186Y110856D01*
X32251Y110844D01*
X32325Y110837D01*
X32296Y110555D01*
X32293D01*
X32283Y110558D01*
X32267D01*
X32244Y110562D01*
X32219Y110568D01*
X32189Y110575D01*
X32154Y110584D01*
X32118Y110594D01*
X32040Y110620D01*
X31962Y110659D01*
X31924Y110681D01*
X31885Y110711D01*
X31849Y110740D01*
X31817Y110772D01*
X31813Y110775D01*
X31810Y110782D01*
X31800Y110792D01*
X31791Y110808D01*
X31778Y110827D01*
X31765Y110850D01*
X31749Y110876D01*
X31732Y110908D01*
X31716Y110944D01*
X31700Y110983D01*
X31687Y111025D01*
X31674Y111070D01*
X31664Y111119D01*
X31655Y111171D01*
X31651Y111226D01*
X31648Y111284D01*
Y111287D01*
Y111297D01*
Y111317D01*
X31651Y111339D01*
X31655Y111365D01*
X31658Y111398D01*
X31664Y111433D01*
X31671Y111469D01*
X31694Y111553D01*
X31726Y111637D01*
X31745Y111679D01*
X31768Y111722D01*
X31797Y111760D01*
X31830Y111796D01*
X31833Y111799D01*
X31836Y111806D01*
X31849Y111812D01*
X31862Y111825D01*
X31878Y111841D01*
X31901Y111858D01*
X31924Y111874D01*
X31953Y111893D01*
X32014Y111926D01*
X32092Y111958D01*
X32131Y111971D01*
X32176Y111978D01*
X32222Y111984D01*
X32270Y111987D01*
X32293D01*
X32319Y111984D01*
X32355Y111981D01*
X32394Y111974D01*
X32439Y111961D01*
X32487Y111948D01*
X32536Y111929D01*
X32542Y111926D01*
X32559Y111919D01*
X32585Y111906D01*
X32620Y111887D01*
X32659Y111861D01*
X32708Y111828D01*
X32756Y111790D01*
X32811Y111744D01*
X32818Y111738D01*
X32837Y111722D01*
X32853Y111705D01*
X32870Y111689D01*
X32889Y111670D01*
X32915Y111644D01*
X32941Y111618D01*
X32970Y111585D01*
X33003Y111553D01*
X33038Y111514D01*
X33074Y111472D01*
X33116Y111427D01*
X33158Y111375D01*
X33203Y111323D01*
X33207Y111320D01*
X33213Y111313D01*
X33223Y111300D01*
X33236Y111284D01*
X33255Y111265D01*
X33275Y111242D01*
X33317Y111190D01*
X33365Y111135D01*
X33414Y111083D01*
X33456Y111038D01*
X33472Y111019D01*
X33489Y111002D01*
X33492Y110999D01*
X33501Y110989D01*
X33514Y110976D01*
X33534Y110960D01*
X33557Y110944D01*
X33579Y110924D01*
X33634Y110886D01*
Y111990D01*
X33900D01*
Y110503D01*
D02*
G37*
G36*
X7788Y106465D02*
X7814Y106461D01*
X7843Y106455D01*
X7875Y106448D01*
X7911Y106442D01*
X7989Y106416D01*
X8031Y106396D01*
X8070Y106377D01*
X8112Y106351D01*
X8154Y106322D01*
X8196Y106290D01*
X8235Y106251D01*
X8238Y106247D01*
X8245Y106241D01*
X8254Y106228D01*
X8267Y106212D01*
X8283Y106192D01*
X8300Y106167D01*
X8319Y106137D01*
X8335Y106102D01*
X8355Y106066D01*
X8374Y106024D01*
X8390Y105982D01*
X8406Y105933D01*
X8420Y105881D01*
X8429Y105826D01*
X8436Y105771D01*
X8439Y105710D01*
Y105706D01*
Y105697D01*
Y105680D01*
X8436Y105661D01*
X8433Y105635D01*
X8429Y105606D01*
X8423Y105573D01*
X8416Y105538D01*
X8397Y105460D01*
X8364Y105379D01*
X8345Y105337D01*
X8322Y105298D01*
X8293Y105259D01*
X8264Y105220D01*
X8261Y105217D01*
X8254Y105211D01*
X8245Y105201D01*
X8232Y105191D01*
X8215Y105175D01*
X8193Y105159D01*
X8170Y105139D01*
X8141Y105120D01*
X8108Y105101D01*
X8076Y105081D01*
X7998Y105045D01*
X7908Y105016D01*
X7859Y105007D01*
X7807Y105000D01*
X7772Y105275D01*
X7775D01*
X7781Y105279D01*
X7794Y105282D01*
X7810Y105285D01*
X7830Y105288D01*
X7852Y105295D01*
X7901Y105311D01*
X7959Y105334D01*
X8015Y105363D01*
X8066Y105395D01*
X8112Y105434D01*
X8115Y105441D01*
X8128Y105454D01*
X8144Y105480D01*
X8160Y105512D01*
X8180Y105551D01*
X8196Y105599D01*
X8209Y105655D01*
X8212Y105713D01*
Y105716D01*
Y105723D01*
Y105732D01*
X8209Y105745D01*
X8206Y105781D01*
X8196Y105826D01*
X8180Y105878D01*
X8157Y105933D01*
X8125Y105988D01*
X8079Y106040D01*
X8073Y106047D01*
X8053Y106063D01*
X8024Y106082D01*
X7985Y106108D01*
X7937Y106134D01*
X7882Y106154D01*
X7817Y106170D01*
X7746Y106176D01*
X7726D01*
X7713Y106173D01*
X7677Y106170D01*
X7635Y106160D01*
X7584Y106147D01*
X7532Y106124D01*
X7480Y106092D01*
X7431Y106050D01*
X7425Y106043D01*
X7412Y106027D01*
X7392Y106001D01*
X7370Y105966D01*
X7347Y105920D01*
X7328Y105865D01*
X7315Y105804D01*
X7308Y105736D01*
Y105732D01*
Y105723D01*
Y105706D01*
X7311Y105684D01*
X7315Y105655D01*
X7321Y105622D01*
X7328Y105583D01*
X7337Y105541D01*
X7094Y105573D01*
Y105577D01*
Y105590D01*
X7098Y105603D01*
Y105616D01*
Y105619D01*
Y105622D01*
Y105632D01*
Y105645D01*
X7091Y105680D01*
X7085Y105723D01*
X7075Y105771D01*
X7059Y105826D01*
X7036Y105878D01*
X7007Y105933D01*
Y105936D01*
X7004Y105940D01*
X6991Y105956D01*
X6968Y105979D01*
X6939Y106004D01*
X6897Y106030D01*
X6848Y106053D01*
X6793Y106069D01*
X6761Y106076D01*
X6699D01*
X6673Y106069D01*
X6638Y106063D01*
X6599Y106050D01*
X6556Y106034D01*
X6514Y106008D01*
X6476Y105972D01*
X6472Y105969D01*
X6459Y105953D01*
X6443Y105930D01*
X6424Y105901D01*
X6408Y105862D01*
X6391Y105816D01*
X6378Y105765D01*
X6375Y105706D01*
Y105703D01*
Y105700D01*
Y105680D01*
X6381Y105651D01*
X6388Y105612D01*
X6401Y105570D01*
X6417Y105528D01*
X6443Y105483D01*
X6476Y105441D01*
X6479Y105437D01*
X6495Y105424D01*
X6518Y105405D01*
X6550Y105382D01*
X6592Y105360D01*
X6644Y105337D01*
X6706Y105318D01*
X6777Y105305D01*
X6728Y105029D01*
X6725D01*
X6715Y105032D01*
X6702Y105036D01*
X6683Y105039D01*
X6660Y105045D01*
X6634Y105055D01*
X6573Y105075D01*
X6501Y105107D01*
X6430Y105146D01*
X6362Y105194D01*
X6301Y105256D01*
X6297Y105259D01*
X6294Y105266D01*
X6288Y105275D01*
X6278Y105288D01*
X6265Y105305D01*
X6252Y105327D01*
X6239Y105350D01*
X6223Y105379D01*
X6197Y105444D01*
X6171Y105518D01*
X6155Y105606D01*
X6148Y105651D01*
Y105700D01*
Y105703D01*
Y105710D01*
Y105719D01*
Y105732D01*
X6151Y105768D01*
X6158Y105810D01*
X6168Y105862D01*
X6184Y105920D01*
X6203Y105979D01*
X6229Y106037D01*
Y106040D01*
X6233Y106043D01*
X6242Y106063D01*
X6262Y106092D01*
X6284Y106124D01*
X6317Y106163D01*
X6352Y106202D01*
X6395Y106241D01*
X6443Y106273D01*
X6450Y106277D01*
X6466Y106286D01*
X6495Y106299D01*
X6531Y106316D01*
X6573Y106332D01*
X6621Y106345D01*
X6676Y106354D01*
X6731Y106358D01*
X6757D01*
X6783Y106354D01*
X6819Y106348D01*
X6861Y106338D01*
X6906Y106322D01*
X6952Y106302D01*
X6997Y106277D01*
X7004Y106273D01*
X7017Y106264D01*
X7039Y106244D01*
X7065Y106218D01*
X7094Y106186D01*
X7127Y106147D01*
X7156Y106102D01*
X7185Y106047D01*
Y106050D01*
X7188Y106056D01*
X7192Y106066D01*
X7195Y106079D01*
X7208Y106115D01*
X7227Y106160D01*
X7253Y106212D01*
X7286Y106264D01*
X7328Y106312D01*
X7376Y106358D01*
X7383Y106361D01*
X7402Y106374D01*
X7435Y106393D01*
X7477Y106413D01*
X7529Y106432D01*
X7590Y106452D01*
X7661Y106465D01*
X7739Y106468D01*
X7768D01*
X7788Y106465D01*
D02*
G37*
G36*
X8400Y112051D02*
X6647D01*
X6650Y112048D01*
X6663Y112031D01*
X6683Y112012D01*
X6706Y111980D01*
X6735Y111944D01*
X6767Y111899D01*
X6803Y111847D01*
X6838Y111788D01*
Y111785D01*
X6842Y111782D01*
X6855Y111762D01*
X6871Y111730D01*
X6890Y111691D01*
X6913Y111646D01*
X6936Y111597D01*
X6958Y111549D01*
X6978Y111500D01*
X6712D01*
Y111503D01*
X6706Y111510D01*
X6702Y111523D01*
X6693Y111539D01*
X6683Y111558D01*
X6670Y111581D01*
X6638Y111636D01*
X6602Y111701D01*
X6556Y111766D01*
X6505Y111834D01*
X6450Y111902D01*
X6446Y111905D01*
X6443Y111908D01*
X6433Y111918D01*
X6424Y111931D01*
X6391Y111960D01*
X6352Y111999D01*
X6307Y112038D01*
X6255Y112080D01*
X6203Y112116D01*
X6148Y112148D01*
Y112326D01*
X8400D01*
Y112051D01*
D02*
G37*
G36*
X52040Y42000D02*
X51568D01*
Y45003D01*
X51563Y44997D01*
X51535Y44975D01*
X51502Y44941D01*
X51446Y44903D01*
X51385Y44853D01*
X51307Y44797D01*
X51218Y44736D01*
X51119Y44675D01*
X51113D01*
X51108Y44669D01*
X51074Y44647D01*
X51019Y44620D01*
X50952Y44586D01*
X50874Y44547D01*
X50791Y44509D01*
X50708Y44470D01*
X50625Y44436D01*
Y44892D01*
X50630D01*
X50641Y44903D01*
X50664Y44908D01*
X50691Y44925D01*
X50725Y44941D01*
X50763Y44964D01*
X50858Y45019D01*
X50969Y45080D01*
X51080Y45158D01*
X51196Y45247D01*
X51313Y45341D01*
X51318Y45347D01*
X51324Y45352D01*
X51341Y45369D01*
X51363Y45386D01*
X51413Y45441D01*
X51479Y45508D01*
X51546Y45585D01*
X51618Y45674D01*
X51679Y45763D01*
X51735Y45857D01*
X52040D01*
Y42000D01*
D02*
G37*
G36*
X49626Y43221D02*
Y43215D01*
Y43199D01*
Y43177D01*
Y43143D01*
X49620Y43099D01*
Y43055D01*
X49609Y42949D01*
X49598Y42827D01*
X49576Y42699D01*
X49542Y42583D01*
X49504Y42472D01*
Y42466D01*
X49498Y42461D01*
X49481Y42427D01*
X49454Y42383D01*
X49415Y42322D01*
X49359Y42261D01*
X49298Y42194D01*
X49220Y42128D01*
X49132Y42072D01*
X49121Y42067D01*
X49087Y42050D01*
X49037Y42028D01*
X48965Y42006D01*
X48876Y41978D01*
X48777Y41956D01*
X48665Y41939D01*
X48543Y41933D01*
X48493D01*
X48460Y41939D01*
X48416Y41945D01*
X48371Y41950D01*
X48255Y41972D01*
X48133Y42006D01*
X48005Y42055D01*
X47938Y42089D01*
X47877Y42128D01*
X47822Y42172D01*
X47766Y42222D01*
X47761Y42228D01*
X47755Y42233D01*
X47744Y42255D01*
X47728Y42278D01*
X47705Y42305D01*
X47683Y42344D01*
X47661Y42388D01*
X47633Y42439D01*
X47611Y42494D01*
X47589Y42561D01*
X47567Y42627D01*
X47544Y42705D01*
X47533Y42788D01*
X47517Y42882D01*
X47511Y42977D01*
Y43082D01*
X47972Y43149D01*
Y43143D01*
Y43132D01*
Y43110D01*
X47977Y43077D01*
X47983Y43043D01*
Y43005D01*
X48000Y42910D01*
X48016Y42810D01*
X48050Y42710D01*
X48083Y42622D01*
X48105Y42583D01*
X48133Y42549D01*
X48138Y42544D01*
X48160Y42527D01*
X48194Y42500D01*
X48238Y42472D01*
X48299Y42439D01*
X48366Y42416D01*
X48449Y42394D01*
X48538Y42388D01*
X48571D01*
X48605Y42394D01*
X48654Y42400D01*
X48704Y42411D01*
X48760Y42422D01*
X48815Y42444D01*
X48871Y42472D01*
X48876Y42477D01*
X48893Y42488D01*
X48915Y42511D01*
X48949Y42533D01*
X48976Y42572D01*
X49010Y42610D01*
X49037Y42655D01*
X49060Y42710D01*
Y42716D01*
X49071Y42738D01*
X49076Y42777D01*
X49087Y42827D01*
X49098Y42893D01*
X49104Y42977D01*
X49115Y43077D01*
Y43193D01*
Y45841D01*
X49626D01*
Y43221D01*
D02*
G37*
G36*
X56000Y112051D02*
X54247D01*
X54251Y112048D01*
X54263Y112031D01*
X54283Y112012D01*
X54305Y111980D01*
X54335Y111944D01*
X54367Y111899D01*
X54403Y111847D01*
X54438Y111788D01*
Y111785D01*
X54442Y111782D01*
X54455Y111762D01*
X54471Y111730D01*
X54490Y111691D01*
X54513Y111646D01*
X54536Y111597D01*
X54558Y111549D01*
X54578Y111500D01*
X54312D01*
Y111503D01*
X54305Y111510D01*
X54302Y111523D01*
X54293Y111539D01*
X54283Y111558D01*
X54270Y111581D01*
X54238Y111636D01*
X54202Y111701D01*
X54157Y111766D01*
X54105Y111834D01*
X54050Y111902D01*
X54046Y111905D01*
X54043Y111908D01*
X54033Y111918D01*
X54024Y111931D01*
X53991Y111960D01*
X53952Y111999D01*
X53907Y112038D01*
X53855Y112080D01*
X53803Y112116D01*
X53748Y112148D01*
Y112326D01*
X56000D01*
Y112051D01*
D02*
G37*
G36*
X81500Y110503D02*
X81464D01*
X81438Y110506D01*
X81409Y110510D01*
X81377Y110516D01*
X81344Y110523D01*
X81309Y110536D01*
X81306D01*
X81302Y110539D01*
X81283Y110545D01*
X81254Y110558D01*
X81215Y110578D01*
X81170Y110604D01*
X81118Y110636D01*
X81066Y110672D01*
X81011Y110717D01*
X81008D01*
X81004Y110724D01*
X80985Y110740D01*
X80956Y110769D01*
X80914Y110811D01*
X80865Y110860D01*
X80807Y110921D01*
X80742Y110996D01*
X80674Y111077D01*
X80671Y111080D01*
X80661Y111093D01*
X80645Y111112D01*
X80625Y111135D01*
X80599Y111164D01*
X80570Y111200D01*
X80538Y111235D01*
X80502Y111278D01*
X80424Y111359D01*
X80347Y111440D01*
X80308Y111478D01*
X80269Y111514D01*
X80233Y111547D01*
X80198Y111573D01*
X80194D01*
X80191Y111579D01*
X80181Y111585D01*
X80168Y111592D01*
X80133Y111615D01*
X80091Y111641D01*
X80039Y111663D01*
X79984Y111686D01*
X79922Y111699D01*
X79864Y111705D01*
X79857D01*
X79838Y111702D01*
X79805Y111699D01*
X79770Y111689D01*
X79725Y111676D01*
X79679Y111653D01*
X79634Y111624D01*
X79589Y111585D01*
X79582Y111579D01*
X79569Y111563D01*
X79553Y111540D01*
X79530Y111504D01*
X79511Y111459D01*
X79491Y111407D01*
X79478Y111346D01*
X79475Y111278D01*
Y111274D01*
Y111268D01*
Y111258D01*
X79478Y111245D01*
X79482Y111206D01*
X79491Y111161D01*
X79504Y111112D01*
X79527Y111057D01*
X79556Y111005D01*
X79595Y110957D01*
X79601Y110950D01*
X79618Y110937D01*
X79643Y110918D01*
X79682Y110899D01*
X79728Y110876D01*
X79786Y110856D01*
X79851Y110844D01*
X79925Y110837D01*
X79896Y110555D01*
X79893D01*
X79883Y110558D01*
X79867D01*
X79844Y110562D01*
X79818Y110568D01*
X79789Y110575D01*
X79754Y110584D01*
X79718Y110594D01*
X79640Y110620D01*
X79562Y110659D01*
X79524Y110681D01*
X79485Y110711D01*
X79449Y110740D01*
X79417Y110772D01*
X79413Y110775D01*
X79410Y110782D01*
X79400Y110792D01*
X79391Y110808D01*
X79378Y110827D01*
X79365Y110850D01*
X79349Y110876D01*
X79333Y110908D01*
X79316Y110944D01*
X79300Y110983D01*
X79287Y111025D01*
X79274Y111070D01*
X79264Y111119D01*
X79255Y111171D01*
X79251Y111226D01*
X79248Y111284D01*
Y111287D01*
Y111297D01*
Y111317D01*
X79251Y111339D01*
X79255Y111365D01*
X79258Y111398D01*
X79264Y111433D01*
X79271Y111469D01*
X79294Y111553D01*
X79326Y111637D01*
X79346Y111679D01*
X79368Y111722D01*
X79397Y111760D01*
X79430Y111796D01*
X79433Y111799D01*
X79436Y111806D01*
X79449Y111812D01*
X79462Y111825D01*
X79478Y111841D01*
X79501Y111858D01*
X79524Y111874D01*
X79553Y111893D01*
X79614Y111926D01*
X79692Y111958D01*
X79731Y111971D01*
X79776Y111978D01*
X79822Y111984D01*
X79870Y111987D01*
X79893D01*
X79919Y111984D01*
X79955Y111981D01*
X79993Y111974D01*
X80039Y111961D01*
X80087Y111948D01*
X80136Y111929D01*
X80142Y111926D01*
X80159Y111919D01*
X80185Y111906D01*
X80220Y111887D01*
X80259Y111861D01*
X80308Y111828D01*
X80356Y111790D01*
X80411Y111744D01*
X80418Y111738D01*
X80437Y111722D01*
X80453Y111705D01*
X80470Y111689D01*
X80489Y111670D01*
X80515Y111644D01*
X80541Y111618D01*
X80570Y111585D01*
X80603Y111553D01*
X80638Y111514D01*
X80674Y111472D01*
X80716Y111427D01*
X80758Y111375D01*
X80803Y111323D01*
X80807Y111320D01*
X80813Y111313D01*
X80823Y111300D01*
X80836Y111284D01*
X80855Y111265D01*
X80875Y111242D01*
X80917Y111190D01*
X80965Y111135D01*
X81014Y111083D01*
X81056Y111038D01*
X81072Y111019D01*
X81089Y111002D01*
X81092Y110999D01*
X81102Y110989D01*
X81115Y110976D01*
X81134Y110960D01*
X81157Y110944D01*
X81179Y110924D01*
X81234Y110886D01*
Y111990D01*
X81500D01*
Y110503D01*
D02*
G37*
G36*
X37626Y105221D02*
Y105216D01*
Y105199D01*
Y105177D01*
Y105143D01*
X37620Y105099D01*
Y105054D01*
X37609Y104949D01*
X37598Y104827D01*
X37576Y104699D01*
X37542Y104583D01*
X37504Y104472D01*
Y104466D01*
X37498Y104461D01*
X37481Y104427D01*
X37454Y104383D01*
X37415Y104322D01*
X37359Y104261D01*
X37298Y104194D01*
X37220Y104128D01*
X37132Y104072D01*
X37121Y104067D01*
X37087Y104050D01*
X37037Y104028D01*
X36965Y104006D01*
X36876Y103978D01*
X36777Y103956D01*
X36665Y103939D01*
X36543Y103933D01*
X36494D01*
X36460Y103939D01*
X36416Y103945D01*
X36371Y103950D01*
X36255Y103972D01*
X36133Y104006D01*
X36005Y104056D01*
X35939Y104089D01*
X35877Y104128D01*
X35822Y104172D01*
X35766Y104222D01*
X35761Y104227D01*
X35755Y104233D01*
X35744Y104255D01*
X35728Y104278D01*
X35705Y104305D01*
X35683Y104344D01*
X35661Y104388D01*
X35633Y104438D01*
X35611Y104494D01*
X35589Y104560D01*
X35567Y104627D01*
X35544Y104705D01*
X35533Y104788D01*
X35517Y104882D01*
X35511Y104977D01*
Y105082D01*
X35972Y105149D01*
Y105143D01*
Y105132D01*
Y105110D01*
X35977Y105077D01*
X35983Y105043D01*
Y105005D01*
X36000Y104910D01*
X36016Y104810D01*
X36050Y104710D01*
X36083Y104622D01*
X36105Y104583D01*
X36133Y104550D01*
X36138Y104544D01*
X36160Y104527D01*
X36194Y104499D01*
X36238Y104472D01*
X36299Y104438D01*
X36366Y104416D01*
X36449Y104394D01*
X36538Y104388D01*
X36571D01*
X36604Y104394D01*
X36654Y104400D01*
X36704Y104411D01*
X36760Y104422D01*
X36815Y104444D01*
X36871Y104472D01*
X36876Y104477D01*
X36893Y104488D01*
X36915Y104511D01*
X36949Y104533D01*
X36976Y104572D01*
X37010Y104611D01*
X37037Y104655D01*
X37060Y104710D01*
Y104716D01*
X37071Y104738D01*
X37076Y104777D01*
X37087Y104827D01*
X37098Y104894D01*
X37104Y104977D01*
X37115Y105077D01*
Y105193D01*
Y107841D01*
X37626D01*
Y105221D01*
D02*
G37*
G36*
X33362Y106751D02*
X33900D01*
Y106475D01*
X33362D01*
Y105500D01*
X33110D01*
X31658Y106527D01*
Y106751D01*
X33110D01*
Y107055D01*
X33362D01*
Y106751D01*
D02*
G37*
G36*
X40245Y105354D02*
X40767D01*
Y104921D01*
X40245D01*
Y104000D01*
X39773D01*
Y104921D01*
X38103D01*
Y105354D01*
X39862Y107841D01*
X40245D01*
Y105354D01*
D02*
G37*
G36*
X7242Y37973D02*
Y37749D01*
X5791D01*
Y37445D01*
X5538D01*
Y37749D01*
X5000D01*
Y38025D01*
X5538D01*
Y39000D01*
X5791D01*
X7242Y37973D01*
D02*
G37*
G36*
X35629Y45852D02*
X35674Y45846D01*
X35729Y45841D01*
X35790Y45829D01*
X35851Y45818D01*
X35996Y45780D01*
X36140Y45724D01*
X36212Y45691D01*
X36284Y45652D01*
X36351Y45602D01*
X36412Y45546D01*
X36417Y45541D01*
X36428Y45535D01*
X36439Y45513D01*
X36462Y45491D01*
X36489Y45463D01*
X36517Y45424D01*
X36545Y45386D01*
X36578Y45336D01*
X36634Y45230D01*
X36689Y45097D01*
X36711Y45030D01*
X36723Y44953D01*
X36734Y44875D01*
X36739Y44792D01*
Y44780D01*
Y44753D01*
X36734Y44708D01*
X36728Y44647D01*
X36717Y44581D01*
X36695Y44503D01*
X36673Y44420D01*
X36639Y44337D01*
X36634Y44326D01*
X36623Y44298D01*
X36601Y44253D01*
X36567Y44192D01*
X36523Y44126D01*
X36467Y44042D01*
X36401Y43959D01*
X36323Y43865D01*
X36312Y43854D01*
X36284Y43820D01*
X36256Y43793D01*
X36229Y43765D01*
X36195Y43732D01*
X36151Y43687D01*
X36107Y43643D01*
X36051Y43593D01*
X35996Y43537D01*
X35929Y43476D01*
X35857Y43415D01*
X35779Y43343D01*
X35690Y43271D01*
X35601Y43193D01*
X35596Y43188D01*
X35585Y43177D01*
X35563Y43160D01*
X35535Y43138D01*
X35502Y43104D01*
X35463Y43071D01*
X35374Y42999D01*
X35280Y42916D01*
X35191Y42832D01*
X35113Y42760D01*
X35080Y42733D01*
X35052Y42705D01*
X35046Y42699D01*
X35030Y42683D01*
X35008Y42660D01*
X34980Y42627D01*
X34952Y42588D01*
X34919Y42549D01*
X34852Y42455D01*
X36745D01*
Y42000D01*
X34197D01*
Y42006D01*
Y42028D01*
Y42061D01*
X34203Y42105D01*
X34208Y42155D01*
X34220Y42211D01*
X34231Y42266D01*
X34253Y42327D01*
Y42333D01*
X34258Y42338D01*
X34269Y42372D01*
X34292Y42422D01*
X34325Y42488D01*
X34369Y42566D01*
X34425Y42655D01*
X34486Y42744D01*
X34564Y42838D01*
Y42844D01*
X34575Y42849D01*
X34602Y42882D01*
X34652Y42932D01*
X34725Y43005D01*
X34808Y43088D01*
X34913Y43188D01*
X35041Y43299D01*
X35180Y43415D01*
X35185Y43421D01*
X35207Y43437D01*
X35241Y43465D01*
X35280Y43499D01*
X35329Y43543D01*
X35391Y43593D01*
X35452Y43648D01*
X35524Y43709D01*
X35662Y43843D01*
X35801Y43976D01*
X35868Y44042D01*
X35929Y44109D01*
X35984Y44170D01*
X36029Y44231D01*
Y44237D01*
X36040Y44242D01*
X36051Y44259D01*
X36062Y44281D01*
X36101Y44342D01*
X36145Y44414D01*
X36184Y44503D01*
X36223Y44597D01*
X36245Y44703D01*
X36256Y44803D01*
Y44808D01*
Y44814D01*
X36251Y44847D01*
X36245Y44903D01*
X36229Y44964D01*
X36206Y45041D01*
X36167Y45119D01*
X36118Y45197D01*
X36051Y45274D01*
X36040Y45286D01*
X36012Y45308D01*
X35973Y45336D01*
X35912Y45374D01*
X35835Y45408D01*
X35746Y45441D01*
X35640Y45463D01*
X35524Y45469D01*
X35490D01*
X35468Y45463D01*
X35402Y45458D01*
X35324Y45441D01*
X35241Y45419D01*
X35146Y45380D01*
X35058Y45330D01*
X34974Y45263D01*
X34963Y45252D01*
X34941Y45224D01*
X34908Y45180D01*
X34874Y45114D01*
X34836Y45036D01*
X34802Y44936D01*
X34780Y44825D01*
X34769Y44697D01*
X34286Y44747D01*
Y44753D01*
X34292Y44769D01*
Y44797D01*
X34297Y44836D01*
X34308Y44881D01*
X34319Y44930D01*
X34336Y44991D01*
X34353Y45052D01*
X34397Y45186D01*
X34464Y45319D01*
X34503Y45386D01*
X34552Y45452D01*
X34602Y45513D01*
X34658Y45569D01*
X34664Y45574D01*
X34675Y45580D01*
X34691Y45596D01*
X34719Y45613D01*
X34752Y45635D01*
X34791Y45658D01*
X34836Y45685D01*
X34891Y45713D01*
X34952Y45741D01*
X35019Y45768D01*
X35091Y45791D01*
X35168Y45813D01*
X35252Y45829D01*
X35341Y45846D01*
X35435Y45852D01*
X35535Y45857D01*
X35590D01*
X35629Y45852D01*
D02*
G37*
G36*
X31129Y39225D02*
X31125D01*
X31119Y39221D01*
X31106Y39218D01*
X31090Y39215D01*
X31070Y39212D01*
X31048Y39205D01*
X30999Y39189D01*
X30941Y39166D01*
X30886Y39137D01*
X30834Y39105D01*
X30788Y39066D01*
X30785Y39059D01*
X30772Y39046D01*
X30756Y39020D01*
X30740Y38988D01*
X30720Y38949D01*
X30704Y38901D01*
X30691Y38846D01*
X30688Y38787D01*
Y38784D01*
Y38778D01*
Y38768D01*
X30691Y38755D01*
X30694Y38719D01*
X30704Y38674D01*
X30720Y38622D01*
X30743Y38567D01*
X30775Y38512D01*
X30821Y38460D01*
X30827Y38454D01*
X30847Y38437D01*
X30876Y38418D01*
X30915Y38392D01*
X30963Y38366D01*
X31018Y38347D01*
X31083Y38330D01*
X31155Y38324D01*
X31174D01*
X31187Y38327D01*
X31223Y38330D01*
X31265Y38340D01*
X31317Y38353D01*
X31368Y38376D01*
X31420Y38408D01*
X31469Y38450D01*
X31475Y38457D01*
X31488Y38473D01*
X31508Y38499D01*
X31530Y38535D01*
X31553Y38580D01*
X31572Y38635D01*
X31585Y38697D01*
X31592Y38765D01*
Y38768D01*
Y38778D01*
Y38794D01*
X31589Y38816D01*
X31585Y38846D01*
X31579Y38878D01*
X31572Y38917D01*
X31563Y38959D01*
X31806Y38927D01*
Y38923D01*
Y38910D01*
X31802Y38897D01*
Y38884D01*
Y38881D01*
Y38878D01*
Y38868D01*
Y38855D01*
X31809Y38820D01*
X31815Y38778D01*
X31825Y38729D01*
X31841Y38674D01*
X31864Y38622D01*
X31893Y38567D01*
Y38564D01*
X31896Y38560D01*
X31909Y38544D01*
X31932Y38522D01*
X31961Y38496D01*
X32003Y38470D01*
X32052Y38447D01*
X32107Y38431D01*
X32140Y38424D01*
X32201D01*
X32227Y38431D01*
X32263Y38437D01*
X32302Y38450D01*
X32344Y38467D01*
X32386Y38492D01*
X32425Y38528D01*
X32428Y38531D01*
X32441Y38548D01*
X32457Y38570D01*
X32476Y38599D01*
X32493Y38638D01*
X32509Y38684D01*
X32522Y38735D01*
X32525Y38794D01*
Y38797D01*
Y38800D01*
Y38820D01*
X32519Y38849D01*
X32512Y38888D01*
X32499Y38930D01*
X32483Y38972D01*
X32457Y39017D01*
X32425Y39059D01*
X32421Y39063D01*
X32405Y39076D01*
X32383Y39095D01*
X32350Y39118D01*
X32308Y39140D01*
X32256Y39163D01*
X32195Y39182D01*
X32123Y39195D01*
X32172Y39471D01*
X32175D01*
X32185Y39468D01*
X32198Y39464D01*
X32217Y39461D01*
X32240Y39455D01*
X32266Y39445D01*
X32327Y39426D01*
X32399Y39393D01*
X32470Y39354D01*
X32538Y39306D01*
X32600Y39244D01*
X32603Y39241D01*
X32606Y39234D01*
X32612Y39225D01*
X32622Y39212D01*
X32635Y39195D01*
X32648Y39173D01*
X32661Y39150D01*
X32677Y39121D01*
X32703Y39056D01*
X32729Y38982D01*
X32745Y38894D01*
X32752Y38849D01*
Y38800D01*
Y38797D01*
Y38791D01*
Y38781D01*
Y38768D01*
X32749Y38732D01*
X32742Y38690D01*
X32732Y38638D01*
X32716Y38580D01*
X32697Y38522D01*
X32671Y38463D01*
Y38460D01*
X32668Y38457D01*
X32658Y38437D01*
X32638Y38408D01*
X32616Y38376D01*
X32583Y38337D01*
X32548Y38298D01*
X32506Y38259D01*
X32457Y38227D01*
X32451Y38223D01*
X32434Y38214D01*
X32405Y38201D01*
X32370Y38185D01*
X32327Y38168D01*
X32279Y38155D01*
X32224Y38146D01*
X32169Y38142D01*
X32143D01*
X32117Y38146D01*
X32081Y38152D01*
X32039Y38162D01*
X31994Y38178D01*
X31948Y38198D01*
X31903Y38223D01*
X31896Y38227D01*
X31883Y38236D01*
X31861Y38256D01*
X31835Y38282D01*
X31806Y38314D01*
X31773Y38353D01*
X31744Y38399D01*
X31715Y38454D01*
Y38450D01*
X31712Y38444D01*
X31709Y38434D01*
X31705Y38421D01*
X31692Y38385D01*
X31673Y38340D01*
X31647Y38288D01*
X31615Y38236D01*
X31572Y38188D01*
X31524Y38142D01*
X31517Y38139D01*
X31498Y38126D01*
X31466Y38107D01*
X31424Y38087D01*
X31372Y38068D01*
X31310Y38048D01*
X31239Y38036D01*
X31161Y38032D01*
X31132D01*
X31112Y38036D01*
X31087Y38039D01*
X31057Y38045D01*
X31025Y38052D01*
X30989Y38058D01*
X30911Y38084D01*
X30869Y38104D01*
X30830Y38123D01*
X30788Y38149D01*
X30746Y38178D01*
X30704Y38210D01*
X30665Y38249D01*
X30662Y38253D01*
X30656Y38259D01*
X30646Y38272D01*
X30633Y38288D01*
X30617Y38308D01*
X30601Y38334D01*
X30581Y38363D01*
X30565Y38399D01*
X30545Y38434D01*
X30526Y38476D01*
X30510Y38518D01*
X30494Y38567D01*
X30481Y38619D01*
X30471Y38674D01*
X30464Y38729D01*
X30461Y38791D01*
Y38794D01*
Y38803D01*
Y38820D01*
X30464Y38839D01*
X30468Y38865D01*
X30471Y38894D01*
X30477Y38927D01*
X30484Y38962D01*
X30503Y39040D01*
X30536Y39121D01*
X30555Y39163D01*
X30578Y39202D01*
X30607Y39241D01*
X30636Y39280D01*
X30639Y39283D01*
X30646Y39289D01*
X30656Y39299D01*
X30669Y39309D01*
X30685Y39325D01*
X30707Y39341D01*
X30730Y39361D01*
X30759Y39380D01*
X30792Y39400D01*
X30824Y39419D01*
X30902Y39455D01*
X30992Y39484D01*
X31041Y39494D01*
X31093Y39500D01*
X31129Y39225D01*
D02*
G37*
G36*
X32188Y32997D02*
X32195Y32990D01*
X32198Y32977D01*
X32208Y32961D01*
X32217Y32942D01*
X32230Y32919D01*
X32263Y32864D01*
X32298Y32799D01*
X32344Y32734D01*
X32395Y32666D01*
X32451Y32598D01*
X32454Y32595D01*
X32457Y32592D01*
X32467Y32582D01*
X32476Y32569D01*
X32509Y32540D01*
X32548Y32501D01*
X32593Y32462D01*
X32645Y32420D01*
X32697Y32384D01*
X32752Y32352D01*
Y32174D01*
X30500D01*
Y32449D01*
X32253D01*
X32250Y32452D01*
X32237Y32469D01*
X32217Y32488D01*
X32195Y32520D01*
X32165Y32556D01*
X32133Y32601D01*
X32097Y32653D01*
X32062Y32712D01*
Y32715D01*
X32059Y32718D01*
X32046Y32738D01*
X32029Y32770D01*
X32010Y32809D01*
X31987Y32854D01*
X31964Y32903D01*
X31942Y32951D01*
X31922Y33000D01*
X32188D01*
Y32997D01*
D02*
G37*
G36*
X5062Y33994D02*
X5091Y33990D01*
X5123Y33984D01*
X5156Y33977D01*
X5191Y33964D01*
X5194D01*
X5198Y33961D01*
X5217Y33955D01*
X5246Y33942D01*
X5285Y33922D01*
X5331Y33896D01*
X5382Y33864D01*
X5434Y33828D01*
X5489Y33783D01*
X5492D01*
X5496Y33777D01*
X5515Y33760D01*
X5544Y33731D01*
X5587Y33689D01*
X5635Y33640D01*
X5693Y33579D01*
X5758Y33504D01*
X5826Y33423D01*
X5830Y33420D01*
X5839Y33407D01*
X5855Y33388D01*
X5875Y33365D01*
X5901Y33336D01*
X5930Y33300D01*
X5962Y33265D01*
X5998Y33222D01*
X6076Y33141D01*
X6154Y33060D01*
X6192Y33022D01*
X6231Y32986D01*
X6267Y32954D01*
X6302Y32928D01*
X6306D01*
X6309Y32921D01*
X6319Y32915D01*
X6332Y32908D01*
X6367Y32886D01*
X6409Y32860D01*
X6461Y32837D01*
X6516Y32814D01*
X6578Y32801D01*
X6636Y32795D01*
X6643D01*
X6662Y32798D01*
X6695Y32801D01*
X6730Y32811D01*
X6776Y32824D01*
X6821Y32847D01*
X6866Y32876D01*
X6912Y32915D01*
X6918Y32921D01*
X6931Y32937D01*
X6947Y32960D01*
X6970Y32996D01*
X6989Y33041D01*
X7009Y33093D01*
X7022Y33154D01*
X7025Y33222D01*
Y33226D01*
Y33232D01*
Y33242D01*
X7022Y33255D01*
X7019Y33294D01*
X7009Y33339D01*
X6996Y33388D01*
X6973Y33443D01*
X6944Y33495D01*
X6905Y33543D01*
X6899Y33550D01*
X6882Y33563D01*
X6857Y33582D01*
X6818Y33601D01*
X6772Y33624D01*
X6714Y33644D01*
X6649Y33657D01*
X6575Y33663D01*
X6604Y33945D01*
X6607D01*
X6617Y33942D01*
X6633D01*
X6656Y33939D01*
X6682Y33932D01*
X6711Y33926D01*
X6746Y33916D01*
X6782Y33906D01*
X6860Y33880D01*
X6938Y33841D01*
X6976Y33819D01*
X7015Y33789D01*
X7051Y33760D01*
X7083Y33728D01*
X7087Y33725D01*
X7090Y33718D01*
X7100Y33708D01*
X7109Y33692D01*
X7122Y33673D01*
X7135Y33650D01*
X7151Y33624D01*
X7168Y33592D01*
X7184Y33556D01*
X7200Y33517D01*
X7213Y33475D01*
X7226Y33430D01*
X7236Y33381D01*
X7245Y33329D01*
X7249Y33274D01*
X7252Y33216D01*
Y33213D01*
Y33203D01*
Y33184D01*
X7249Y33161D01*
X7245Y33135D01*
X7242Y33103D01*
X7236Y33067D01*
X7229Y33031D01*
X7207Y32947D01*
X7174Y32863D01*
X7155Y32821D01*
X7132Y32779D01*
X7103Y32740D01*
X7070Y32704D01*
X7067Y32701D01*
X7064Y32694D01*
X7051Y32688D01*
X7038Y32675D01*
X7022Y32659D01*
X6999Y32642D01*
X6976Y32626D01*
X6947Y32607D01*
X6886Y32574D01*
X6808Y32542D01*
X6769Y32529D01*
X6724Y32523D01*
X6678Y32516D01*
X6630Y32513D01*
X6607D01*
X6581Y32516D01*
X6545Y32519D01*
X6507Y32526D01*
X6461Y32539D01*
X6413Y32552D01*
X6364Y32571D01*
X6358Y32574D01*
X6341Y32581D01*
X6316Y32594D01*
X6280Y32613D01*
X6241Y32639D01*
X6192Y32672D01*
X6144Y32710D01*
X6089Y32756D01*
X6082Y32762D01*
X6063Y32779D01*
X6047Y32795D01*
X6030Y32811D01*
X6011Y32830D01*
X5985Y32856D01*
X5959Y32882D01*
X5930Y32915D01*
X5897Y32947D01*
X5862Y32986D01*
X5826Y33028D01*
X5784Y33073D01*
X5742Y33125D01*
X5697Y33177D01*
X5693Y33180D01*
X5687Y33187D01*
X5677Y33200D01*
X5664Y33216D01*
X5645Y33235D01*
X5625Y33258D01*
X5583Y33310D01*
X5535Y33365D01*
X5486Y33417D01*
X5444Y33462D01*
X5428Y33482D01*
X5412Y33498D01*
X5408Y33501D01*
X5399Y33511D01*
X5386Y33524D01*
X5366Y33540D01*
X5344Y33556D01*
X5321Y33576D01*
X5266Y33615D01*
Y32510D01*
X5000D01*
Y33997D01*
X5036D01*
X5062Y33994D01*
D02*
G37*
G36*
X78629Y38725D02*
X78625D01*
X78619Y38721D01*
X78606Y38718D01*
X78590Y38715D01*
X78570Y38712D01*
X78548Y38705D01*
X78499Y38689D01*
X78441Y38666D01*
X78386Y38637D01*
X78334Y38605D01*
X78288Y38566D01*
X78285Y38559D01*
X78272Y38546D01*
X78256Y38521D01*
X78240Y38488D01*
X78220Y38449D01*
X78204Y38401D01*
X78191Y38346D01*
X78188Y38287D01*
Y38284D01*
Y38278D01*
Y38268D01*
X78191Y38255D01*
X78194Y38219D01*
X78204Y38174D01*
X78220Y38122D01*
X78243Y38067D01*
X78276Y38012D01*
X78321Y37960D01*
X78327Y37953D01*
X78347Y37937D01*
X78376Y37918D01*
X78415Y37892D01*
X78463Y37866D01*
X78518Y37847D01*
X78583Y37830D01*
X78654Y37824D01*
X78674D01*
X78687Y37827D01*
X78723Y37830D01*
X78765Y37840D01*
X78816Y37853D01*
X78868Y37876D01*
X78920Y37908D01*
X78969Y37950D01*
X78975Y37957D01*
X78988Y37973D01*
X79008Y37999D01*
X79030Y38034D01*
X79053Y38080D01*
X79072Y38135D01*
X79085Y38197D01*
X79092Y38265D01*
Y38268D01*
Y38278D01*
Y38294D01*
X79089Y38316D01*
X79085Y38346D01*
X79079Y38378D01*
X79072Y38417D01*
X79063Y38459D01*
X79306Y38427D01*
Y38423D01*
Y38410D01*
X79303Y38397D01*
Y38384D01*
Y38381D01*
Y38378D01*
Y38368D01*
Y38355D01*
X79309Y38320D01*
X79316Y38278D01*
X79325Y38229D01*
X79341Y38174D01*
X79364Y38122D01*
X79393Y38067D01*
Y38064D01*
X79396Y38060D01*
X79409Y38044D01*
X79432Y38022D01*
X79461Y37996D01*
X79503Y37970D01*
X79552Y37947D01*
X79607Y37931D01*
X79640Y37924D01*
X79701D01*
X79727Y37931D01*
X79763Y37937D01*
X79801Y37950D01*
X79844Y37966D01*
X79886Y37992D01*
X79925Y38028D01*
X79928Y38031D01*
X79941Y38048D01*
X79957Y38070D01*
X79976Y38099D01*
X79993Y38138D01*
X80009Y38184D01*
X80022Y38235D01*
X80025Y38294D01*
Y38297D01*
Y38300D01*
Y38320D01*
X80019Y38349D01*
X80012Y38388D01*
X79999Y38430D01*
X79983Y38472D01*
X79957Y38517D01*
X79925Y38559D01*
X79921Y38563D01*
X79905Y38576D01*
X79883Y38595D01*
X79850Y38618D01*
X79808Y38640D01*
X79756Y38663D01*
X79695Y38682D01*
X79623Y38695D01*
X79672Y38971D01*
X79675D01*
X79685Y38968D01*
X79698Y38964D01*
X79717Y38961D01*
X79740Y38955D01*
X79766Y38945D01*
X79827Y38925D01*
X79899Y38893D01*
X79970Y38854D01*
X80038Y38806D01*
X80100Y38744D01*
X80103Y38741D01*
X80106Y38734D01*
X80112Y38725D01*
X80122Y38712D01*
X80135Y38695D01*
X80148Y38673D01*
X80161Y38650D01*
X80177Y38621D01*
X80203Y38556D01*
X80229Y38482D01*
X80245Y38394D01*
X80252Y38349D01*
Y38300D01*
Y38297D01*
Y38291D01*
Y38281D01*
Y38268D01*
X80249Y38232D01*
X80242Y38190D01*
X80232Y38138D01*
X80216Y38080D01*
X80197Y38022D01*
X80171Y37963D01*
Y37960D01*
X80168Y37957D01*
X80158Y37937D01*
X80138Y37908D01*
X80116Y37876D01*
X80083Y37837D01*
X80048Y37798D01*
X80006Y37759D01*
X79957Y37727D01*
X79950Y37723D01*
X79934Y37714D01*
X79905Y37701D01*
X79870Y37685D01*
X79827Y37668D01*
X79779Y37655D01*
X79724Y37646D01*
X79669Y37642D01*
X79643D01*
X79617Y37646D01*
X79581Y37652D01*
X79539Y37662D01*
X79494Y37678D01*
X79448Y37698D01*
X79403Y37723D01*
X79396Y37727D01*
X79383Y37736D01*
X79361Y37756D01*
X79335Y37782D01*
X79306Y37814D01*
X79273Y37853D01*
X79244Y37898D01*
X79215Y37953D01*
Y37950D01*
X79212Y37944D01*
X79209Y37934D01*
X79205Y37921D01*
X79192Y37885D01*
X79173Y37840D01*
X79147Y37788D01*
X79115Y37736D01*
X79072Y37688D01*
X79024Y37642D01*
X79017Y37639D01*
X78998Y37626D01*
X78966Y37607D01*
X78923Y37587D01*
X78872Y37568D01*
X78810Y37549D01*
X78739Y37536D01*
X78661Y37532D01*
X78632D01*
X78612Y37536D01*
X78587Y37539D01*
X78557Y37545D01*
X78525Y37552D01*
X78489Y37558D01*
X78412Y37584D01*
X78369Y37604D01*
X78330Y37623D01*
X78288Y37649D01*
X78246Y37678D01*
X78204Y37710D01*
X78165Y37749D01*
X78162Y37753D01*
X78156Y37759D01*
X78146Y37772D01*
X78133Y37788D01*
X78117Y37808D01*
X78101Y37834D01*
X78081Y37863D01*
X78065Y37898D01*
X78045Y37934D01*
X78026Y37976D01*
X78010Y38018D01*
X77994Y38067D01*
X77981Y38119D01*
X77971Y38174D01*
X77964Y38229D01*
X77961Y38291D01*
Y38294D01*
Y38303D01*
Y38320D01*
X77964Y38339D01*
X77968Y38365D01*
X77971Y38394D01*
X77977Y38427D01*
X77984Y38462D01*
X78003Y38540D01*
X78036Y38621D01*
X78055Y38663D01*
X78078Y38702D01*
X78107Y38741D01*
X78136Y38780D01*
X78139Y38783D01*
X78146Y38789D01*
X78156Y38799D01*
X78168Y38809D01*
X78185Y38825D01*
X78207Y38841D01*
X78230Y38861D01*
X78259Y38880D01*
X78292Y38900D01*
X78324Y38919D01*
X78402Y38955D01*
X78492Y38984D01*
X78541Y38994D01*
X78593Y39000D01*
X78629Y38725D01*
D02*
G37*
G36*
X54742Y37473D02*
Y37249D01*
X53291D01*
Y36945D01*
X53038D01*
Y37249D01*
X52500D01*
Y37525D01*
X53038D01*
Y38500D01*
X53291D01*
X54742Y37473D01*
D02*
G37*
G36*
X52562Y33494D02*
X52591Y33490D01*
X52623Y33484D01*
X52656Y33477D01*
X52691Y33464D01*
X52694D01*
X52698Y33461D01*
X52717Y33455D01*
X52746Y33442D01*
X52785Y33422D01*
X52830Y33396D01*
X52882Y33364D01*
X52934Y33328D01*
X52989Y33283D01*
X52992D01*
X52996Y33277D01*
X53015Y33260D01*
X53044Y33231D01*
X53087Y33189D01*
X53135Y33140D01*
X53193Y33079D01*
X53258Y33004D01*
X53326Y32923D01*
X53329Y32920D01*
X53339Y32907D01*
X53355Y32888D01*
X53375Y32865D01*
X53401Y32836D01*
X53430Y32800D01*
X53462Y32765D01*
X53498Y32722D01*
X53576Y32641D01*
X53654Y32560D01*
X53692Y32522D01*
X53731Y32486D01*
X53767Y32454D01*
X53803Y32428D01*
X53806D01*
X53809Y32421D01*
X53819Y32415D01*
X53832Y32408D01*
X53867Y32386D01*
X53909Y32360D01*
X53961Y32337D01*
X54016Y32314D01*
X54078Y32301D01*
X54136Y32295D01*
X54143D01*
X54162Y32298D01*
X54195Y32301D01*
X54230Y32311D01*
X54276Y32324D01*
X54321Y32347D01*
X54366Y32376D01*
X54412Y32415D01*
X54418Y32421D01*
X54431Y32437D01*
X54447Y32460D01*
X54470Y32496D01*
X54489Y32541D01*
X54509Y32593D01*
X54522Y32654D01*
X54525Y32722D01*
Y32726D01*
Y32732D01*
Y32742D01*
X54522Y32755D01*
X54519Y32794D01*
X54509Y32839D01*
X54496Y32888D01*
X54473Y32943D01*
X54444Y32995D01*
X54405Y33043D01*
X54399Y33050D01*
X54382Y33063D01*
X54357Y33082D01*
X54318Y33101D01*
X54272Y33124D01*
X54214Y33144D01*
X54149Y33157D01*
X54075Y33163D01*
X54104Y33445D01*
X54107D01*
X54117Y33442D01*
X54133D01*
X54156Y33439D01*
X54182Y33432D01*
X54211Y33426D01*
X54246Y33416D01*
X54282Y33406D01*
X54360Y33380D01*
X54438Y33341D01*
X54476Y33319D01*
X54515Y33289D01*
X54551Y33260D01*
X54583Y33228D01*
X54587Y33225D01*
X54590Y33218D01*
X54600Y33208D01*
X54609Y33192D01*
X54622Y33173D01*
X54635Y33150D01*
X54651Y33124D01*
X54668Y33092D01*
X54684Y33056D01*
X54700Y33017D01*
X54713Y32975D01*
X54726Y32930D01*
X54736Y32881D01*
X54745Y32829D01*
X54749Y32774D01*
X54752Y32716D01*
Y32713D01*
Y32703D01*
Y32684D01*
X54749Y32661D01*
X54745Y32635D01*
X54742Y32603D01*
X54736Y32567D01*
X54729Y32531D01*
X54707Y32447D01*
X54674Y32363D01*
X54655Y32321D01*
X54632Y32279D01*
X54603Y32240D01*
X54570Y32204D01*
X54567Y32201D01*
X54564Y32194D01*
X54551Y32188D01*
X54538Y32175D01*
X54522Y32159D01*
X54499Y32142D01*
X54476Y32126D01*
X54447Y32107D01*
X54386Y32074D01*
X54308Y32042D01*
X54269Y32029D01*
X54224Y32023D01*
X54178Y32016D01*
X54130Y32013D01*
X54107D01*
X54081Y32016D01*
X54045Y32019D01*
X54007Y32026D01*
X53961Y32039D01*
X53913Y32052D01*
X53864Y32071D01*
X53858Y32074D01*
X53841Y32081D01*
X53816Y32094D01*
X53780Y32113D01*
X53741Y32139D01*
X53692Y32172D01*
X53644Y32210D01*
X53589Y32256D01*
X53582Y32262D01*
X53563Y32279D01*
X53547Y32295D01*
X53530Y32311D01*
X53511Y32330D01*
X53485Y32356D01*
X53459Y32382D01*
X53430Y32415D01*
X53398Y32447D01*
X53362Y32486D01*
X53326Y32528D01*
X53284Y32573D01*
X53242Y32625D01*
X53197Y32677D01*
X53193Y32680D01*
X53187Y32687D01*
X53177Y32700D01*
X53164Y32716D01*
X53145Y32735D01*
X53125Y32758D01*
X53083Y32810D01*
X53035Y32865D01*
X52986Y32917D01*
X52944Y32962D01*
X52928Y32982D01*
X52912Y32998D01*
X52908Y33001D01*
X52899Y33011D01*
X52886Y33024D01*
X52866Y33040D01*
X52843Y33056D01*
X52821Y33076D01*
X52766Y33114D01*
Y32010D01*
X52500D01*
Y33497D01*
X52536D01*
X52562Y33494D01*
D02*
G37*
G36*
X33626Y43221D02*
Y43215D01*
Y43199D01*
Y43177D01*
Y43143D01*
X33620Y43099D01*
Y43055D01*
X33609Y42949D01*
X33598Y42827D01*
X33576Y42699D01*
X33542Y42583D01*
X33504Y42472D01*
Y42466D01*
X33498Y42461D01*
X33481Y42427D01*
X33454Y42383D01*
X33415Y42322D01*
X33359Y42261D01*
X33298Y42194D01*
X33220Y42128D01*
X33132Y42072D01*
X33121Y42067D01*
X33087Y42050D01*
X33037Y42028D01*
X32965Y42006D01*
X32876Y41978D01*
X32776Y41956D01*
X32666Y41939D01*
X32543Y41933D01*
X32493D01*
X32460Y41939D01*
X32416Y41945D01*
X32371Y41950D01*
X32255Y41972D01*
X32133Y42006D01*
X32005Y42055D01*
X31938Y42089D01*
X31877Y42128D01*
X31822Y42172D01*
X31766Y42222D01*
X31761Y42228D01*
X31755Y42233D01*
X31744Y42255D01*
X31728Y42278D01*
X31705Y42305D01*
X31683Y42344D01*
X31661Y42388D01*
X31633Y42439D01*
X31611Y42494D01*
X31589Y42561D01*
X31567Y42627D01*
X31544Y42705D01*
X31533Y42788D01*
X31517Y42882D01*
X31511Y42977D01*
Y43082D01*
X31972Y43149D01*
Y43143D01*
Y43132D01*
Y43110D01*
X31977Y43077D01*
X31983Y43043D01*
Y43005D01*
X31999Y42910D01*
X32016Y42810D01*
X32050Y42710D01*
X32083Y42622D01*
X32105Y42583D01*
X32133Y42549D01*
X32138Y42544D01*
X32160Y42527D01*
X32194Y42500D01*
X32238Y42472D01*
X32299Y42439D01*
X32366Y42416D01*
X32449Y42394D01*
X32538Y42388D01*
X32571D01*
X32605Y42394D01*
X32654Y42400D01*
X32704Y42411D01*
X32760Y42422D01*
X32815Y42444D01*
X32871Y42472D01*
X32876Y42477D01*
X32893Y42488D01*
X32915Y42511D01*
X32949Y42533D01*
X32976Y42572D01*
X33010Y42610D01*
X33037Y42655D01*
X33060Y42710D01*
Y42716D01*
X33071Y42738D01*
X33076Y42777D01*
X33087Y42827D01*
X33098Y42893D01*
X33104Y42977D01*
X33115Y43077D01*
Y43193D01*
Y45841D01*
X33626D01*
Y43221D01*
D02*
G37*
G36*
X79688Y32497D02*
X79695Y32490D01*
X79698Y32477D01*
X79707Y32461D01*
X79717Y32442D01*
X79730Y32419D01*
X79763Y32364D01*
X79798Y32299D01*
X79844Y32234D01*
X79896Y32166D01*
X79950Y32098D01*
X79954Y32095D01*
X79957Y32092D01*
X79967Y32082D01*
X79976Y32069D01*
X80009Y32040D01*
X80048Y32001D01*
X80093Y31962D01*
X80145Y31920D01*
X80197Y31884D01*
X80252Y31852D01*
Y31674D01*
X78000D01*
Y31949D01*
X79753D01*
X79750Y31953D01*
X79737Y31969D01*
X79717Y31988D01*
X79695Y32021D01*
X79665Y32056D01*
X79633Y32102D01*
X79597Y32153D01*
X79562Y32212D01*
Y32215D01*
X79558Y32218D01*
X79545Y32238D01*
X79529Y32270D01*
X79510Y32309D01*
X79487Y32354D01*
X79465Y32403D01*
X79442Y32451D01*
X79422Y32500D01*
X79688D01*
Y32497D01*
D02*
G37*
G36*
X55388Y106465D02*
X55414Y106461D01*
X55443Y106455D01*
X55475Y106448D01*
X55511Y106442D01*
X55589Y106416D01*
X55631Y106396D01*
X55670Y106377D01*
X55712Y106351D01*
X55754Y106322D01*
X55796Y106290D01*
X55835Y106251D01*
X55838Y106247D01*
X55844Y106241D01*
X55854Y106228D01*
X55867Y106212D01*
X55883Y106192D01*
X55900Y106167D01*
X55919Y106137D01*
X55935Y106102D01*
X55955Y106066D01*
X55974Y106024D01*
X55990Y105982D01*
X56006Y105933D01*
X56020Y105881D01*
X56029Y105826D01*
X56036Y105771D01*
X56039Y105710D01*
Y105706D01*
Y105697D01*
Y105680D01*
X56036Y105661D01*
X56032Y105635D01*
X56029Y105606D01*
X56023Y105573D01*
X56016Y105538D01*
X55997Y105460D01*
X55964Y105379D01*
X55945Y105337D01*
X55922Y105298D01*
X55893Y105259D01*
X55864Y105220D01*
X55861Y105217D01*
X55854Y105211D01*
X55844Y105201D01*
X55832Y105191D01*
X55815Y105175D01*
X55793Y105159D01*
X55770Y105139D01*
X55741Y105120D01*
X55708Y105101D01*
X55676Y105081D01*
X55598Y105045D01*
X55508Y105016D01*
X55459Y105007D01*
X55407Y105000D01*
X55371Y105275D01*
X55375D01*
X55381Y105279D01*
X55394Y105282D01*
X55410Y105285D01*
X55430Y105288D01*
X55453Y105295D01*
X55501Y105311D01*
X55559Y105334D01*
X55615Y105363D01*
X55666Y105395D01*
X55712Y105434D01*
X55715Y105441D01*
X55728Y105454D01*
X55744Y105480D01*
X55760Y105512D01*
X55780Y105551D01*
X55796Y105599D01*
X55809Y105655D01*
X55812Y105713D01*
Y105716D01*
Y105723D01*
Y105732D01*
X55809Y105745D01*
X55806Y105781D01*
X55796Y105826D01*
X55780Y105878D01*
X55757Y105933D01*
X55725Y105988D01*
X55679Y106040D01*
X55673Y106047D01*
X55653Y106063D01*
X55624Y106082D01*
X55585Y106108D01*
X55537Y106134D01*
X55482Y106154D01*
X55417Y106170D01*
X55346Y106176D01*
X55326D01*
X55313Y106173D01*
X55278Y106170D01*
X55235Y106160D01*
X55184Y106147D01*
X55132Y106124D01*
X55080Y106092D01*
X55031Y106050D01*
X55025Y106043D01*
X55012Y106027D01*
X54992Y106001D01*
X54970Y105966D01*
X54947Y105920D01*
X54928Y105865D01*
X54915Y105804D01*
X54908Y105736D01*
Y105732D01*
Y105723D01*
Y105706D01*
X54911Y105684D01*
X54915Y105655D01*
X54921Y105622D01*
X54928Y105583D01*
X54937Y105541D01*
X54694Y105573D01*
Y105577D01*
Y105590D01*
X54698Y105603D01*
Y105616D01*
Y105619D01*
Y105622D01*
Y105632D01*
Y105645D01*
X54691Y105680D01*
X54685Y105723D01*
X54675Y105771D01*
X54659Y105826D01*
X54636Y105878D01*
X54607Y105933D01*
Y105936D01*
X54604Y105940D01*
X54591Y105956D01*
X54568Y105979D01*
X54539Y106004D01*
X54497Y106030D01*
X54448Y106053D01*
X54393Y106069D01*
X54361Y106076D01*
X54299D01*
X54273Y106069D01*
X54238Y106063D01*
X54199Y106050D01*
X54157Y106034D01*
X54114Y106008D01*
X54075Y105972D01*
X54072Y105969D01*
X54059Y105953D01*
X54043Y105930D01*
X54024Y105901D01*
X54007Y105862D01*
X53991Y105816D01*
X53978Y105765D01*
X53975Y105706D01*
Y105703D01*
Y105700D01*
Y105680D01*
X53982Y105651D01*
X53988Y105612D01*
X54001Y105570D01*
X54017Y105528D01*
X54043Y105483D01*
X54075Y105441D01*
X54079Y105437D01*
X54095Y105424D01*
X54118Y105405D01*
X54150Y105382D01*
X54192Y105360D01*
X54244Y105337D01*
X54305Y105318D01*
X54377Y105305D01*
X54328Y105029D01*
X54325D01*
X54315Y105032D01*
X54302Y105036D01*
X54283Y105039D01*
X54260Y105045D01*
X54234Y105055D01*
X54173Y105075D01*
X54101Y105107D01*
X54030Y105146D01*
X53962Y105194D01*
X53900Y105256D01*
X53897Y105259D01*
X53894Y105266D01*
X53888Y105275D01*
X53878Y105288D01*
X53865Y105305D01*
X53852Y105327D01*
X53839Y105350D01*
X53823Y105379D01*
X53797Y105444D01*
X53771Y105518D01*
X53755Y105606D01*
X53748Y105651D01*
Y105700D01*
Y105703D01*
Y105710D01*
Y105719D01*
Y105732D01*
X53751Y105768D01*
X53758Y105810D01*
X53768Y105862D01*
X53784Y105920D01*
X53803Y105979D01*
X53829Y106037D01*
Y106040D01*
X53833Y106043D01*
X53842Y106063D01*
X53862Y106092D01*
X53884Y106124D01*
X53917Y106163D01*
X53952Y106202D01*
X53995Y106241D01*
X54043Y106273D01*
X54050Y106277D01*
X54066Y106286D01*
X54095Y106299D01*
X54131Y106316D01*
X54173Y106332D01*
X54221Y106345D01*
X54276Y106354D01*
X54331Y106358D01*
X54357D01*
X54383Y106354D01*
X54419Y106348D01*
X54461Y106338D01*
X54506Y106322D01*
X54552Y106302D01*
X54597Y106277D01*
X54604Y106273D01*
X54617Y106264D01*
X54639Y106244D01*
X54665Y106218D01*
X54694Y106186D01*
X54727Y106147D01*
X54756Y106102D01*
X54785Y106047D01*
Y106050D01*
X54788Y106056D01*
X54791Y106066D01*
X54795Y106079D01*
X54808Y106115D01*
X54827Y106160D01*
X54853Y106212D01*
X54886Y106264D01*
X54928Y106312D01*
X54976Y106358D01*
X54983Y106361D01*
X55002Y106374D01*
X55035Y106393D01*
X55077Y106413D01*
X55129Y106432D01*
X55190Y106452D01*
X55261Y106465D01*
X55339Y106468D01*
X55368D01*
X55388Y106465D01*
D02*
G37*
G36*
X5290Y54371D02*
X5334Y54366D01*
X5384Y54360D01*
X5446Y54349D01*
X5507Y54338D01*
X5651Y54305D01*
X5801Y54249D01*
X5878Y54216D01*
X5951Y54172D01*
X6028Y54127D01*
X6100Y54072D01*
X6106Y54066D01*
X6123Y54055D01*
X6145Y54033D01*
X6173Y54005D01*
X6206Y53966D01*
X6250Y53922D01*
X6289Y53866D01*
X6334Y53805D01*
X6378Y53739D01*
X6417Y53661D01*
X6456Y53578D01*
X6494Y53489D01*
X6522Y53395D01*
X6544Y53289D01*
X6561Y53178D01*
X6567Y53062D01*
Y53056D01*
Y53039D01*
Y53012D01*
X6561Y52973D01*
X6555Y52928D01*
X6550Y52878D01*
X6544Y52817D01*
X6528Y52756D01*
X6494Y52618D01*
X6444Y52479D01*
X6411Y52407D01*
X6372Y52335D01*
X6328Y52268D01*
X6278Y52201D01*
X6272Y52196D01*
X6267Y52185D01*
X6245Y52174D01*
X6222Y52151D01*
X6195Y52124D01*
X6161Y52096D01*
X6117Y52063D01*
X6067Y52035D01*
X6017Y52002D01*
X5956Y51968D01*
X5823Y51907D01*
X5667Y51857D01*
X5584Y51841D01*
X5495Y51829D01*
X5457Y52324D01*
X5473D01*
X5490Y52329D01*
X5518Y52335D01*
X5579Y52351D01*
X5662Y52373D01*
X5745Y52407D01*
X5839Y52451D01*
X5923Y52507D01*
X6001Y52573D01*
X6006Y52584D01*
X6028Y52606D01*
X6056Y52651D01*
X6089Y52712D01*
X6123Y52779D01*
X6150Y52862D01*
X6173Y52956D01*
X6178Y53062D01*
Y53067D01*
Y53078D01*
Y53095D01*
X6173Y53117D01*
X6167Y53184D01*
X6145Y53261D01*
X6117Y53356D01*
X6073Y53450D01*
X6006Y53550D01*
X5967Y53594D01*
X5923Y53639D01*
X5917Y53644D01*
X5912Y53650D01*
X5895Y53661D01*
X5878Y53678D01*
X5817Y53716D01*
X5740Y53761D01*
X5645Y53800D01*
X5529Y53839D01*
X5390Y53866D01*
X5318Y53877D01*
X5201D01*
X5174Y53872D01*
X5140D01*
X5101Y53866D01*
X5013Y53850D01*
X4907Y53822D01*
X4802Y53783D01*
X4702Y53728D01*
X4608Y53650D01*
X4602D01*
X4596Y53639D01*
X4569Y53611D01*
X4530Y53561D01*
X4485Y53495D01*
X4447Y53406D01*
X4408Y53306D01*
X4380Y53189D01*
X4369Y53123D01*
Y53056D01*
Y53045D01*
Y53017D01*
X4374Y52973D01*
X4380Y52917D01*
X4397Y52851D01*
X4413Y52784D01*
X4441Y52712D01*
X4474Y52640D01*
X4480Y52634D01*
X4491Y52612D01*
X4519Y52579D01*
X4546Y52534D01*
X4585Y52490D01*
X4635Y52446D01*
X4685Y52396D01*
X4746Y52357D01*
X4685Y51913D01*
X2709Y52285D01*
Y54194D01*
X3159D01*
Y52656D01*
X4197Y52451D01*
X4191Y52457D01*
X4186Y52468D01*
X4174Y52484D01*
X4158Y52512D01*
X4141Y52545D01*
X4119Y52584D01*
X4075Y52673D01*
X4030Y52784D01*
X3991Y52906D01*
X3964Y53039D01*
X3953Y53106D01*
Y53178D01*
Y53184D01*
Y53200D01*
Y53228D01*
X3958Y53261D01*
X3964Y53306D01*
X3969Y53356D01*
X3980Y53411D01*
X3997Y53472D01*
X4036Y53606D01*
X4064Y53678D01*
X4102Y53750D01*
X4141Y53822D01*
X4186Y53894D01*
X4241Y53961D01*
X4302Y54027D01*
X4308Y54033D01*
X4319Y54044D01*
X4335Y54061D01*
X4363Y54083D01*
X4402Y54111D01*
X4441Y54138D01*
X4491Y54172D01*
X4546Y54205D01*
X4608Y54233D01*
X4674Y54266D01*
X4752Y54294D01*
X4829Y54321D01*
X4913Y54344D01*
X5007Y54360D01*
X5101Y54371D01*
X5201Y54377D01*
X5251D01*
X5290Y54371D01*
D02*
G37*
G36*
X4312Y74891D02*
X4346Y74880D01*
X4390Y74863D01*
X4440Y74847D01*
X4501Y74825D01*
X4568Y74797D01*
X4640Y74763D01*
X4795Y74686D01*
X4950Y74586D01*
X5028Y74525D01*
X5106Y74464D01*
X5173Y74397D01*
X5239Y74319D01*
X5245Y74314D01*
X5256Y74303D01*
X5267Y74275D01*
X5289Y74247D01*
X5317Y74203D01*
X5345Y74159D01*
X5372Y74097D01*
X5400Y74036D01*
X5433Y73964D01*
X5461Y73887D01*
X5489Y73803D01*
X5517Y73714D01*
X5539Y73620D01*
X5550Y73520D01*
X5561Y73415D01*
X5567Y73304D01*
Y73298D01*
Y73276D01*
Y73243D01*
X5561Y73198D01*
Y73148D01*
X5556Y73087D01*
X5544Y73021D01*
X5533Y72943D01*
X5506Y72782D01*
X5461Y72615D01*
X5400Y72449D01*
X5361Y72371D01*
X5317Y72294D01*
X5311Y72288D01*
X5306Y72277D01*
X5289Y72255D01*
X5267Y72233D01*
X5245Y72199D01*
X5211Y72161D01*
X5173Y72116D01*
X5128Y72072D01*
X5078Y72027D01*
X5028Y71977D01*
X4901Y71877D01*
X4751Y71783D01*
X4584Y71700D01*
X4579D01*
X4562Y71689D01*
X4534Y71683D01*
X4501Y71667D01*
X4457Y71655D01*
X4401Y71639D01*
X4340Y71617D01*
X4273Y71600D01*
X4201Y71583D01*
X4118Y71561D01*
X3946Y71533D01*
X3752Y71511D01*
X3552Y71500D01*
X3491D01*
X3452Y71506D01*
X3396D01*
X3341Y71511D01*
X3269Y71517D01*
X3197Y71528D01*
X3036Y71556D01*
X2858Y71594D01*
X2681Y71650D01*
X2509Y71728D01*
X2503Y71733D01*
X2486Y71739D01*
X2464Y71750D01*
X2436Y71772D01*
X2398Y71794D01*
X2353Y71822D01*
X2253Y71894D01*
X2142Y71988D01*
X2031Y72099D01*
X1920Y72227D01*
X1826Y72377D01*
X1820Y72382D01*
X1815Y72399D01*
X1804Y72421D01*
X1787Y72449D01*
X1770Y72493D01*
X1754Y72538D01*
X1732Y72593D01*
X1709Y72654D01*
X1687Y72721D01*
X1665Y72793D01*
X1632Y72949D01*
X1604Y73126D01*
X1593Y73309D01*
Y73315D01*
Y73337D01*
Y73365D01*
X1598Y73404D01*
X1604Y73454D01*
X1609Y73515D01*
X1615Y73576D01*
X1632Y73648D01*
X1665Y73798D01*
X1715Y73964D01*
X1748Y74047D01*
X1787Y74125D01*
X1837Y74203D01*
X1887Y74281D01*
X1892Y74286D01*
X1898Y74297D01*
X1915Y74319D01*
X1942Y74347D01*
X1970Y74375D01*
X2009Y74414D01*
X2053Y74453D01*
X2098Y74497D01*
X2153Y74541D01*
X2220Y74586D01*
X2287Y74636D01*
X2359Y74680D01*
X2442Y74719D01*
X2525Y74763D01*
X2614Y74797D01*
X2714Y74830D01*
X2830Y74331D01*
X2825D01*
X2814Y74325D01*
X2792Y74314D01*
X2764Y74303D01*
X2730Y74292D01*
X2686Y74275D01*
X2597Y74231D01*
X2497Y74175D01*
X2398Y74108D01*
X2303Y74025D01*
X2220Y73936D01*
X2209Y73925D01*
X2187Y73892D01*
X2159Y73836D01*
X2120Y73764D01*
X2087Y73670D01*
X2053Y73565D01*
X2031Y73437D01*
X2026Y73298D01*
Y73293D01*
Y73276D01*
Y73254D01*
X2031Y73226D01*
Y73187D01*
X2037Y73143D01*
X2053Y73037D01*
X2076Y72921D01*
X2114Y72799D01*
X2170Y72671D01*
X2242Y72554D01*
Y72549D01*
X2253Y72543D01*
X2281Y72505D01*
X2325Y72455D01*
X2392Y72394D01*
X2475Y72321D01*
X2570Y72255D01*
X2686Y72194D01*
X2814Y72138D01*
X2819D01*
X2830Y72133D01*
X2847Y72127D01*
X2875Y72122D01*
X2908Y72110D01*
X2947Y72099D01*
X3041Y72083D01*
X3152Y72061D01*
X3274Y72038D01*
X3408Y72027D01*
X3552Y72022D01*
X3635D01*
X3674Y72027D01*
X3724D01*
X3779Y72033D01*
X3841Y72038D01*
X3974Y72055D01*
X4118Y72083D01*
X4262Y72116D01*
X4407Y72161D01*
X4412D01*
X4423Y72166D01*
X4440Y72177D01*
X4468Y72188D01*
X4534Y72221D01*
X4612Y72272D01*
X4701Y72333D01*
X4795Y72410D01*
X4878Y72499D01*
X4956Y72604D01*
Y72610D01*
X4962Y72621D01*
X4973Y72638D01*
X4984Y72660D01*
X4995Y72688D01*
X5012Y72721D01*
X5045Y72799D01*
X5078Y72899D01*
X5106Y73010D01*
X5128Y73132D01*
X5134Y73259D01*
Y73265D01*
Y73276D01*
Y73298D01*
X5128Y73331D01*
Y73370D01*
X5123Y73409D01*
X5100Y73509D01*
X5073Y73626D01*
X5028Y73742D01*
X4967Y73864D01*
X4934Y73925D01*
X4890Y73981D01*
X4884Y73986D01*
X4878Y73992D01*
X4862Y74009D01*
X4845Y74031D01*
X4817Y74053D01*
X4784Y74081D01*
X4751Y74114D01*
X4706Y74142D01*
X4656Y74175D01*
X4601Y74214D01*
X4545Y74247D01*
X4479Y74281D01*
X4407Y74308D01*
X4329Y74336D01*
X4246Y74364D01*
X4157Y74386D01*
X4285Y74897D01*
X4290D01*
X4312Y74891D01*
D02*
G37*
G36*
X5312Y51391D02*
X5346Y51380D01*
X5390Y51363D01*
X5440Y51347D01*
X5501Y51324D01*
X5568Y51297D01*
X5640Y51263D01*
X5795Y51186D01*
X5951Y51086D01*
X6028Y51025D01*
X6106Y50964D01*
X6173Y50897D01*
X6239Y50819D01*
X6245Y50814D01*
X6256Y50803D01*
X6267Y50775D01*
X6289Y50747D01*
X6317Y50703D01*
X6345Y50658D01*
X6372Y50597D01*
X6400Y50536D01*
X6433Y50464D01*
X6461Y50387D01*
X6489Y50303D01*
X6517Y50214D01*
X6539Y50120D01*
X6550Y50020D01*
X6561Y49915D01*
X6567Y49804D01*
Y49798D01*
Y49776D01*
Y49743D01*
X6561Y49698D01*
Y49648D01*
X6555Y49587D01*
X6544Y49521D01*
X6533Y49443D01*
X6505Y49282D01*
X6461Y49116D01*
X6400Y48949D01*
X6361Y48871D01*
X6317Y48794D01*
X6311Y48788D01*
X6306Y48777D01*
X6289Y48755D01*
X6267Y48733D01*
X6245Y48699D01*
X6211Y48660D01*
X6173Y48616D01*
X6128Y48572D01*
X6078Y48527D01*
X6028Y48477D01*
X5901Y48377D01*
X5751Y48283D01*
X5584Y48200D01*
X5579D01*
X5562Y48189D01*
X5534Y48183D01*
X5501Y48166D01*
X5457Y48155D01*
X5401Y48139D01*
X5340Y48117D01*
X5273Y48100D01*
X5201Y48083D01*
X5118Y48061D01*
X4946Y48033D01*
X4752Y48011D01*
X4552Y48000D01*
X4491D01*
X4452Y48006D01*
X4397D01*
X4341Y48011D01*
X4269Y48017D01*
X4197Y48028D01*
X4036Y48055D01*
X3858Y48094D01*
X3681Y48150D01*
X3509Y48228D01*
X3503Y48233D01*
X3486Y48239D01*
X3464Y48250D01*
X3436Y48272D01*
X3398Y48294D01*
X3353Y48322D01*
X3253Y48394D01*
X3142Y48488D01*
X3031Y48599D01*
X2920Y48727D01*
X2826Y48877D01*
X2820Y48882D01*
X2815Y48899D01*
X2804Y48921D01*
X2787Y48949D01*
X2770Y48994D01*
X2754Y49038D01*
X2732Y49093D01*
X2709Y49154D01*
X2687Y49221D01*
X2665Y49293D01*
X2632Y49449D01*
X2604Y49626D01*
X2593Y49809D01*
Y49815D01*
Y49837D01*
Y49865D01*
X2598Y49904D01*
X2604Y49954D01*
X2609Y50015D01*
X2615Y50076D01*
X2632Y50148D01*
X2665Y50298D01*
X2715Y50464D01*
X2748Y50547D01*
X2787Y50625D01*
X2837Y50703D01*
X2887Y50780D01*
X2892Y50786D01*
X2898Y50797D01*
X2915Y50819D01*
X2942Y50847D01*
X2970Y50875D01*
X3009Y50914D01*
X3053Y50953D01*
X3098Y50997D01*
X3153Y51041D01*
X3220Y51086D01*
X3286Y51136D01*
X3359Y51180D01*
X3442Y51219D01*
X3525Y51263D01*
X3614Y51297D01*
X3714Y51330D01*
X3830Y50831D01*
X3825D01*
X3814Y50825D01*
X3792Y50814D01*
X3764Y50803D01*
X3731Y50792D01*
X3686Y50775D01*
X3597Y50731D01*
X3497Y50675D01*
X3398Y50608D01*
X3303Y50525D01*
X3220Y50437D01*
X3209Y50425D01*
X3187Y50392D01*
X3159Y50336D01*
X3120Y50264D01*
X3087Y50170D01*
X3053Y50065D01*
X3031Y49937D01*
X3026Y49798D01*
Y49793D01*
Y49776D01*
Y49754D01*
X3031Y49726D01*
Y49687D01*
X3037Y49643D01*
X3053Y49537D01*
X3076Y49421D01*
X3115Y49299D01*
X3170Y49171D01*
X3242Y49055D01*
Y49049D01*
X3253Y49043D01*
X3281Y49005D01*
X3325Y48955D01*
X3392Y48893D01*
X3475Y48821D01*
X3570Y48755D01*
X3686Y48694D01*
X3814Y48638D01*
X3819D01*
X3830Y48633D01*
X3847Y48627D01*
X3875Y48622D01*
X3908Y48610D01*
X3947Y48599D01*
X4041Y48583D01*
X4152Y48561D01*
X4275Y48538D01*
X4408Y48527D01*
X4552Y48522D01*
X4635D01*
X4674Y48527D01*
X4724D01*
X4780Y48533D01*
X4841Y48538D01*
X4974Y48555D01*
X5118Y48583D01*
X5262Y48616D01*
X5407Y48660D01*
X5412D01*
X5423Y48666D01*
X5440Y48677D01*
X5468Y48688D01*
X5534Y48722D01*
X5612Y48771D01*
X5701Y48832D01*
X5795Y48910D01*
X5878Y48999D01*
X5956Y49104D01*
Y49110D01*
X5962Y49121D01*
X5973Y49138D01*
X5984Y49160D01*
X5995Y49188D01*
X6012Y49221D01*
X6045Y49299D01*
X6078Y49399D01*
X6106Y49510D01*
X6128Y49632D01*
X6134Y49759D01*
Y49765D01*
Y49776D01*
Y49798D01*
X6128Y49832D01*
Y49870D01*
X6123Y49909D01*
X6100Y50009D01*
X6073Y50126D01*
X6028Y50242D01*
X5967Y50364D01*
X5934Y50425D01*
X5889Y50481D01*
X5884Y50486D01*
X5878Y50492D01*
X5862Y50509D01*
X5845Y50531D01*
X5817Y50553D01*
X5784Y50581D01*
X5751Y50614D01*
X5706Y50642D01*
X5656Y50675D01*
X5601Y50714D01*
X5545Y50747D01*
X5479Y50780D01*
X5407Y50808D01*
X5329Y50836D01*
X5246Y50864D01*
X5157Y50886D01*
X5285Y51397D01*
X5290D01*
X5312Y51391D01*
D02*
G37*
G36*
X6500Y92242D02*
X5701Y91737D01*
X5695D01*
X5684Y91725D01*
X5667Y91714D01*
X5645Y91698D01*
X5584Y91659D01*
X5507Y91609D01*
X5423Y91548D01*
X5334Y91487D01*
X5251Y91426D01*
X5174Y91370D01*
X5168Y91365D01*
X5146Y91348D01*
X5113Y91320D01*
X5074Y91282D01*
X4990Y91198D01*
X4952Y91154D01*
X4918Y91110D01*
X4913Y91104D01*
X4907Y91093D01*
X4896Y91071D01*
X4879Y91037D01*
X4863Y91004D01*
X4846Y90965D01*
X4818Y90876D01*
Y90871D01*
X4813Y90860D01*
Y90838D01*
X4807Y90810D01*
X4802Y90771D01*
Y90727D01*
X4796Y90666D01*
Y90599D01*
Y90011D01*
X6500D01*
Y89500D01*
X2659D01*
Y91198D01*
Y91204D01*
Y91220D01*
Y91248D01*
Y91282D01*
X2665Y91326D01*
Y91376D01*
X2671Y91492D01*
X2687Y91615D01*
X2704Y91748D01*
X2732Y91870D01*
X2748Y91931D01*
X2765Y91981D01*
Y91986D01*
X2770Y91992D01*
X2787Y92025D01*
X2809Y92075D01*
X2848Y92136D01*
X2898Y92203D01*
X2965Y92275D01*
X3042Y92342D01*
X3131Y92408D01*
X3137D01*
X3142Y92414D01*
X3176Y92436D01*
X3231Y92458D01*
X3303Y92491D01*
X3386Y92519D01*
X3486Y92547D01*
X3592Y92564D01*
X3708Y92569D01*
X3747D01*
X3775Y92564D01*
X3814D01*
X3853Y92558D01*
X3947Y92536D01*
X4058Y92502D01*
X4174Y92458D01*
X4291Y92392D01*
X4347Y92347D01*
X4402Y92303D01*
X4408Y92297D01*
X4413Y92292D01*
X4430Y92275D01*
X4447Y92253D01*
X4469Y92225D01*
X4491Y92192D01*
X4519Y92147D01*
X4552Y92103D01*
X4580Y92048D01*
X4608Y91986D01*
X4641Y91920D01*
X4668Y91848D01*
X4691Y91764D01*
X4718Y91681D01*
X4735Y91587D01*
X4752Y91487D01*
X4757Y91498D01*
X4768Y91520D01*
X4791Y91553D01*
X4813Y91598D01*
X4874Y91698D01*
X4913Y91748D01*
X4946Y91792D01*
X4957Y91803D01*
X4985Y91831D01*
X5029Y91875D01*
X5085Y91931D01*
X5162Y91992D01*
X5246Y92064D01*
X5346Y92136D01*
X5457Y92214D01*
X6500Y92874D01*
Y92242D01*
D02*
G37*
G36*
X5579Y95155D02*
X6500D01*
Y94684D01*
X5579D01*
Y93013D01*
X5146D01*
X2659Y94772D01*
Y95155D01*
X5146D01*
Y95677D01*
X5579D01*
Y95155D01*
D02*
G37*
G36*
X14024Y61014D02*
X14079D01*
X14146Y61008D01*
X14212Y61002D01*
X14362Y60986D01*
X14518Y60964D01*
X14668Y60930D01*
X14740Y60908D01*
X14806Y60886D01*
X14812D01*
X14823Y60880D01*
X14840Y60869D01*
X14862Y60858D01*
X14923Y60825D01*
X15000Y60775D01*
X15089Y60708D01*
X15178Y60631D01*
X15272Y60531D01*
X15356Y60409D01*
Y60403D01*
X15367Y60392D01*
X15372Y60375D01*
X15389Y60348D01*
X15406Y60314D01*
X15422Y60270D01*
X15439Y60225D01*
X15461Y60170D01*
X15483Y60109D01*
X15500Y60042D01*
X15517Y59970D01*
X15533Y59887D01*
X15544Y59804D01*
X15555Y59715D01*
X15567Y59515D01*
Y59510D01*
Y59493D01*
Y59465D01*
X15561Y59426D01*
Y59382D01*
X15555Y59326D01*
X15550Y59265D01*
X15544Y59204D01*
X15522Y59066D01*
X15489Y58916D01*
X15445Y58772D01*
X15383Y58633D01*
Y58627D01*
X15372Y58616D01*
X15361Y58599D01*
X15350Y58577D01*
X15306Y58516D01*
X15245Y58444D01*
X15167Y58361D01*
X15078Y58283D01*
X14967Y58205D01*
X14845Y58144D01*
X14840D01*
X14829Y58139D01*
X14806Y58133D01*
X14778Y58122D01*
X14745Y58111D01*
X14701Y58100D01*
X14651Y58083D01*
X14590Y58072D01*
X14523Y58061D01*
X14451Y58044D01*
X14373Y58033D01*
X14290Y58022D01*
X14196Y58011D01*
X14096Y58006D01*
X13990Y58000D01*
X11659D01*
Y58511D01*
X13963D01*
X14002Y58516D01*
X14051D01*
X14157Y58522D01*
X14279Y58533D01*
X14401Y58549D01*
X14518Y58572D01*
X14568Y58583D01*
X14617Y58599D01*
X14629Y58605D01*
X14656Y58616D01*
X14695Y58644D01*
X14751Y58677D01*
X14806Y58716D01*
X14867Y58772D01*
X14928Y58838D01*
X14978Y58916D01*
X14984Y58927D01*
X15000Y58955D01*
X15017Y59004D01*
X15039Y59071D01*
X15067Y59149D01*
X15084Y59249D01*
X15100Y59354D01*
X15106Y59471D01*
Y59476D01*
Y59493D01*
Y59526D01*
X15100Y59560D01*
Y59610D01*
X15095Y59659D01*
X15073Y59782D01*
X15045Y59915D01*
X15000Y60042D01*
X14939Y60164D01*
X14901Y60220D01*
X14856Y60270D01*
X14851Y60276D01*
X14845Y60281D01*
X14829Y60292D01*
X14806Y60309D01*
X14773Y60325D01*
X14740Y60348D01*
X14690Y60370D01*
X14640Y60392D01*
X14579Y60414D01*
X14506Y60431D01*
X14423Y60453D01*
X14334Y60470D01*
X14235Y60486D01*
X14129Y60497D01*
X14007Y60509D01*
X11659D01*
Y61019D01*
X13974D01*
X14024Y61014D01*
D02*
G37*
G36*
X15500Y61607D02*
X15439D01*
X15395Y61613D01*
X15345Y61619D01*
X15289Y61630D01*
X15234Y61641D01*
X15173Y61663D01*
X15167D01*
X15161Y61669D01*
X15128Y61680D01*
X15078Y61702D01*
X15012Y61735D01*
X14934Y61779D01*
X14845Y61835D01*
X14756Y61896D01*
X14662Y61974D01*
X14656D01*
X14651Y61985D01*
X14617Y62013D01*
X14568Y62063D01*
X14495Y62135D01*
X14412Y62218D01*
X14312Y62323D01*
X14201Y62451D01*
X14085Y62590D01*
X14079Y62595D01*
X14062Y62618D01*
X14035Y62651D01*
X14002Y62690D01*
X13957Y62740D01*
X13907Y62801D01*
X13852Y62862D01*
X13791Y62934D01*
X13657Y63073D01*
X13524Y63212D01*
X13458Y63278D01*
X13391Y63339D01*
X13330Y63395D01*
X13269Y63439D01*
X13263D01*
X13258Y63450D01*
X13241Y63461D01*
X13219Y63472D01*
X13158Y63511D01*
X13086Y63556D01*
X12997Y63594D01*
X12903Y63633D01*
X12797Y63655D01*
X12697Y63666D01*
X12686D01*
X12653Y63661D01*
X12597Y63655D01*
X12536Y63639D01*
X12459Y63617D01*
X12381Y63578D01*
X12303Y63528D01*
X12225Y63461D01*
X12214Y63450D01*
X12192Y63422D01*
X12164Y63384D01*
X12126Y63323D01*
X12092Y63245D01*
X12059Y63156D01*
X12037Y63051D01*
X12031Y62934D01*
Y62928D01*
Y62917D01*
Y62901D01*
X12037Y62878D01*
X12042Y62812D01*
X12059Y62734D01*
X12081Y62651D01*
X12120Y62557D01*
X12170Y62468D01*
X12237Y62384D01*
X12248Y62373D01*
X12275Y62351D01*
X12320Y62318D01*
X12387Y62285D01*
X12464Y62246D01*
X12564Y62213D01*
X12675Y62190D01*
X12803Y62179D01*
X12753Y61696D01*
X12747D01*
X12731Y61702D01*
X12703D01*
X12664Y61707D01*
X12619Y61718D01*
X12570Y61730D01*
X12508Y61746D01*
X12448Y61763D01*
X12314Y61807D01*
X12181Y61874D01*
X12115Y61913D01*
X12048Y61963D01*
X11987Y62013D01*
X11931Y62068D01*
X11926Y62074D01*
X11920Y62085D01*
X11904Y62101D01*
X11887Y62129D01*
X11865Y62163D01*
X11842Y62201D01*
X11815Y62246D01*
X11787Y62301D01*
X11759Y62362D01*
X11732Y62429D01*
X11709Y62501D01*
X11687Y62579D01*
X11671Y62662D01*
X11654Y62751D01*
X11648Y62845D01*
X11643Y62945D01*
Y62951D01*
Y62967D01*
Y63001D01*
X11648Y63039D01*
X11654Y63084D01*
X11659Y63139D01*
X11671Y63200D01*
X11682Y63261D01*
X11720Y63406D01*
X11776Y63550D01*
X11809Y63622D01*
X11848Y63694D01*
X11898Y63761D01*
X11953Y63822D01*
X11959Y63828D01*
X11965Y63839D01*
X11987Y63850D01*
X12009Y63872D01*
X12037Y63900D01*
X12076Y63927D01*
X12115Y63955D01*
X12164Y63989D01*
X12270Y64044D01*
X12403Y64100D01*
X12470Y64122D01*
X12547Y64133D01*
X12625Y64144D01*
X12708Y64149D01*
X12747D01*
X12792Y64144D01*
X12853Y64138D01*
X12919Y64127D01*
X12997Y64105D01*
X13080Y64083D01*
X13163Y64050D01*
X13174Y64044D01*
X13202Y64033D01*
X13247Y64011D01*
X13308Y63977D01*
X13374Y63933D01*
X13458Y63877D01*
X13541Y63811D01*
X13635Y63733D01*
X13646Y63722D01*
X13680Y63694D01*
X13707Y63666D01*
X13735Y63639D01*
X13768Y63605D01*
X13813Y63561D01*
X13857Y63517D01*
X13907Y63461D01*
X13963Y63406D01*
X14024Y63339D01*
X14085Y63267D01*
X14157Y63189D01*
X14229Y63100D01*
X14307Y63012D01*
X14312Y63006D01*
X14323Y62995D01*
X14340Y62973D01*
X14362Y62945D01*
X14396Y62912D01*
X14429Y62873D01*
X14501Y62784D01*
X14584Y62690D01*
X14668Y62601D01*
X14740Y62523D01*
X14767Y62490D01*
X14795Y62462D01*
X14801Y62457D01*
X14817Y62440D01*
X14840Y62418D01*
X14873Y62390D01*
X14912Y62362D01*
X14951Y62329D01*
X15045Y62262D01*
Y64155D01*
X15500D01*
Y61607D01*
D02*
G37*
G36*
X80048Y54994D02*
X80103D01*
X80159Y54989D01*
X80231Y54983D01*
X80303Y54972D01*
X80464Y54944D01*
X80642Y54906D01*
X80819Y54850D01*
X80991Y54773D01*
X80997Y54767D01*
X81014Y54761D01*
X81036Y54750D01*
X81064Y54728D01*
X81102Y54706D01*
X81147Y54678D01*
X81247Y54606D01*
X81358Y54512D01*
X81469Y54401D01*
X81580Y54273D01*
X81674Y54123D01*
X81680Y54118D01*
X81685Y54101D01*
X81696Y54079D01*
X81713Y54051D01*
X81730Y54007D01*
X81746Y53962D01*
X81768Y53907D01*
X81791Y53846D01*
X81813Y53779D01*
X81835Y53707D01*
X81868Y53551D01*
X81896Y53374D01*
X81907Y53191D01*
Y53185D01*
Y53163D01*
Y53135D01*
X81902Y53096D01*
X81896Y53046D01*
X81890Y52985D01*
X81885Y52924D01*
X81868Y52852D01*
X81835Y52702D01*
X81785Y52536D01*
X81752Y52452D01*
X81713Y52375D01*
X81663Y52297D01*
X81613Y52219D01*
X81608Y52214D01*
X81602Y52203D01*
X81585Y52181D01*
X81558Y52153D01*
X81530Y52125D01*
X81491Y52086D01*
X81447Y52047D01*
X81402Y52003D01*
X81347Y51959D01*
X81280Y51914D01*
X81213Y51864D01*
X81141Y51820D01*
X81058Y51781D01*
X80975Y51737D01*
X80886Y51703D01*
X80786Y51670D01*
X80670Y52170D01*
X80675D01*
X80686Y52175D01*
X80708Y52186D01*
X80736Y52197D01*
X80769Y52208D01*
X80814Y52225D01*
X80903Y52269D01*
X81002Y52325D01*
X81102Y52391D01*
X81197Y52475D01*
X81280Y52564D01*
X81291Y52575D01*
X81313Y52608D01*
X81341Y52663D01*
X81380Y52736D01*
X81413Y52830D01*
X81447Y52935D01*
X81469Y53063D01*
X81474Y53202D01*
Y53207D01*
Y53224D01*
Y53246D01*
X81469Y53274D01*
Y53313D01*
X81463Y53357D01*
X81447Y53463D01*
X81424Y53579D01*
X81385Y53701D01*
X81330Y53829D01*
X81258Y53945D01*
Y53951D01*
X81247Y53957D01*
X81219Y53996D01*
X81175Y54045D01*
X81108Y54106D01*
X81025Y54179D01*
X80930Y54245D01*
X80814Y54306D01*
X80686Y54362D01*
X80681D01*
X80670Y54367D01*
X80653Y54373D01*
X80625Y54378D01*
X80592Y54390D01*
X80553Y54401D01*
X80459Y54417D01*
X80348Y54439D01*
X80225Y54462D01*
X80092Y54473D01*
X79948Y54478D01*
X79865D01*
X79826Y54473D01*
X79776D01*
X79720Y54467D01*
X79659Y54462D01*
X79526Y54445D01*
X79382Y54417D01*
X79238Y54384D01*
X79093Y54339D01*
X79088D01*
X79077Y54334D01*
X79060Y54323D01*
X79032Y54312D01*
X78966Y54278D01*
X78888Y54229D01*
X78799Y54167D01*
X78705Y54090D01*
X78622Y54001D01*
X78544Y53896D01*
Y53890D01*
X78538Y53879D01*
X78527Y53862D01*
X78516Y53840D01*
X78505Y53812D01*
X78488Y53779D01*
X78455Y53701D01*
X78422Y53601D01*
X78394Y53490D01*
X78372Y53368D01*
X78366Y53241D01*
Y53235D01*
Y53224D01*
Y53202D01*
X78372Y53168D01*
Y53130D01*
X78377Y53091D01*
X78400Y52991D01*
X78427Y52874D01*
X78472Y52758D01*
X78533Y52636D01*
X78566Y52575D01*
X78610Y52519D01*
X78616Y52514D01*
X78622Y52508D01*
X78638Y52491D01*
X78655Y52469D01*
X78683Y52447D01*
X78716Y52419D01*
X78749Y52386D01*
X78794Y52358D01*
X78844Y52325D01*
X78899Y52286D01*
X78955Y52253D01*
X79021Y52219D01*
X79093Y52192D01*
X79171Y52164D01*
X79254Y52136D01*
X79343Y52114D01*
X79215Y51603D01*
X79210D01*
X79188Y51609D01*
X79154Y51620D01*
X79110Y51637D01*
X79060Y51653D01*
X78999Y51675D01*
X78932Y51703D01*
X78860Y51737D01*
X78705Y51814D01*
X78549Y51914D01*
X78472Y51975D01*
X78394Y52036D01*
X78327Y52103D01*
X78261Y52181D01*
X78255Y52186D01*
X78244Y52197D01*
X78233Y52225D01*
X78211Y52253D01*
X78183Y52297D01*
X78155Y52342D01*
X78128Y52403D01*
X78100Y52464D01*
X78067Y52536D01*
X78039Y52614D01*
X78011Y52697D01*
X77983Y52786D01*
X77961Y52880D01*
X77950Y52980D01*
X77939Y53085D01*
X77933Y53196D01*
Y53202D01*
Y53224D01*
Y53257D01*
X77939Y53302D01*
Y53352D01*
X77944Y53413D01*
X77956Y53479D01*
X77967Y53557D01*
X77994Y53718D01*
X78039Y53885D01*
X78100Y54051D01*
X78139Y54129D01*
X78183Y54206D01*
X78189Y54212D01*
X78194Y54223D01*
X78211Y54245D01*
X78233Y54267D01*
X78255Y54301D01*
X78289Y54339D01*
X78327Y54384D01*
X78372Y54428D01*
X78422Y54473D01*
X78472Y54523D01*
X78599Y54623D01*
X78749Y54717D01*
X78916Y54800D01*
X78921D01*
X78938Y54811D01*
X78966Y54817D01*
X78999Y54834D01*
X79043Y54845D01*
X79099Y54861D01*
X79160Y54883D01*
X79226Y54900D01*
X79299Y54917D01*
X79382Y54939D01*
X79554Y54967D01*
X79748Y54989D01*
X79948Y55000D01*
X80009D01*
X80048Y54994D01*
D02*
G37*
G36*
X5500Y76634D02*
X2497D01*
X2503Y76628D01*
X2525Y76600D01*
X2558Y76567D01*
X2597Y76512D01*
X2647Y76451D01*
X2703Y76373D01*
X2764Y76284D01*
X2825Y76184D01*
Y76179D01*
X2830Y76173D01*
X2853Y76140D01*
X2880Y76084D01*
X2914Y76018D01*
X2953Y75940D01*
X2991Y75857D01*
X3030Y75774D01*
X3064Y75690D01*
X2608D01*
Y75696D01*
X2597Y75707D01*
X2592Y75729D01*
X2575Y75757D01*
X2558Y75790D01*
X2536Y75829D01*
X2481Y75923D01*
X2420Y76034D01*
X2342Y76145D01*
X2253Y76262D01*
X2159Y76378D01*
X2153Y76384D01*
X2148Y76389D01*
X2131Y76406D01*
X2114Y76428D01*
X2059Y76478D01*
X1992Y76545D01*
X1915Y76612D01*
X1826Y76684D01*
X1737Y76745D01*
X1643Y76800D01*
Y77105D01*
X5500D01*
Y76634D01*
D02*
G37*
G36*
X81841Y49572D02*
Y49189D01*
X79354D01*
Y48667D01*
X78921D01*
Y49189D01*
X78000D01*
Y49661D01*
X78921D01*
Y51331D01*
X79354D01*
X81841Y49572D01*
D02*
G37*
G36*
X80077Y91349D02*
X80071D01*
X80060Y91343D01*
X80038Y91338D01*
X80010Y91332D01*
X79977Y91326D01*
X79938Y91315D01*
X79855Y91287D01*
X79755Y91249D01*
X79660Y91199D01*
X79572Y91143D01*
X79494Y91077D01*
X79488Y91066D01*
X79466Y91043D01*
X79439Y90999D01*
X79411Y90943D01*
X79377Y90877D01*
X79350Y90794D01*
X79327Y90699D01*
X79322Y90599D01*
Y90594D01*
Y90583D01*
Y90566D01*
X79327Y90544D01*
X79333Y90483D01*
X79350Y90405D01*
X79377Y90316D01*
X79416Y90222D01*
X79472Y90128D01*
X79549Y90039D01*
X79561Y90028D01*
X79594Y90000D01*
X79644Y89967D01*
X79710Y89922D01*
X79794Y89878D01*
X79888Y89845D01*
X79999Y89817D01*
X80121Y89806D01*
X80154D01*
X80177Y89811D01*
X80238Y89817D01*
X80310Y89833D01*
X80399Y89856D01*
X80487Y89894D01*
X80576Y89950D01*
X80660Y90022D01*
X80671Y90033D01*
X80693Y90061D01*
X80726Y90105D01*
X80765Y90166D01*
X80804Y90244D01*
X80837Y90338D01*
X80859Y90444D01*
X80870Y90561D01*
Y90566D01*
Y90583D01*
Y90610D01*
X80865Y90649D01*
X80859Y90699D01*
X80848Y90755D01*
X80837Y90821D01*
X80820Y90894D01*
X81237Y90838D01*
Y90832D01*
Y90810D01*
X81231Y90788D01*
Y90766D01*
Y90760D01*
Y90755D01*
Y90738D01*
Y90716D01*
X81242Y90655D01*
X81253Y90583D01*
X81270Y90500D01*
X81298Y90405D01*
X81336Y90316D01*
X81387Y90222D01*
Y90216D01*
X81392Y90211D01*
X81414Y90183D01*
X81453Y90144D01*
X81503Y90100D01*
X81575Y90055D01*
X81659Y90017D01*
X81753Y89989D01*
X81808Y89978D01*
X81914D01*
X81958Y89989D01*
X82019Y90000D01*
X82086Y90022D01*
X82158Y90050D01*
X82230Y90094D01*
X82297Y90155D01*
X82302Y90161D01*
X82324Y90189D01*
X82352Y90228D01*
X82385Y90277D01*
X82413Y90344D01*
X82441Y90422D01*
X82463Y90511D01*
X82469Y90610D01*
Y90616D01*
Y90622D01*
Y90655D01*
X82458Y90705D01*
X82447Y90771D01*
X82424Y90844D01*
X82397Y90916D01*
X82352Y90993D01*
X82297Y91066D01*
X82291Y91071D01*
X82263Y91093D01*
X82225Y91127D01*
X82169Y91165D01*
X82097Y91204D01*
X82008Y91243D01*
X81903Y91276D01*
X81781Y91299D01*
X81864Y91770D01*
X81869D01*
X81886Y91765D01*
X81908Y91759D01*
X81941Y91754D01*
X81980Y91743D01*
X82025Y91726D01*
X82130Y91693D01*
X82252Y91637D01*
X82374Y91571D01*
X82491Y91487D01*
X82596Y91382D01*
X82602Y91376D01*
X82608Y91365D01*
X82619Y91349D01*
X82635Y91326D01*
X82657Y91299D01*
X82680Y91260D01*
X82702Y91221D01*
X82730Y91171D01*
X82774Y91060D01*
X82818Y90932D01*
X82846Y90782D01*
X82857Y90705D01*
Y90622D01*
Y90616D01*
Y90605D01*
Y90588D01*
Y90566D01*
X82852Y90505D01*
X82841Y90433D01*
X82824Y90344D01*
X82796Y90244D01*
X82763Y90144D01*
X82718Y90044D01*
Y90039D01*
X82713Y90033D01*
X82696Y90000D01*
X82663Y89950D01*
X82624Y89894D01*
X82569Y89828D01*
X82508Y89761D01*
X82436Y89695D01*
X82352Y89639D01*
X82341Y89634D01*
X82313Y89617D01*
X82263Y89595D01*
X82202Y89567D01*
X82130Y89539D01*
X82047Y89517D01*
X81953Y89500D01*
X81858Y89495D01*
X81814D01*
X81769Y89500D01*
X81708Y89512D01*
X81636Y89528D01*
X81559Y89556D01*
X81481Y89589D01*
X81403Y89634D01*
X81392Y89639D01*
X81370Y89656D01*
X81331Y89689D01*
X81287Y89734D01*
X81237Y89789D01*
X81181Y89856D01*
X81131Y89933D01*
X81081Y90028D01*
Y90022D01*
X81076Y90011D01*
X81070Y89994D01*
X81065Y89972D01*
X81042Y89911D01*
X81009Y89833D01*
X80965Y89745D01*
X80909Y89656D01*
X80837Y89573D01*
X80754Y89495D01*
X80743Y89489D01*
X80709Y89467D01*
X80654Y89434D01*
X80582Y89401D01*
X80493Y89367D01*
X80388Y89334D01*
X80265Y89312D01*
X80132Y89306D01*
X80082D01*
X80049Y89312D01*
X80005Y89317D01*
X79955Y89328D01*
X79899Y89340D01*
X79838Y89351D01*
X79705Y89395D01*
X79633Y89428D01*
X79566Y89462D01*
X79494Y89506D01*
X79422Y89556D01*
X79350Y89612D01*
X79283Y89678D01*
X79277Y89684D01*
X79266Y89695D01*
X79250Y89717D01*
X79228Y89745D01*
X79200Y89778D01*
X79172Y89822D01*
X79139Y89872D01*
X79111Y89933D01*
X79078Y89994D01*
X79044Y90066D01*
X79017Y90139D01*
X78989Y90222D01*
X78967Y90311D01*
X78950Y90405D01*
X78939Y90500D01*
X78933Y90605D01*
Y90610D01*
Y90627D01*
Y90655D01*
X78939Y90688D01*
X78944Y90733D01*
X78950Y90782D01*
X78961Y90838D01*
X78972Y90899D01*
X79006Y91032D01*
X79061Y91171D01*
X79094Y91243D01*
X79133Y91310D01*
X79183Y91376D01*
X79233Y91443D01*
X79239Y91448D01*
X79250Y91460D01*
X79266Y91476D01*
X79289Y91493D01*
X79316Y91521D01*
X79355Y91548D01*
X79394Y91582D01*
X79444Y91615D01*
X79500Y91648D01*
X79555Y91682D01*
X79688Y91743D01*
X79844Y91793D01*
X79927Y91809D01*
X80016Y91820D01*
X80077Y91349D01*
D02*
G37*
G36*
X82841Y93802D02*
Y93796D01*
Y93779D01*
Y93752D01*
Y93718D01*
X82835Y93674D01*
Y93624D01*
X82829Y93508D01*
X82813Y93385D01*
X82796Y93252D01*
X82768Y93130D01*
X82752Y93069D01*
X82735Y93019D01*
Y93014D01*
X82730Y93008D01*
X82713Y92975D01*
X82691Y92925D01*
X82652Y92864D01*
X82602Y92797D01*
X82535Y92725D01*
X82458Y92658D01*
X82369Y92592D01*
X82363D01*
X82358Y92586D01*
X82324Y92564D01*
X82269Y92542D01*
X82197Y92509D01*
X82113Y92481D01*
X82014Y92453D01*
X81908Y92436D01*
X81792Y92431D01*
X81753D01*
X81725Y92436D01*
X81686D01*
X81647Y92442D01*
X81553Y92464D01*
X81442Y92497D01*
X81326Y92542D01*
X81209Y92608D01*
X81153Y92653D01*
X81098Y92697D01*
X81092Y92703D01*
X81087Y92708D01*
X81070Y92725D01*
X81054Y92747D01*
X81031Y92775D01*
X81009Y92808D01*
X80981Y92853D01*
X80948Y92897D01*
X80920Y92953D01*
X80893Y93014D01*
X80859Y93080D01*
X80831Y93152D01*
X80809Y93236D01*
X80782Y93319D01*
X80765Y93413D01*
X80748Y93513D01*
X80743Y93502D01*
X80732Y93480D01*
X80709Y93446D01*
X80687Y93402D01*
X80626Y93302D01*
X80587Y93252D01*
X80554Y93208D01*
X80543Y93197D01*
X80515Y93169D01*
X80471Y93125D01*
X80415Y93069D01*
X80338Y93008D01*
X80254Y92936D01*
X80154Y92864D01*
X80043Y92786D01*
X79000Y92126D01*
Y92758D01*
X79799Y93263D01*
X79805D01*
X79816Y93274D01*
X79833Y93286D01*
X79855Y93302D01*
X79916Y93341D01*
X79993Y93391D01*
X80077Y93452D01*
X80165Y93513D01*
X80249Y93574D01*
X80326Y93630D01*
X80332Y93635D01*
X80354Y93652D01*
X80388Y93680D01*
X80426Y93718D01*
X80510Y93802D01*
X80549Y93846D01*
X80582Y93891D01*
X80587Y93896D01*
X80593Y93907D01*
X80604Y93929D01*
X80621Y93963D01*
X80637Y93996D01*
X80654Y94035D01*
X80682Y94124D01*
Y94129D01*
X80687Y94140D01*
Y94162D01*
X80693Y94190D01*
X80698Y94229D01*
Y94274D01*
X80704Y94335D01*
Y94401D01*
Y94989D01*
X79000D01*
Y95500D01*
X82841D01*
Y93802D01*
D02*
G37*
G36*
X47626Y105221D02*
Y105216D01*
Y105199D01*
Y105177D01*
Y105143D01*
X47620Y105099D01*
Y105054D01*
X47609Y104949D01*
X47598Y104827D01*
X47576Y104699D01*
X47542Y104583D01*
X47504Y104472D01*
Y104466D01*
X47498Y104461D01*
X47481Y104427D01*
X47454Y104383D01*
X47415Y104322D01*
X47359Y104261D01*
X47298Y104194D01*
X47221Y104128D01*
X47132Y104072D01*
X47121Y104067D01*
X47087Y104050D01*
X47037Y104028D01*
X46965Y104006D01*
X46876Y103978D01*
X46777Y103956D01*
X46665Y103939D01*
X46543Y103933D01*
X46494D01*
X46460Y103939D01*
X46416Y103945D01*
X46371Y103950D01*
X46255Y103972D01*
X46133Y104006D01*
X46005Y104056D01*
X45939Y104089D01*
X45877Y104128D01*
X45822Y104172D01*
X45766Y104222D01*
X45761Y104227D01*
X45755Y104233D01*
X45744Y104255D01*
X45728Y104278D01*
X45705Y104305D01*
X45683Y104344D01*
X45661Y104388D01*
X45633Y104438D01*
X45611Y104494D01*
X45589Y104560D01*
X45567Y104627D01*
X45544Y104705D01*
X45533Y104788D01*
X45517Y104882D01*
X45511Y104977D01*
Y105082D01*
X45972Y105149D01*
Y105143D01*
Y105132D01*
Y105110D01*
X45977Y105077D01*
X45983Y105043D01*
Y105005D01*
X46000Y104910D01*
X46016Y104810D01*
X46049Y104710D01*
X46083Y104622D01*
X46105Y104583D01*
X46133Y104550D01*
X46138Y104544D01*
X46160Y104527D01*
X46194Y104499D01*
X46238Y104472D01*
X46299Y104438D01*
X46366Y104416D01*
X46449Y104394D01*
X46538Y104388D01*
X46571D01*
X46604Y104394D01*
X46654Y104400D01*
X46704Y104411D01*
X46760Y104422D01*
X46815Y104444D01*
X46871Y104472D01*
X46876Y104477D01*
X46893Y104488D01*
X46915Y104511D01*
X46949Y104533D01*
X46976Y104572D01*
X47010Y104611D01*
X47037Y104655D01*
X47060Y104710D01*
Y104716D01*
X47071Y104738D01*
X47076Y104777D01*
X47087Y104827D01*
X47098Y104894D01*
X47104Y104977D01*
X47115Y105077D01*
Y105193D01*
Y107841D01*
X47626D01*
Y105221D01*
D02*
G37*
G36*
X49585Y107852D02*
X49657Y107841D01*
X49746Y107824D01*
X49846Y107796D01*
X49946Y107763D01*
X50045Y107719D01*
X50051D01*
X50056Y107713D01*
X50090Y107696D01*
X50140Y107663D01*
X50195Y107624D01*
X50262Y107569D01*
X50328Y107508D01*
X50395Y107435D01*
X50451Y107352D01*
X50456Y107341D01*
X50473Y107313D01*
X50495Y107263D01*
X50523Y107202D01*
X50551Y107130D01*
X50573Y107047D01*
X50589Y106953D01*
X50595Y106858D01*
Y106847D01*
Y106814D01*
X50589Y106770D01*
X50578Y106708D01*
X50562Y106636D01*
X50534Y106559D01*
X50501Y106481D01*
X50456Y106403D01*
X50451Y106392D01*
X50434Y106370D01*
X50401Y106331D01*
X50356Y106287D01*
X50301Y106237D01*
X50234Y106181D01*
X50156Y106131D01*
X50062Y106081D01*
X50068D01*
X50079Y106076D01*
X50095Y106070D01*
X50118Y106065D01*
X50179Y106042D01*
X50256Y106009D01*
X50345Y105965D01*
X50434Y105909D01*
X50517Y105837D01*
X50595Y105754D01*
X50600Y105743D01*
X50623Y105709D01*
X50656Y105654D01*
X50689Y105582D01*
X50723Y105493D01*
X50756Y105387D01*
X50778Y105265D01*
X50784Y105132D01*
Y105127D01*
Y105110D01*
Y105082D01*
X50778Y105049D01*
X50773Y105005D01*
X50761Y104955D01*
X50750Y104899D01*
X50739Y104838D01*
X50695Y104705D01*
X50661Y104633D01*
X50628Y104566D01*
X50584Y104494D01*
X50534Y104422D01*
X50478Y104350D01*
X50412Y104283D01*
X50406Y104278D01*
X50395Y104266D01*
X50373Y104250D01*
X50345Y104227D01*
X50312Y104200D01*
X50267Y104172D01*
X50217Y104139D01*
X50156Y104111D01*
X50095Y104078D01*
X50023Y104044D01*
X49951Y104017D01*
X49868Y103989D01*
X49779Y103967D01*
X49685Y103950D01*
X49590Y103939D01*
X49485Y103933D01*
X49435D01*
X49402Y103939D01*
X49357Y103945D01*
X49307Y103950D01*
X49252Y103961D01*
X49191Y103972D01*
X49057Y104006D01*
X48919Y104061D01*
X48847Y104094D01*
X48780Y104133D01*
X48713Y104183D01*
X48647Y104233D01*
X48641Y104239D01*
X48630Y104250D01*
X48614Y104266D01*
X48597Y104289D01*
X48569Y104316D01*
X48541Y104355D01*
X48508Y104394D01*
X48475Y104444D01*
X48441Y104499D01*
X48408Y104555D01*
X48347Y104688D01*
X48297Y104844D01*
X48281Y104927D01*
X48270Y105016D01*
X48741Y105077D01*
Y105071D01*
X48747Y105060D01*
X48752Y105038D01*
X48758Y105010D01*
X48763Y104977D01*
X48774Y104938D01*
X48802Y104855D01*
X48841Y104755D01*
X48891Y104660D01*
X48947Y104572D01*
X49013Y104494D01*
X49024Y104488D01*
X49046Y104466D01*
X49091Y104438D01*
X49146Y104411D01*
X49213Y104377D01*
X49296Y104350D01*
X49391Y104327D01*
X49490Y104322D01*
X49524D01*
X49546Y104327D01*
X49607Y104333D01*
X49685Y104350D01*
X49773Y104377D01*
X49868Y104416D01*
X49962Y104472D01*
X50051Y104550D01*
X50062Y104560D01*
X50090Y104594D01*
X50123Y104644D01*
X50168Y104710D01*
X50212Y104794D01*
X50245Y104888D01*
X50273Y104999D01*
X50284Y105121D01*
Y105127D01*
Y105138D01*
Y105154D01*
X50279Y105177D01*
X50273Y105238D01*
X50256Y105310D01*
X50234Y105399D01*
X50195Y105487D01*
X50140Y105576D01*
X50068Y105659D01*
X50056Y105671D01*
X50029Y105693D01*
X49984Y105726D01*
X49923Y105765D01*
X49846Y105804D01*
X49751Y105837D01*
X49646Y105859D01*
X49529Y105870D01*
X49479D01*
X49441Y105865D01*
X49391Y105859D01*
X49335Y105848D01*
X49268Y105837D01*
X49196Y105820D01*
X49252Y106237D01*
X49280D01*
X49302Y106231D01*
X49374D01*
X49435Y106242D01*
X49507Y106253D01*
X49590Y106270D01*
X49685Y106298D01*
X49773Y106337D01*
X49868Y106386D01*
X49873D01*
X49879Y106392D01*
X49907Y106414D01*
X49946Y106453D01*
X49990Y106503D01*
X50034Y106575D01*
X50073Y106658D01*
X50101Y106753D01*
X50112Y106808D01*
Y106869D01*
Y106875D01*
Y106880D01*
Y106914D01*
X50101Y106958D01*
X50090Y107019D01*
X50068Y107086D01*
X50040Y107158D01*
X49995Y107230D01*
X49934Y107297D01*
X49929Y107302D01*
X49901Y107325D01*
X49862Y107352D01*
X49812Y107386D01*
X49746Y107413D01*
X49668Y107441D01*
X49579Y107463D01*
X49479Y107469D01*
X49435D01*
X49385Y107458D01*
X49318Y107447D01*
X49246Y107424D01*
X49174Y107397D01*
X49096Y107352D01*
X49024Y107297D01*
X49019Y107291D01*
X48996Y107263D01*
X48963Y107225D01*
X48924Y107169D01*
X48886Y107097D01*
X48847Y107008D01*
X48813Y106903D01*
X48791Y106781D01*
X48319Y106864D01*
Y106869D01*
X48325Y106886D01*
X48331Y106908D01*
X48336Y106941D01*
X48347Y106980D01*
X48364Y107025D01*
X48397Y107130D01*
X48453Y107252D01*
X48519Y107374D01*
X48602Y107491D01*
X48708Y107596D01*
X48713Y107602D01*
X48724Y107607D01*
X48741Y107619D01*
X48763Y107635D01*
X48791Y107657D01*
X48830Y107680D01*
X48869Y107702D01*
X48919Y107730D01*
X49030Y107774D01*
X49158Y107818D01*
X49307Y107846D01*
X49385Y107857D01*
X49524D01*
X49585Y107852D01*
D02*
G37*
G36*
X80962Y106751D02*
X81500D01*
Y106475D01*
X80962D01*
Y105500D01*
X80709D01*
X79258Y106527D01*
Y106751D01*
X80709D01*
Y107055D01*
X80962D01*
Y106751D01*
D02*
G37*
%LPC*%
G36*
X80709Y106475D02*
X79705D01*
X80709Y105769D01*
Y106475D01*
D02*
G37*
G36*
X5791Y38731D02*
Y38025D01*
X6795D01*
X5791Y38731D01*
D02*
G37*
G36*
X79354Y50871D02*
Y49661D01*
X81075D01*
X79354Y50871D01*
D02*
G37*
G36*
X39773Y107075D02*
X38564Y105354D01*
X39773D01*
Y107075D01*
D02*
G37*
G36*
X82413Y94989D02*
X81142D01*
Y93902D01*
Y93896D01*
Y93885D01*
Y93868D01*
Y93846D01*
X81148Y93779D01*
X81153Y93702D01*
X81159Y93613D01*
X81170Y93524D01*
X81187Y93435D01*
X81209Y93358D01*
X81214Y93347D01*
X81226Y93324D01*
X81242Y93291D01*
X81264Y93247D01*
X81298Y93197D01*
X81336Y93147D01*
X81387Y93097D01*
X81442Y93058D01*
X81448Y93052D01*
X81470Y93041D01*
X81503Y93025D01*
X81547Y93002D01*
X81597Y92986D01*
X81653Y92969D01*
X81719Y92958D01*
X81786Y92953D01*
X81797D01*
X81831Y92958D01*
X81880Y92964D01*
X81947Y92975D01*
X82014Y93002D01*
X82091Y93036D01*
X82164Y93086D01*
X82236Y93152D01*
X82241Y93164D01*
X82263Y93191D01*
X82291Y93236D01*
X82324Y93308D01*
X82358Y93391D01*
X82385Y93502D01*
X82408Y93630D01*
X82413Y93779D01*
Y94989D01*
D02*
G37*
G36*
X3714Y92048D02*
X3703D01*
X3669Y92042D01*
X3620Y92036D01*
X3553Y92025D01*
X3486Y91997D01*
X3409Y91964D01*
X3337Y91914D01*
X3264Y91848D01*
X3259Y91837D01*
X3237Y91809D01*
X3209Y91764D01*
X3176Y91692D01*
X3142Y91609D01*
X3115Y91498D01*
X3092Y91370D01*
X3087Y91220D01*
Y90011D01*
X4358D01*
Y91098D01*
Y91104D01*
Y91115D01*
Y91132D01*
Y91154D01*
X4352Y91220D01*
X4347Y91298D01*
X4341Y91387D01*
X4330Y91476D01*
X4313Y91565D01*
X4291Y91642D01*
X4285Y91653D01*
X4275Y91676D01*
X4258Y91709D01*
X4236Y91753D01*
X4202Y91803D01*
X4163Y91853D01*
X4113Y91903D01*
X4058Y91942D01*
X4053Y91948D01*
X4030Y91959D01*
X3997Y91975D01*
X3953Y91997D01*
X3903Y92014D01*
X3847Y92031D01*
X3780Y92042D01*
X3714Y92048D01*
D02*
G37*
G36*
X53291Y38231D02*
Y37525D01*
X54295D01*
X53291Y38231D01*
D02*
G37*
G36*
X33110Y106475D02*
X32105D01*
X33110Y105769D01*
Y106475D01*
D02*
G37*
G36*
X5146Y94684D02*
X3425D01*
X5146Y93474D01*
Y94684D01*
D02*
G37*
%LPD*%
D20*
X22028Y64528D02*
G03*
X22028Y64528I-1181J0D01*
G01*
D21*
X17146Y54488D02*
G03*
X17146Y54488I-492J0D01*
G01*
D22*
X68091Y60591D02*
Y84409D01*
X16909Y60591D02*
Y84409D01*
X68091D01*
X16909Y60591D02*
X68091D01*
D23*
X76657Y47878D02*
Y54878D01*
X71157Y47878D02*
Y54878D01*
X13700Y70500D02*
Y78500D01*
X6300Y70500D02*
Y78500D01*
X13218Y47819D02*
Y54819D01*
X7719Y47819D02*
Y54819D01*
Y89669D02*
Y95575D01*
X13034Y89669D02*
Y95575D01*
X76657Y89547D02*
Y95453D01*
X71343Y89547D02*
Y95453D01*
D24*
X86000Y140536D02*
Y147504D01*
X85976D02*
X86000D01*
X85976Y147500D02*
Y147504D01*
X48000Y140536D02*
Y147500D01*
X47984Y147504D02*
X53496Y153016D01*
X80464D01*
X85976Y147504D01*
X47000Y114000D02*
Y140512D01*
Y114000D02*
X54500D01*
X79500D02*
X87000D01*
Y140512D01*
X86000D02*
X87000D01*
X47000D02*
X48000D01*
Y140536D01*
X38400D02*
Y147504D01*
X38376D02*
X38400D01*
X38376Y147500D02*
Y147504D01*
X400Y140536D02*
Y147500D01*
X384Y147504D02*
X5896Y153016D01*
X32864D01*
X38376Y147504D01*
X-600Y114000D02*
Y140512D01*
Y114000D02*
X6900D01*
X31900D02*
X39400D01*
Y140512D01*
X38400D02*
X39400D01*
X-600D02*
X400D01*
Y140536D01*
X48000Y-3504D02*
Y3464D01*
Y-3504D02*
X48024D01*
Y-3500D01*
X86000D02*
Y3464D01*
X80504Y-9016D02*
X86016Y-3504D01*
X53536Y-9016D02*
X80504D01*
X48024Y-3504D02*
X53536Y-9016D01*
X87000Y3488D02*
Y30000D01*
X79500D02*
X87000D01*
X47000D02*
X54500D01*
X47000Y3488D02*
Y30000D01*
Y3488D02*
X48000D01*
X86000D02*
X87000D01*
X86000Y3464D02*
Y3488D01*
X500Y-3004D02*
Y3964D01*
Y-3004D02*
X524D01*
Y-3000D01*
X38500D02*
Y3964D01*
X33004Y-8516D02*
X38516Y-3004D01*
X6036Y-8516D02*
X33004D01*
X524Y-3004D02*
X6036Y-8516D01*
X39500Y3988D02*
Y30500D01*
X32000D02*
X39500D01*
X-500D02*
X7000D01*
X-500Y3988D02*
Y30500D01*
Y3988D02*
X500D01*
X38500D02*
X39500D01*
X38500Y3964D02*
Y3988D01*
M02*
