G04 Layer_Physical_Order=2*
G04 Layer_Color=12500520*
%FSLAX25Y25*%
%MOIN*%
G70*
G01*
G75*
%ADD10O,0.02362X0.09055*%
%ADD11R,0.03937X0.03937*%
%ADD13R,0.03937X0.03740*%
%ADD14C,0.02000*%
%ADD15C,0.01000*%
%ADD17C,0.07874*%
%ADD18C,0.03937*%
%ADD19C,0.04200*%
G36*
X87000Y500D02*
X500D01*
Y144500D01*
X87000D01*
Y500D01*
D02*
G37*
%LPC*%
G36*
X41750Y65528D02*
X41691Y65520D01*
X40937Y65208D01*
X40289Y64711D01*
X39792Y64063D01*
X39480Y63309D01*
X39472Y63250D01*
X41750D01*
Y65528D01*
D02*
G37*
G36*
X13028Y64250D02*
X10750D01*
Y61972D01*
X10809Y61980D01*
X11563Y62292D01*
X12211Y62789D01*
X12708Y63437D01*
X13020Y64191D01*
X13028Y64250D01*
D02*
G37*
G36*
X76750Y66528D02*
X76691Y66520D01*
X75937Y66208D01*
X75289Y65711D01*
X74792Y65063D01*
X74480Y64309D01*
X74472Y64250D01*
X76750D01*
Y66528D01*
D02*
G37*
G36*
X43250Y65528D02*
Y63250D01*
X45528D01*
X45520Y63309D01*
X45208Y64063D01*
X44711Y64711D01*
X44063Y65208D01*
X43309Y65520D01*
X43250Y65528D01*
D02*
G37*
G36*
X69500Y66529D02*
X53000D01*
X52415Y66413D01*
X51919Y66082D01*
X48919Y63082D01*
X48587Y62585D01*
X48471Y62000D01*
Y59436D01*
X48428Y59407D01*
X47945Y58686D01*
X47776Y57835D01*
Y51142D01*
X47945Y50291D01*
X48428Y49569D01*
X49149Y49087D01*
X50000Y48918D01*
X50851Y49087D01*
X51573Y49569D01*
X52055Y50291D01*
X52224Y51142D01*
Y57835D01*
X52055Y58686D01*
X51573Y59407D01*
X51529Y59436D01*
Y61367D01*
X53633Y63471D01*
X55623D01*
X55671Y63408D01*
X55808Y62971D01*
X53919Y61081D01*
X53587Y60585D01*
X53471Y60000D01*
Y59436D01*
X53428Y59407D01*
X52946Y58686D01*
X52776Y57835D01*
Y51142D01*
X52946Y50291D01*
X53428Y49569D01*
X54149Y49087D01*
X55000Y48918D01*
X55851Y49087D01*
X56573Y49569D01*
X57055Y50291D01*
X57224Y51142D01*
Y57835D01*
X57055Y58686D01*
X56573Y59407D01*
X56572Y59409D01*
X57634Y60471D01*
X59509D01*
X59558Y59971D01*
X59149Y59889D01*
X58428Y59407D01*
X57946Y58686D01*
X57776Y57835D01*
Y51142D01*
X57946Y50291D01*
X57961Y50268D01*
Y48343D01*
X57789Y48211D01*
X57292Y47563D01*
X56980Y46809D01*
X56873Y46000D01*
X56980Y45191D01*
X57292Y44437D01*
X57789Y43789D01*
X58437Y43292D01*
X59191Y42980D01*
X59313Y42964D01*
X59381Y42450D01*
X58610Y42131D01*
X57579Y41340D01*
X56788Y40309D01*
X56290Y39108D01*
X56120Y37819D01*
X56290Y36530D01*
X56788Y35329D01*
X57579Y34298D01*
X58610Y33507D01*
X59811Y33009D01*
X61100Y32839D01*
X62389Y33009D01*
X63590Y33507D01*
X64621Y34298D01*
X65412Y35329D01*
X65910Y36530D01*
X66080Y37819D01*
X65910Y39108D01*
X65576Y39913D01*
X72386Y46723D01*
X74032D01*
Y45382D01*
X79471D01*
Y44633D01*
X76283Y41446D01*
X75390Y42131D01*
X74189Y42629D01*
X72900Y42799D01*
X71611Y42629D01*
X70410Y42131D01*
X69379Y41340D01*
X68588Y40309D01*
X68090Y39108D01*
X67920Y37819D01*
X68090Y36530D01*
X68588Y35329D01*
X69379Y34298D01*
X70410Y33507D01*
X71611Y33009D01*
X72900Y32839D01*
X74189Y33009D01*
X75390Y33507D01*
X76421Y34298D01*
X77213Y35329D01*
X77710Y36530D01*
X77880Y37819D01*
X77775Y38612D01*
X82081Y42919D01*
X82413Y43415D01*
X82529Y44000D01*
Y53500D01*
X82413Y54085D01*
X82081Y54581D01*
X80834Y55830D01*
X80337Y56161D01*
X79969Y56234D01*
Y57618D01*
X76293D01*
X76029Y57882D01*
Y60000D01*
X75983Y60232D01*
X76422Y60591D01*
X76691Y60480D01*
X76750Y60472D01*
Y62750D01*
X74104D01*
X73976Y62687D01*
X70582Y66082D01*
X70085Y66413D01*
X69500Y66529D01*
D02*
G37*
G36*
X34250Y59909D02*
X34149Y59889D01*
X33428Y59407D01*
X32945Y58686D01*
X32776Y57835D01*
Y55238D01*
X34250D01*
Y59909D01*
D02*
G37*
G36*
X9250Y64250D02*
X6972D01*
X6980Y64191D01*
X7292Y63437D01*
X7789Y62789D01*
X8437Y62292D01*
X9191Y61980D01*
X9250Y61972D01*
Y64250D01*
D02*
G37*
G36*
X80528Y62750D02*
X78250D01*
Y60472D01*
X78309Y60480D01*
X79063Y60792D01*
X79711Y61289D01*
X80208Y61937D01*
X80520Y62691D01*
X80528Y62750D01*
D02*
G37*
G36*
X10469Y94900D02*
X4532D01*
Y92681D01*
X4532D01*
Y92319D01*
X4532D01*
Y86382D01*
X5461D01*
Y85500D01*
X5616Y84720D01*
X5910Y84280D01*
X5873Y84000D01*
X5980Y83191D01*
X6292Y82437D01*
X6789Y81789D01*
X7437Y81292D01*
X8191Y80980D01*
X9000Y80873D01*
X9809Y80980D01*
X10563Y81292D01*
X11211Y81789D01*
X11708Y82437D01*
X12020Y83191D01*
X12127Y84000D01*
X12020Y84809D01*
X11708Y85563D01*
X11211Y86211D01*
X10563Y86708D01*
X10469Y86747D01*
Y92319D01*
X10469D01*
Y92681D01*
X10469D01*
Y94900D01*
D02*
G37*
G36*
X30000Y96082D02*
X29149Y95913D01*
X28428Y95431D01*
X27946Y94709D01*
X27776Y93858D01*
Y87165D01*
X27946Y86314D01*
X28428Y85593D01*
X28471Y85564D01*
Y84222D01*
X28437Y84208D01*
X27789Y83711D01*
X27292Y83063D01*
X26980Y82309D01*
X26873Y81500D01*
X26980Y80691D01*
X27292Y79937D01*
X27789Y79289D01*
X28437Y78792D01*
X29191Y78480D01*
X30000Y78373D01*
X30809Y78480D01*
X31563Y78792D01*
X32211Y79289D01*
X32708Y79937D01*
X33020Y80691D01*
X33127Y81500D01*
X33020Y82309D01*
X32708Y83063D01*
X32211Y83711D01*
X31563Y84208D01*
X31529Y84222D01*
Y85564D01*
X31572Y85593D01*
X32055Y86314D01*
X32224Y87165D01*
Y93858D01*
X32055Y94709D01*
X31572Y95431D01*
X30851Y95913D01*
X30000Y96082D01*
D02*
G37*
G36*
X50000D02*
X49149Y95913D01*
X48428Y95431D01*
X47945Y94709D01*
X47776Y93858D01*
Y87165D01*
X47945Y86314D01*
X48428Y85593D01*
X49149Y85111D01*
X50000Y84942D01*
X50851Y85111D01*
X51573Y85593D01*
X52055Y86314D01*
X52224Y87165D01*
Y93858D01*
X52055Y94709D01*
X51573Y95431D01*
X50851Y95913D01*
X50000Y96082D01*
D02*
G37*
G36*
X20000D02*
X19149Y95913D01*
X18428Y95431D01*
X17945Y94709D01*
X17776Y93858D01*
Y87165D01*
X17945Y86314D01*
X18428Y85593D01*
X19149Y85111D01*
X20000Y84942D01*
X20851Y85111D01*
X21573Y85593D01*
X22055Y86314D01*
X22224Y87165D01*
Y93858D01*
X22055Y94709D01*
X21573Y95431D01*
X20851Y95913D01*
X20000Y96082D01*
D02*
G37*
G36*
X9250Y68028D02*
X9191Y68020D01*
X8437Y67708D01*
X7789Y67211D01*
X7292Y66563D01*
X6980Y65809D01*
X6972Y65750D01*
X9250D01*
Y68028D01*
D02*
G37*
G36*
X78250Y66528D02*
Y64250D01*
X80528D01*
X80520Y64309D01*
X80208Y65063D01*
X79711Y65711D01*
X79063Y66208D01*
X78309Y66520D01*
X78250Y66528D01*
D02*
G37*
G36*
X60000Y96082D02*
X59149Y95913D01*
X58428Y95431D01*
X57946Y94709D01*
X57776Y93858D01*
Y87165D01*
X57946Y86314D01*
X58428Y85593D01*
X58471Y85564D01*
Y75634D01*
X53867Y71029D01*
X46722D01*
X46708Y71063D01*
X46211Y71711D01*
X45563Y72208D01*
X44809Y72520D01*
X44000Y72627D01*
X43191Y72520D01*
X42437Y72208D01*
X41789Y71711D01*
X41292Y71063D01*
X40980Y70309D01*
X40873Y69500D01*
X40980Y68691D01*
X41292Y67937D01*
X41789Y67289D01*
X42437Y66792D01*
X43191Y66480D01*
X44000Y66373D01*
X44809Y66480D01*
X45563Y66792D01*
X46211Y67289D01*
X46708Y67937D01*
X46722Y67971D01*
X54500D01*
X55085Y68087D01*
X55581Y68419D01*
X61081Y73919D01*
X61413Y74415D01*
X61432Y74512D01*
X61529Y75000D01*
Y85564D01*
X61572Y85593D01*
X62055Y86314D01*
X62224Y87165D01*
Y93858D01*
X62055Y94709D01*
X61572Y95431D01*
X60851Y95913D01*
X60000Y96082D01*
D02*
G37*
G36*
X10750Y68028D02*
Y65750D01*
X13028D01*
X13020Y65809D01*
X12708Y66563D01*
X12211Y67211D01*
X11563Y67708D01*
X10809Y68020D01*
X10750Y68028D01*
D02*
G37*
G36*
X24650Y25758D02*
X20519D01*
X20590Y25219D01*
X21088Y24018D01*
X21879Y22987D01*
X22910Y22195D01*
X24111Y21698D01*
X24650Y21627D01*
Y25758D01*
D02*
G37*
G36*
X77781Y25258D02*
X73650D01*
Y21127D01*
X74189Y21198D01*
X75390Y21695D01*
X76421Y22487D01*
X77213Y23518D01*
X77710Y24719D01*
X77781Y25258D01*
D02*
G37*
G36*
X72150Y30889D02*
X71611Y30818D01*
X70410Y30320D01*
X69379Y29529D01*
X68588Y28498D01*
X68090Y27297D01*
X68019Y26758D01*
X72150D01*
Y30889D01*
D02*
G37*
G36*
X30281Y25758D02*
X26150D01*
Y21627D01*
X26689Y21698D01*
X27890Y22195D01*
X28921Y22987D01*
X29713Y24018D01*
X30210Y25219D01*
X30281Y25758D01*
D02*
G37*
G36*
X19500Y16439D02*
X18146Y16306D01*
X16845Y15911D01*
X15645Y15270D01*
X14593Y14407D01*
X13731Y13355D01*
X13089Y12156D01*
X12695Y10854D01*
X12561Y9500D01*
X12695Y8146D01*
X13089Y6845D01*
X13731Y5645D01*
X14593Y4594D01*
X15645Y3731D01*
X16845Y3089D01*
X18146Y2695D01*
X19500Y2561D01*
X20854Y2695D01*
X22155Y3089D01*
X23355Y3731D01*
X24407Y4594D01*
X25270Y5645D01*
X25911Y6845D01*
X26306Y8146D01*
X26439Y9500D01*
X26306Y10854D01*
X25911Y12156D01*
X25270Y13355D01*
X24407Y14407D01*
X23355Y15270D01*
X22155Y15911D01*
X20854Y16306D01*
X19500Y16439D01*
D02*
G37*
G36*
X67000Y15939D02*
X65646Y15806D01*
X64345Y15411D01*
X63145Y14770D01*
X62094Y13907D01*
X61231Y12855D01*
X60589Y11655D01*
X60194Y10354D01*
X60061Y9000D01*
X60194Y7646D01*
X60589Y6345D01*
X61231Y5145D01*
X62094Y4093D01*
X63145Y3231D01*
X64345Y2589D01*
X65646Y2194D01*
X67000Y2061D01*
X68354Y2194D01*
X69656Y2589D01*
X70855Y3231D01*
X71907Y4093D01*
X72770Y5145D01*
X73411Y6345D01*
X73806Y7646D01*
X73939Y9000D01*
X73806Y10354D01*
X73411Y11655D01*
X72770Y12855D01*
X71907Y13907D01*
X70855Y14770D01*
X69656Y15411D01*
X68354Y15806D01*
X67000Y15939D01*
D02*
G37*
G36*
X72150Y25258D02*
X68019D01*
X68090Y24719D01*
X68588Y23518D01*
X69379Y22487D01*
X70410Y21695D01*
X71611Y21198D01*
X72150Y21127D01*
Y25258D01*
D02*
G37*
G36*
X61100Y30988D02*
X59811Y30818D01*
X58610Y30320D01*
X57579Y29529D01*
X56788Y28498D01*
X56290Y27297D01*
X56120Y26008D01*
X56290Y24719D01*
X56788Y23518D01*
X57579Y22487D01*
X58610Y21695D01*
X59811Y21198D01*
X61100Y21028D01*
X62389Y21198D01*
X63590Y21695D01*
X64621Y22487D01*
X65412Y23518D01*
X65910Y24719D01*
X66080Y26008D01*
X65910Y27297D01*
X65412Y28498D01*
X64621Y29529D01*
X63590Y30320D01*
X62389Y30818D01*
X61100Y30988D01*
D02*
G37*
G36*
X35750Y59909D02*
Y54488D01*
Y49067D01*
X35851Y49087D01*
X36573Y49569D01*
X37055Y50291D01*
X37224Y51142D01*
Y57835D01*
X37055Y58686D01*
X36573Y59407D01*
X35851Y59889D01*
X35750Y59909D01*
D02*
G37*
G36*
X34250Y53738D02*
X32776D01*
Y51142D01*
X32945Y50291D01*
X33428Y49569D01*
X34149Y49087D01*
X34250Y49067D01*
Y53738D01*
D02*
G37*
G36*
X47224D02*
X45750D01*
Y49067D01*
X45851Y49087D01*
X46573Y49569D01*
X47055Y50291D01*
X47224Y51142D01*
Y53738D01*
D02*
G37*
G36*
X46134Y61750D02*
X38866D01*
X38558Y61442D01*
X38116Y60780D01*
X37961Y60000D01*
Y58709D01*
X37946Y58686D01*
X37776Y57835D01*
Y51142D01*
X37946Y50291D01*
X38428Y49569D01*
X39149Y49087D01*
X39250Y49067D01*
Y54488D01*
X40750D01*
Y49067D01*
X40851Y49087D01*
X41572Y49569D01*
X42055Y50291D01*
X42224Y51142D01*
Y57835D01*
X42055Y58686D01*
X42039Y58709D01*
Y59010D01*
X42446Y59380D01*
X42500Y59373D01*
X42554Y59380D01*
X42961Y59010D01*
Y58709D01*
X42946Y58686D01*
X42776Y57835D01*
Y51142D01*
X42946Y50291D01*
X43428Y49569D01*
X44149Y49087D01*
X44250Y49067D01*
Y54488D01*
X45000D01*
Y55238D01*
X47224D01*
Y57835D01*
X47055Y58686D01*
X47039Y58709D01*
Y60000D01*
X46884Y60780D01*
X46442Y61442D01*
X46134Y61750D01*
D02*
G37*
G36*
X24650Y31389D02*
X24111Y31318D01*
X22910Y30820D01*
X21879Y30029D01*
X21088Y28998D01*
X20590Y27797D01*
X20519Y27258D01*
X24650D01*
Y31389D01*
D02*
G37*
G36*
X73650Y30889D02*
Y26758D01*
X77781D01*
X77710Y27297D01*
X77213Y28498D01*
X76421Y29529D01*
X75390Y30320D01*
X74189Y30818D01*
X73650Y30889D01*
D02*
G37*
G36*
X26000Y68029D02*
X19252D01*
X18667Y67913D01*
X18171Y67581D01*
X8207Y57618D01*
X4532D01*
Y56029D01*
X4500D01*
X4012Y55932D01*
X3915Y55913D01*
X3419Y55581D01*
X2419Y54581D01*
X2087Y54085D01*
X1971Y53500D01*
Y38000D01*
X2087Y37415D01*
X2419Y36919D01*
X7919Y31419D01*
X8415Y31087D01*
X9000Y30971D01*
X10485D01*
X10655Y30471D01*
X10079Y30029D01*
X9288Y28998D01*
X8790Y27797D01*
X8620Y26508D01*
X8790Y25219D01*
X9288Y24018D01*
X10079Y22987D01*
X11110Y22195D01*
X12311Y21698D01*
X13600Y21528D01*
X14889Y21698D01*
X16090Y22195D01*
X17121Y22987D01*
X17912Y24018D01*
X18410Y25219D01*
X18580Y26508D01*
X18410Y27797D01*
X17912Y28998D01*
X17121Y30029D01*
X16546Y30471D01*
X16715Y30971D01*
X19581D01*
X20166Y31087D01*
X20663Y31419D01*
X23151Y33907D01*
X24111Y33509D01*
X25400Y33339D01*
X26689Y33509D01*
X27890Y34007D01*
X28921Y34798D01*
X29713Y35829D01*
X30210Y37030D01*
X30380Y38319D01*
X30210Y39608D01*
X29713Y40809D01*
X28921Y41840D01*
X27890Y42631D01*
X26689Y43129D01*
X26370Y43171D01*
X26302Y43684D01*
X26563Y43792D01*
X27211Y44289D01*
X27708Y44937D01*
X28020Y45691D01*
X28028Y45750D01*
X21972D01*
X21980Y45691D01*
X22292Y44937D01*
X22789Y44289D01*
X23437Y43792D01*
X23923Y43591D01*
X23921Y43050D01*
X22910Y42631D01*
X21879Y41840D01*
X21088Y40809D01*
X20590Y39608D01*
X20420Y38319D01*
X20590Y37030D01*
X20988Y36070D01*
X18948Y34029D01*
X16897D01*
X16737Y34503D01*
X17121Y34798D01*
X17912Y35829D01*
X18410Y37030D01*
X18580Y38319D01*
X18410Y39608D01*
X17912Y40809D01*
X17121Y41840D01*
X16090Y42631D01*
X14889Y43129D01*
X13600Y43299D01*
X12311Y43129D01*
X11351Y42731D01*
X9200Y44882D01*
X9407Y45382D01*
X10469D01*
Y46723D01*
X11252D01*
X11837Y46839D01*
X12333Y47171D01*
X13581Y48419D01*
X13913Y48915D01*
X14029Y49500D01*
Y54867D01*
X17333Y58170D01*
X17794Y57924D01*
X17776Y57835D01*
Y51142D01*
X17945Y50291D01*
X18428Y49569D01*
X19149Y49087D01*
X20000Y48918D01*
X20851Y49087D01*
X21573Y49569D01*
X22055Y50291D01*
X22224Y51142D01*
Y57835D01*
X22055Y58686D01*
X21573Y59407D01*
X20851Y59889D01*
X20000Y60058D01*
X19911Y60041D01*
X19664Y60502D01*
X20633Y61471D01*
X22867D01*
X23471Y60867D01*
Y59436D01*
X23428Y59407D01*
X22945Y58686D01*
X22776Y57835D01*
Y51142D01*
X22945Y50291D01*
X23335Y49707D01*
X23388Y49449D01*
X23265Y49076D01*
X22789Y48711D01*
X22292Y48063D01*
X21980Y47309D01*
X21972Y47250D01*
X28028D01*
X28020Y47309D01*
X27708Y48063D01*
X27211Y48711D01*
X26735Y49076D01*
X26612Y49449D01*
X26665Y49707D01*
X27055Y50291D01*
X27224Y51142D01*
Y57835D01*
X27055Y58686D01*
X26572Y59407D01*
X26529Y59436D01*
Y61500D01*
X26413Y62085D01*
X26081Y62581D01*
X24581Y64082D01*
X24085Y64413D01*
X23796Y64471D01*
X23845Y64971D01*
X25367D01*
X28471Y61866D01*
Y59436D01*
X28428Y59407D01*
X27946Y58686D01*
X27776Y57835D01*
Y51142D01*
X27946Y50291D01*
X28428Y49569D01*
X29149Y49087D01*
X30000Y48918D01*
X30851Y49087D01*
X31572Y49569D01*
X32055Y50291D01*
X32224Y51142D01*
Y57835D01*
X32055Y58686D01*
X31572Y59407D01*
X31529Y59436D01*
Y62500D01*
X31432Y62988D01*
X31413Y63085D01*
X31082Y63582D01*
X27082Y67581D01*
X26585Y67913D01*
X26000Y68029D01*
D02*
G37*
G36*
X26150Y31389D02*
Y27258D01*
X30281D01*
X30210Y27797D01*
X29713Y28998D01*
X28921Y30029D01*
X27890Y30820D01*
X26689Y31318D01*
X26150Y31389D01*
D02*
G37*
G36*
X55000Y96082D02*
X54149Y95913D01*
X53428Y95431D01*
X52946Y94709D01*
X52776Y93858D01*
Y87165D01*
X52946Y86314D01*
X53428Y85593D01*
X54149Y85111D01*
X55000Y84942D01*
X55851Y85111D01*
X56573Y85593D01*
X57055Y86314D01*
X57224Y87165D01*
Y93858D01*
X57055Y94709D01*
X56573Y95431D01*
X55851Y95913D01*
X55000Y96082D01*
D02*
G37*
G36*
X72900Y122972D02*
X71611Y122802D01*
X70410Y122305D01*
X69379Y121513D01*
X68588Y120482D01*
X68090Y119281D01*
X67920Y117992D01*
X68090Y116703D01*
X68588Y115502D01*
X69379Y114471D01*
X70410Y113680D01*
X71611Y113182D01*
X72900Y113013D01*
X74189Y113182D01*
X75390Y113680D01*
X76421Y114471D01*
X77213Y115502D01*
X77710Y116703D01*
X77880Y117992D01*
X77710Y119281D01*
X77213Y120482D01*
X76421Y121513D01*
X75390Y122305D01*
X74189Y122802D01*
X72900Y122972D01*
D02*
G37*
G36*
X25300D02*
X24011Y122802D01*
X22810Y122305D01*
X21779Y121513D01*
X20988Y120482D01*
X20490Y119281D01*
X20320Y117992D01*
X20490Y116703D01*
X20988Y115502D01*
X21779Y114471D01*
X22810Y113680D01*
X24011Y113182D01*
X25300Y113013D01*
X26589Y113182D01*
X27790Y113680D01*
X28821Y114471D01*
X29612Y115502D01*
X30110Y116703D01*
X30280Y117992D01*
X30110Y119281D01*
X29612Y120482D01*
X28821Y121513D01*
X27790Y122305D01*
X26589Y122802D01*
X25300Y122972D01*
D02*
G37*
G36*
X18381Y117242D02*
X14250D01*
Y113111D01*
X14789Y113182D01*
X15990Y113680D01*
X17021Y114471D01*
X17812Y115502D01*
X18310Y116703D01*
X18381Y117242D01*
D02*
G37*
G36*
X12750D02*
X8619D01*
X8690Y116703D01*
X9188Y115502D01*
X9979Y114471D01*
X11010Y113680D01*
X12211Y113182D01*
X12750Y113111D01*
Y117242D01*
D02*
G37*
G36*
X25300Y111161D02*
X24011Y110991D01*
X22810Y110494D01*
X21779Y109702D01*
X20988Y108671D01*
X20490Y107470D01*
X20320Y106181D01*
X20490Y104892D01*
X20988Y103691D01*
X21779Y102660D01*
X22810Y101869D01*
X24011Y101371D01*
X25300Y101201D01*
X26589Y101371D01*
X27790Y101869D01*
X28821Y102660D01*
X29612Y103691D01*
X30110Y104892D01*
X30280Y106181D01*
X30110Y107470D01*
X29612Y108671D01*
X28821Y109702D01*
X27790Y110494D01*
X26589Y110991D01*
X25300Y111161D01*
D02*
G37*
G36*
X13500D02*
X12211Y110991D01*
X11010Y110494D01*
X9979Y109702D01*
X9188Y108671D01*
X8690Y107470D01*
X8520Y106181D01*
X8690Y104892D01*
X9188Y103691D01*
X9979Y102660D01*
X11010Y101869D01*
X12211Y101371D01*
X13500Y101201D01*
X14789Y101371D01*
X15990Y101869D01*
X17021Y102660D01*
X17812Y103691D01*
X18310Y104892D01*
X18480Y106181D01*
X18310Y107470D01*
X17812Y108671D01*
X17021Y109702D01*
X15990Y110494D01*
X14789Y110991D01*
X13500Y111161D01*
D02*
G37*
G36*
X72900D02*
X71611Y110991D01*
X70410Y110494D01*
X69379Y109702D01*
X68588Y108671D01*
X68090Y107470D01*
X67920Y106181D01*
X68090Y104892D01*
X68588Y103691D01*
X69379Y102660D01*
X70188Y102039D01*
X70018Y101539D01*
X68843D01*
X68711Y101711D01*
X68063Y102208D01*
X67309Y102520D01*
X66500Y102627D01*
X65691Y102520D01*
X64937Y102208D01*
X64289Y101711D01*
X63792Y101063D01*
X63480Y100309D01*
X63373Y99500D01*
X63480Y98691D01*
X63792Y97937D01*
X64289Y97289D01*
X64937Y96792D01*
X65691Y96480D01*
X66500Y96373D01*
X67309Y96480D01*
X68063Y96792D01*
X68711Y97289D01*
X68843Y97461D01*
X72006D01*
X74032Y95435D01*
Y92681D01*
X74032D01*
Y92319D01*
X74032D01*
Y90101D01*
X79969D01*
Y92319D01*
X79969D01*
Y92681D01*
X79969D01*
Y98618D01*
X76616D01*
X74325Y100909D01*
X74325Y101086D01*
X74412Y101463D01*
X75390Y101869D01*
X76421Y102660D01*
X77213Y103691D01*
X77710Y104892D01*
X77880Y106181D01*
X77710Y107470D01*
X77213Y108671D01*
X76421Y109702D01*
X75390Y110494D01*
X74189Y110991D01*
X72900Y111161D01*
D02*
G37*
G36*
X61100D02*
X59811Y110991D01*
X58610Y110494D01*
X57579Y109702D01*
X56788Y108671D01*
X56290Y107470D01*
X56120Y106181D01*
X56290Y104892D01*
X56788Y103691D01*
X57579Y102660D01*
X58610Y101869D01*
X59811Y101371D01*
X61100Y101201D01*
X62389Y101371D01*
X63590Y101869D01*
X64621Y102660D01*
X65412Y103691D01*
X65910Y104892D01*
X66080Y106181D01*
X65910Y107470D01*
X65412Y108671D01*
X64621Y109702D01*
X63590Y110494D01*
X62389Y110991D01*
X61100Y111161D01*
D02*
G37*
G36*
X61850Y122873D02*
Y118742D01*
X65981D01*
X65910Y119281D01*
X65412Y120482D01*
X64621Y121513D01*
X63590Y122305D01*
X62389Y122802D01*
X61850Y122873D01*
D02*
G37*
G36*
X60350D02*
X59811Y122802D01*
X58610Y122305D01*
X57579Y121513D01*
X56788Y120482D01*
X56290Y119281D01*
X56219Y118742D01*
X60350D01*
Y122873D01*
D02*
G37*
G36*
X67000Y141939D02*
X65646Y141806D01*
X64345Y141411D01*
X63145Y140770D01*
X62094Y139907D01*
X61231Y138855D01*
X60589Y137655D01*
X60194Y136354D01*
X60061Y135000D01*
X60194Y133646D01*
X60589Y132345D01*
X61231Y131145D01*
X62094Y130094D01*
X63145Y129230D01*
X64345Y128589D01*
X65646Y128194D01*
X67000Y128061D01*
X68354Y128194D01*
X69656Y128589D01*
X70855Y129230D01*
X71907Y130094D01*
X72770Y131145D01*
X73411Y132345D01*
X73806Y133646D01*
X73939Y135000D01*
X73806Y136354D01*
X73411Y137655D01*
X72770Y138855D01*
X71907Y139907D01*
X70855Y140770D01*
X69656Y141411D01*
X68354Y141806D01*
X67000Y141939D01*
D02*
G37*
G36*
X19400D02*
X18046Y141806D01*
X16745Y141411D01*
X15545Y140770D01*
X14493Y139907D01*
X13631Y138855D01*
X12989Y137655D01*
X12595Y136354D01*
X12461Y135000D01*
X12595Y133646D01*
X12989Y132345D01*
X13631Y131145D01*
X14493Y130094D01*
X15545Y129230D01*
X16745Y128589D01*
X18046Y128194D01*
X19400Y128061D01*
X20754Y128194D01*
X22055Y128589D01*
X23255Y129230D01*
X24307Y130094D01*
X25170Y131145D01*
X25811Y132345D01*
X26206Y133646D01*
X26339Y135000D01*
X26206Y136354D01*
X25811Y137655D01*
X25170Y138855D01*
X24307Y139907D01*
X23255Y140770D01*
X22055Y141411D01*
X20754Y141806D01*
X19400Y141939D01*
D02*
G37*
G36*
X65981Y117242D02*
X61850D01*
Y113111D01*
X62389Y113182D01*
X63590Y113680D01*
X64621Y114471D01*
X65412Y115502D01*
X65910Y116703D01*
X65981Y117242D01*
D02*
G37*
G36*
X60350D02*
X56219D01*
X56290Y116703D01*
X56788Y115502D01*
X57579Y114471D01*
X58610Y113680D01*
X59811Y113182D01*
X60350Y113111D01*
Y117242D01*
D02*
G37*
G36*
X14250Y122873D02*
Y118742D01*
X18381D01*
X18310Y119281D01*
X17812Y120482D01*
X17021Y121513D01*
X15990Y122305D01*
X14789Y122802D01*
X14250Y122873D01*
D02*
G37*
G36*
X12750D02*
X12211Y122802D01*
X11010Y122305D01*
X9979Y121513D01*
X9188Y120482D01*
X8690Y119281D01*
X8619Y118742D01*
X12750D01*
Y122873D01*
D02*
G37*
G36*
X44250Y102028D02*
X44191Y102020D01*
X43437Y101708D01*
X42789Y101211D01*
X42657Y101039D01*
X37343D01*
X37211Y101211D01*
X36563Y101708D01*
X35809Y102020D01*
X35750Y102028D01*
Y99000D01*
X35000D01*
Y98250D01*
X31972D01*
X31980Y98191D01*
X32292Y97437D01*
X32789Y96789D01*
X33437Y96292D01*
X33671Y96195D01*
X33727Y95631D01*
X33428Y95431D01*
X32945Y94709D01*
X32776Y93858D01*
Y87165D01*
X32945Y86314D01*
X33428Y85593D01*
X34149Y85111D01*
X35000Y84942D01*
X35851Y85111D01*
X36573Y85593D01*
X37055Y86314D01*
X37224Y87165D01*
Y93858D01*
X37055Y94709D01*
X36573Y95431D01*
X36273Y95631D01*
X36329Y96195D01*
X36563Y96292D01*
X37211Y96789D01*
X37343Y96961D01*
X37961D01*
Y94732D01*
X37946Y94709D01*
X37776Y93858D01*
Y91262D01*
X40000D01*
Y90512D01*
X40750D01*
Y85091D01*
X40851Y85111D01*
X41572Y85593D01*
X42055Y86314D01*
X42224Y87165D01*
Y93858D01*
X42055Y94709D01*
X42039Y94732D01*
Y96961D01*
X42657D01*
X42789Y96789D01*
X42961Y96657D01*
Y94732D01*
X42946Y94709D01*
X42776Y93858D01*
Y87165D01*
X42946Y86314D01*
X43428Y85593D01*
X44149Y85111D01*
X44250Y85091D01*
Y90512D01*
X45000D01*
Y91262D01*
X47224D01*
Y93858D01*
X47055Y94709D01*
X47039Y94732D01*
Y96657D01*
X47211Y96789D01*
X47708Y97437D01*
X48020Y98191D01*
X48028Y98250D01*
X45000D01*
Y99000D01*
X44250D01*
Y102028D01*
D02*
G37*
G36*
X76250Y88600D02*
X74032D01*
Y86382D01*
X76250D01*
Y88600D01*
D02*
G37*
G36*
X67224Y89762D02*
X65750D01*
Y85091D01*
X65851Y85111D01*
X66572Y85593D01*
X67055Y86314D01*
X67224Y87165D01*
Y89762D01*
D02*
G37*
G36*
X24250Y95933D02*
X24149Y95913D01*
X23428Y95431D01*
X22945Y94709D01*
X22776Y93858D01*
Y91262D01*
X24250D01*
Y95933D01*
D02*
G37*
G36*
X79969Y88600D02*
X77750D01*
Y86382D01*
X79969D01*
Y88600D01*
D02*
G37*
G36*
X64250Y89762D02*
X62776D01*
Y87165D01*
X62945Y86314D01*
X63428Y85593D01*
X64149Y85111D01*
X64250Y85091D01*
Y89762D01*
D02*
G37*
G36*
X27224D02*
X25750D01*
Y85091D01*
X25851Y85111D01*
X26572Y85593D01*
X27055Y86314D01*
X27224Y87165D01*
Y89762D01*
D02*
G37*
G36*
X24250D02*
X22776D01*
Y87165D01*
X22945Y86314D01*
X23428Y85593D01*
X24149Y85111D01*
X24250Y85091D01*
Y89762D01*
D02*
G37*
G36*
X47224D02*
X45750D01*
Y85091D01*
X45851Y85111D01*
X46573Y85593D01*
X47055Y86314D01*
X47224Y87165D01*
Y89762D01*
D02*
G37*
G36*
X39250D02*
X37776D01*
Y87165D01*
X37946Y86314D01*
X38428Y85593D01*
X39149Y85111D01*
X39250Y85091D01*
Y89762D01*
D02*
G37*
G36*
X10469Y98618D02*
X8250D01*
Y96400D01*
X10469D01*
Y98618D01*
D02*
G37*
G36*
X6750D02*
X4532D01*
Y96400D01*
X6750D01*
Y98618D01*
D02*
G37*
G36*
X45750Y102028D02*
Y99750D01*
X48028D01*
X48020Y99809D01*
X47708Y100563D01*
X47211Y101211D01*
X46563Y101708D01*
X45809Y102020D01*
X45750Y102028D01*
D02*
G37*
G36*
X34250D02*
X34191Y102020D01*
X33437Y101708D01*
X32789Y101211D01*
X32292Y100563D01*
X31980Y99809D01*
X31972Y99750D01*
X34250D01*
Y102028D01*
D02*
G37*
G36*
X64250Y95933D02*
X64149Y95913D01*
X63428Y95431D01*
X62945Y94709D01*
X62776Y93858D01*
Y91262D01*
X64250D01*
Y95933D01*
D02*
G37*
G36*
X25750D02*
Y91262D01*
X27224D01*
Y93858D01*
X27055Y94709D01*
X26572Y95431D01*
X25851Y95913D01*
X25750Y95933D01*
D02*
G37*
G36*
X65750D02*
Y91262D01*
X67224D01*
Y93858D01*
X67055Y94709D01*
X66572Y95431D01*
X65851Y95913D01*
X65750Y95933D01*
D02*
G37*
%LPD*%
G36*
X5971Y44419D02*
X6087Y43834D01*
X6419Y43338D01*
X9188Y40568D01*
X8790Y39608D01*
X8620Y38319D01*
X8790Y37030D01*
X9288Y35829D01*
X10079Y34798D01*
X10463Y34503D01*
X10303Y34029D01*
X9634D01*
X5029Y38634D01*
Y45382D01*
X5971D01*
Y44419D01*
D02*
G37*
G36*
X70471Y58367D02*
Y53252D01*
X70587Y52667D01*
X70919Y52171D01*
X72846Y50243D01*
X72654Y49781D01*
X71752D01*
X71167Y49665D01*
X70671Y49334D01*
X63504Y42167D01*
X62389Y42629D01*
X61539Y42741D01*
X61471Y43254D01*
X61563Y43292D01*
X62211Y43789D01*
X62708Y44437D01*
X63020Y45191D01*
X63127Y46000D01*
X63020Y46809D01*
X62708Y47563D01*
X62211Y48211D01*
X62039Y48343D01*
Y50268D01*
X62055Y50291D01*
X62224Y51142D01*
Y57835D01*
X62055Y58686D01*
X61572Y59407D01*
X60851Y59889D01*
X60442Y59971D01*
X60491Y60471D01*
X64509D01*
X64558Y59971D01*
X64149Y59889D01*
X63428Y59407D01*
X62945Y58686D01*
X62776Y57835D01*
Y51142D01*
X62945Y50291D01*
X63428Y49569D01*
X64149Y49087D01*
X65000Y48918D01*
X65851Y49087D01*
X66572Y49569D01*
X67055Y50291D01*
X67224Y51142D01*
Y57835D01*
X67055Y58686D01*
X66572Y59407D01*
X65851Y59889D01*
X65442Y59971D01*
X65491Y60471D01*
X68367D01*
X70471Y58367D01*
D02*
G37*
D10*
X65000Y54488D02*
D03*
X60000D02*
D03*
X55000D02*
D03*
X50000D02*
D03*
X45000D02*
D03*
X40000D02*
D03*
X35000D02*
D03*
X30000D02*
D03*
X25000D02*
D03*
X20000D02*
D03*
X65000Y90512D02*
D03*
X60000D02*
D03*
X55000D02*
D03*
X50000D02*
D03*
X45000D02*
D03*
X40000D02*
D03*
X35000D02*
D03*
X30000D02*
D03*
X25000D02*
D03*
X20000D02*
D03*
D11*
X77000Y89350D02*
D03*
Y95650D02*
D03*
X7500D02*
D03*
Y89350D02*
D03*
D13*
X77000Y54748D02*
D03*
Y48252D02*
D03*
X7500Y54748D02*
D03*
Y48252D02*
D03*
D14*
X40000Y99000D02*
X45000D01*
X35000D02*
X40000D01*
X7500Y85500D02*
X9000Y84000D01*
X7500Y85500D02*
Y89350D01*
X72851Y99500D02*
X76850Y95500D01*
X66500Y99500D02*
X72851D01*
X42500Y62500D02*
X45000Y60000D01*
Y54488D02*
Y60000D01*
X40000D02*
X42500Y62500D01*
X40000Y54488D02*
Y60000D01*
Y90512D02*
Y99000D01*
X45000Y90512D02*
Y99000D01*
X60000Y46000D02*
Y54488D01*
D15*
X72000Y53252D02*
X77000Y48252D01*
X72000Y53252D02*
Y59000D01*
X71752Y48252D02*
X77000D01*
X61819Y38319D02*
X71752Y48252D01*
X3500Y53500D02*
X4500Y54500D01*
X3500Y38000D02*
Y53500D01*
Y38000D02*
X9000Y32500D01*
X79752Y54748D02*
X81000Y53500D01*
Y44000D02*
Y53500D01*
X75319Y38319D02*
X81000Y44000D01*
X69500Y65000D02*
X74500Y60000D01*
Y57248D02*
Y60000D01*
Y57248D02*
X77000Y54748D01*
X53000Y65000D02*
X69500D01*
X7500Y44419D02*
Y48252D01*
Y44419D02*
X13600Y38319D01*
X60000Y75000D02*
Y90512D01*
X54500Y69500D02*
X60000Y75000D01*
X44000Y69500D02*
X54500D01*
X30000Y81500D02*
Y90512D01*
X77000Y54748D02*
X79752D01*
X69000Y62000D02*
X72000Y59000D01*
X19252Y66500D02*
X26000D01*
X7500Y54748D02*
X19252Y66500D01*
X20000Y63000D02*
X23500D01*
X12500Y55500D02*
X20000Y63000D01*
X12500Y49500D02*
Y55500D01*
X76850Y95500D02*
X77000Y95650D01*
X26000Y66500D02*
X30000Y62500D01*
Y54783D02*
Y62500D01*
X7500Y48252D02*
X11252D01*
X12500Y49500D01*
X23500Y63000D02*
X25000Y61500D01*
Y54783D02*
Y61500D01*
X9000Y32500D02*
X19581D01*
X4500Y54500D02*
X7252D01*
X7500Y54748D01*
X19581Y32500D02*
X25400Y38319D01*
X70900D02*
X75319D01*
X59100D02*
X61819D01*
X50000Y62000D02*
X53000Y65000D01*
X50000Y54783D02*
Y62000D01*
X57000D02*
X69000D01*
X55000Y60000D02*
X57000Y62000D01*
X55000Y54783D02*
Y60000D01*
D17*
X61100Y106181D02*
D03*
X72900D02*
D03*
Y117992D02*
D03*
X61100D02*
D03*
X13500Y106181D02*
D03*
X25300D02*
D03*
Y117992D02*
D03*
X13500D02*
D03*
X72900Y37819D02*
D03*
X61100D02*
D03*
Y26008D02*
D03*
X72900D02*
D03*
X25400Y38319D02*
D03*
X13600D02*
D03*
Y26508D02*
D03*
X25400D02*
D03*
D18*
X67000Y135000D02*
D03*
X19400D02*
D03*
X67000Y9000D02*
D03*
X19500Y9500D02*
D03*
D19*
X35000Y99000D02*
D03*
X66500Y99500D02*
D03*
X77500Y63500D02*
D03*
X45000Y99000D02*
D03*
X9000Y84000D02*
D03*
X60000Y46000D02*
D03*
X44000Y69500D02*
D03*
X30000Y81500D02*
D03*
X42500Y62500D02*
D03*
X25000Y46500D02*
D03*
X10000Y65000D02*
D03*
M02*
