G04 Layer_Color=13948096*
%FSLAX25Y25*%
%MOIN*%
G70*
G01*
G75*
%ADD20C,0.02362*%
%ADD21C,0.00984*%
%ADD22C,0.00787*%
%ADD23C,0.00500*%
G36*
X13252Y95989D02*
X13446Y95967D01*
X13618Y95939D01*
X13701Y95917D01*
X13773Y95900D01*
X13840Y95884D01*
X13901Y95861D01*
X13957Y95845D01*
X14001Y95833D01*
X14034Y95817D01*
X14062Y95811D01*
X14079Y95800D01*
X14084D01*
X14251Y95717D01*
X14401Y95623D01*
X14528Y95523D01*
X14578Y95473D01*
X14628Y95428D01*
X14673Y95384D01*
X14711Y95340D01*
X14745Y95301D01*
X14767Y95267D01*
X14789Y95245D01*
X14806Y95223D01*
X14811Y95212D01*
X14817Y95206D01*
X14861Y95129D01*
X14900Y95051D01*
X14961Y94885D01*
X15006Y94718D01*
X15033Y94557D01*
X15044Y94479D01*
X15055Y94413D01*
X15061Y94352D01*
Y94302D01*
X15067Y94257D01*
Y94224D01*
Y94202D01*
Y94196D01*
X15061Y94085D01*
X15050Y93980D01*
X15039Y93880D01*
X15017Y93786D01*
X14989Y93697D01*
X14961Y93613D01*
X14933Y93536D01*
X14900Y93464D01*
X14872Y93403D01*
X14845Y93341D01*
X14817Y93297D01*
X14789Y93253D01*
X14767Y93225D01*
X14756Y93197D01*
X14745Y93186D01*
X14739Y93181D01*
X14673Y93103D01*
X14606Y93036D01*
X14528Y92975D01*
X14451Y92914D01*
X14295Y92814D01*
X14140Y92737D01*
X14068Y92703D01*
X14001Y92676D01*
X13940Y92653D01*
X13890Y92637D01*
X13846Y92620D01*
X13812Y92609D01*
X13790Y92603D01*
X13784D01*
X13657Y93114D01*
X13746Y93136D01*
X13829Y93164D01*
X13907Y93192D01*
X13979Y93219D01*
X14045Y93253D01*
X14101Y93286D01*
X14156Y93325D01*
X14206Y93358D01*
X14251Y93386D01*
X14284Y93419D01*
X14317Y93447D01*
X14345Y93469D01*
X14362Y93491D01*
X14378Y93508D01*
X14384Y93514D01*
X14390Y93519D01*
X14434Y93575D01*
X14467Y93636D01*
X14528Y93758D01*
X14573Y93874D01*
X14600Y93991D01*
X14623Y94091D01*
X14628Y94130D01*
Y94169D01*
X14634Y94202D01*
Y94224D01*
Y94235D01*
Y94241D01*
X14628Y94368D01*
X14606Y94490D01*
X14578Y94601D01*
X14545Y94701D01*
X14512Y94779D01*
X14495Y94812D01*
X14484Y94840D01*
X14473Y94862D01*
X14462Y94879D01*
X14456Y94890D01*
Y94896D01*
X14378Y95001D01*
X14295Y95090D01*
X14201Y95167D01*
X14112Y95228D01*
X14034Y95279D01*
X13968Y95312D01*
X13940Y95323D01*
X13923Y95334D01*
X13912Y95340D01*
X13907D01*
X13762Y95384D01*
X13618Y95417D01*
X13474Y95445D01*
X13340Y95462D01*
X13280Y95467D01*
X13224Y95473D01*
X13174D01*
X13135Y95478D01*
X13052D01*
X12908Y95473D01*
X12775Y95462D01*
X12652Y95439D01*
X12541Y95417D01*
X12447Y95401D01*
X12408Y95389D01*
X12375Y95378D01*
X12347Y95373D01*
X12331Y95367D01*
X12319Y95362D01*
X12314D01*
X12186Y95306D01*
X12070Y95245D01*
X11975Y95179D01*
X11892Y95106D01*
X11825Y95045D01*
X11781Y94995D01*
X11753Y94957D01*
X11742Y94951D01*
Y94946D01*
X11670Y94829D01*
X11614Y94701D01*
X11576Y94579D01*
X11553Y94463D01*
X11537Y94357D01*
X11531Y94313D01*
Y94274D01*
X11526Y94246D01*
Y94224D01*
Y94207D01*
Y94202D01*
X11531Y94063D01*
X11553Y93935D01*
X11587Y93830D01*
X11620Y93736D01*
X11659Y93664D01*
X11687Y93608D01*
X11709Y93575D01*
X11720Y93563D01*
X11803Y93475D01*
X11897Y93392D01*
X11998Y93325D01*
X12097Y93269D01*
X12186Y93225D01*
X12230Y93208D01*
X12264Y93197D01*
X12292Y93186D01*
X12314Y93175D01*
X12325Y93169D01*
X12331D01*
X12214Y92670D01*
X12114Y92703D01*
X12025Y92737D01*
X11942Y92781D01*
X11859Y92820D01*
X11787Y92864D01*
X11720Y92914D01*
X11653Y92959D01*
X11598Y93003D01*
X11553Y93047D01*
X11509Y93086D01*
X11470Y93125D01*
X11442Y93153D01*
X11415Y93181D01*
X11398Y93203D01*
X11393Y93214D01*
X11387Y93219D01*
X11337Y93297D01*
X11287Y93375D01*
X11248Y93453D01*
X11215Y93536D01*
X11165Y93702D01*
X11132Y93852D01*
X11115Y93924D01*
X11109Y93985D01*
X11104Y94046D01*
X11098Y94096D01*
X11093Y94135D01*
Y94163D01*
Y94185D01*
Y94191D01*
X11104Y94374D01*
X11132Y94551D01*
X11165Y94707D01*
X11187Y94779D01*
X11209Y94846D01*
X11232Y94907D01*
X11254Y94962D01*
X11270Y95007D01*
X11287Y95051D01*
X11304Y95079D01*
X11315Y95101D01*
X11320Y95118D01*
X11326Y95123D01*
X11420Y95273D01*
X11531Y95401D01*
X11642Y95512D01*
X11753Y95606D01*
X11853Y95678D01*
X11897Y95706D01*
X11936Y95728D01*
X11964Y95750D01*
X11986Y95761D01*
X12003Y95767D01*
X12009Y95772D01*
X12181Y95850D01*
X12358Y95906D01*
X12536Y95944D01*
X12697Y95972D01*
X12769Y95983D01*
X12841Y95989D01*
X12897Y95994D01*
X12952D01*
X12991Y96000D01*
X13052D01*
X13252Y95989D01*
D02*
G37*
G36*
X13030Y70882D02*
X12991Y70799D01*
X12953Y70715D01*
X12914Y70638D01*
X12880Y70571D01*
X12853Y70516D01*
X12830Y70482D01*
X12825Y70477D01*
Y70471D01*
X12764Y70371D01*
X12703Y70283D01*
X12647Y70205D01*
X12597Y70144D01*
X12559Y70088D01*
X12525Y70055D01*
X12503Y70027D01*
X12498Y70022D01*
X15500D01*
Y69550D01*
X11643D01*
Y69855D01*
X11737Y69911D01*
X11826Y69972D01*
X11915Y70044D01*
X11992Y70110D01*
X12059Y70177D01*
X12115Y70227D01*
X12131Y70249D01*
X12148Y70266D01*
X12153Y70271D01*
X12159Y70277D01*
X12253Y70394D01*
X12342Y70510D01*
X12420Y70621D01*
X12481Y70732D01*
X12536Y70826D01*
X12559Y70865D01*
X12575Y70899D01*
X12592Y70926D01*
X12597Y70948D01*
X12608Y70960D01*
Y70965D01*
X13064D01*
X13030Y70882D01*
D02*
G37*
G36*
X15000Y89690D02*
X14545D01*
Y91582D01*
X14451Y91516D01*
X14412Y91482D01*
X14373Y91454D01*
X14340Y91427D01*
X14317Y91405D01*
X14301Y91388D01*
X14295Y91382D01*
X14267Y91355D01*
X14240Y91321D01*
X14167Y91244D01*
X14084Y91155D01*
X14001Y91061D01*
X13929Y90972D01*
X13896Y90933D01*
X13862Y90899D01*
X13840Y90872D01*
X13823Y90850D01*
X13812Y90838D01*
X13807Y90833D01*
X13729Y90744D01*
X13657Y90655D01*
X13585Y90578D01*
X13524Y90505D01*
X13463Y90439D01*
X13407Y90383D01*
X13357Y90328D01*
X13313Y90284D01*
X13268Y90239D01*
X13235Y90206D01*
X13207Y90178D01*
X13180Y90150D01*
X13146Y90123D01*
X13135Y90112D01*
X13041Y90034D01*
X12958Y89967D01*
X12874Y89912D01*
X12808Y89867D01*
X12747Y89834D01*
X12702Y89812D01*
X12675Y89801D01*
X12664Y89795D01*
X12580Y89762D01*
X12497Y89740D01*
X12419Y89717D01*
X12353Y89706D01*
X12292Y89701D01*
X12247Y89695D01*
X12208D01*
X12125Y89701D01*
X12047Y89712D01*
X11970Y89723D01*
X11903Y89745D01*
X11770Y89801D01*
X11664Y89856D01*
X11614Y89889D01*
X11576Y89917D01*
X11537Y89945D01*
X11509Y89973D01*
X11487Y89995D01*
X11465Y90006D01*
X11459Y90017D01*
X11453Y90023D01*
X11398Y90084D01*
X11348Y90150D01*
X11309Y90223D01*
X11276Y90295D01*
X11220Y90439D01*
X11182Y90583D01*
X11170Y90644D01*
X11159Y90705D01*
X11154Y90761D01*
X11148Y90805D01*
X11143Y90844D01*
Y90877D01*
Y90894D01*
Y90899D01*
X11148Y91000D01*
X11154Y91094D01*
X11170Y91183D01*
X11187Y91266D01*
X11209Y91344D01*
X11232Y91416D01*
X11259Y91482D01*
X11287Y91543D01*
X11315Y91599D01*
X11343Y91643D01*
X11365Y91682D01*
X11387Y91715D01*
X11404Y91743D01*
X11420Y91760D01*
X11426Y91771D01*
X11431Y91776D01*
X11487Y91832D01*
X11548Y91882D01*
X11614Y91932D01*
X11681Y91971D01*
X11814Y92037D01*
X11947Y92082D01*
X12009Y92098D01*
X12070Y92115D01*
X12120Y92126D01*
X12164Y92137D01*
X12203Y92143D01*
X12230D01*
X12247Y92148D01*
X12253D01*
X12303Y91665D01*
X12175Y91654D01*
X12064Y91632D01*
X11964Y91599D01*
X11886Y91560D01*
X11820Y91527D01*
X11775Y91493D01*
X11748Y91471D01*
X11737Y91460D01*
X11670Y91377D01*
X11620Y91288D01*
X11581Y91194D01*
X11559Y91110D01*
X11542Y91033D01*
X11537Y90966D01*
X11531Y90944D01*
Y90927D01*
Y90916D01*
Y90911D01*
X11537Y90794D01*
X11559Y90689D01*
X11592Y90600D01*
X11626Y90522D01*
X11664Y90461D01*
X11692Y90422D01*
X11714Y90395D01*
X11726Y90383D01*
X11803Y90317D01*
X11881Y90267D01*
X11959Y90228D01*
X12036Y90206D01*
X12097Y90189D01*
X12153Y90184D01*
X12186Y90178D01*
X12197D01*
X12297Y90189D01*
X12403Y90211D01*
X12497Y90250D01*
X12586Y90289D01*
X12658Y90333D01*
X12719Y90372D01*
X12741Y90383D01*
X12758Y90395D01*
X12763Y90406D01*
X12769D01*
X12830Y90450D01*
X12891Y90505D01*
X12958Y90566D01*
X13024Y90633D01*
X13157Y90772D01*
X13291Y90911D01*
X13352Y90983D01*
X13407Y91044D01*
X13457Y91105D01*
X13501Y91155D01*
X13535Y91194D01*
X13563Y91227D01*
X13579Y91249D01*
X13585Y91255D01*
X13701Y91394D01*
X13812Y91521D01*
X13912Y91627D01*
X13995Y91710D01*
X14068Y91782D01*
X14118Y91832D01*
X14151Y91860D01*
X14156Y91871D01*
X14162D01*
X14256Y91948D01*
X14345Y92010D01*
X14434Y92065D01*
X14512Y92110D01*
X14578Y92143D01*
X14628Y92165D01*
X14661Y92176D01*
X14667Y92182D01*
X14673D01*
X14734Y92204D01*
X14789Y92215D01*
X14845Y92226D01*
X14895Y92232D01*
X14939Y92237D01*
X15000D01*
Y89690D01*
D02*
G37*
G36*
Y48345D02*
X14545D01*
Y50238D01*
X14451Y50171D01*
X14412Y50138D01*
X14373Y50110D01*
X14340Y50082D01*
X14317Y50060D01*
X14301Y50043D01*
X14295Y50038D01*
X14267Y50010D01*
X14240Y49977D01*
X14167Y49899D01*
X14084Y49810D01*
X14001Y49716D01*
X13929Y49627D01*
X13896Y49588D01*
X13862Y49555D01*
X13840Y49527D01*
X13823Y49505D01*
X13812Y49494D01*
X13807Y49488D01*
X13729Y49400D01*
X13657Y49311D01*
X13585Y49233D01*
X13524Y49161D01*
X13463Y49094D01*
X13407Y49039D01*
X13357Y48983D01*
X13313Y48939D01*
X13268Y48895D01*
X13235Y48861D01*
X13207Y48833D01*
X13180Y48806D01*
X13146Y48778D01*
X13135Y48767D01*
X13041Y48689D01*
X12958Y48623D01*
X12874Y48567D01*
X12808Y48523D01*
X12747Y48489D01*
X12702Y48467D01*
X12675Y48456D01*
X12664Y48450D01*
X12580Y48417D01*
X12497Y48395D01*
X12419Y48373D01*
X12353Y48362D01*
X12292Y48356D01*
X12247Y48351D01*
X12208D01*
X12125Y48356D01*
X12047Y48367D01*
X11970Y48378D01*
X11903Y48401D01*
X11770Y48456D01*
X11664Y48511D01*
X11614Y48545D01*
X11576Y48573D01*
X11537Y48600D01*
X11509Y48628D01*
X11487Y48650D01*
X11465Y48661D01*
X11459Y48673D01*
X11453Y48678D01*
X11398Y48739D01*
X11348Y48806D01*
X11309Y48878D01*
X11276Y48950D01*
X11220Y49094D01*
X11182Y49239D01*
X11170Y49300D01*
X11159Y49361D01*
X11154Y49416D01*
X11148Y49461D01*
X11143Y49499D01*
Y49533D01*
Y49549D01*
Y49555D01*
X11148Y49655D01*
X11154Y49749D01*
X11170Y49838D01*
X11187Y49921D01*
X11209Y49999D01*
X11232Y50071D01*
X11259Y50138D01*
X11287Y50199D01*
X11315Y50254D01*
X11343Y50299D01*
X11365Y50337D01*
X11387Y50371D01*
X11404Y50399D01*
X11420Y50415D01*
X11426Y50426D01*
X11431Y50432D01*
X11487Y50487D01*
X11548Y50537D01*
X11614Y50587D01*
X11681Y50626D01*
X11814Y50693D01*
X11947Y50737D01*
X12009Y50754D01*
X12070Y50770D01*
X12120Y50782D01*
X12164Y50793D01*
X12203Y50798D01*
X12230D01*
X12247Y50804D01*
X12253D01*
X12303Y50321D01*
X12175Y50310D01*
X12064Y50287D01*
X11964Y50254D01*
X11886Y50215D01*
X11820Y50182D01*
X11775Y50149D01*
X11748Y50127D01*
X11737Y50116D01*
X11670Y50032D01*
X11620Y49944D01*
X11581Y49849D01*
X11559Y49766D01*
X11542Y49688D01*
X11537Y49622D01*
X11531Y49599D01*
Y49583D01*
Y49572D01*
Y49566D01*
X11537Y49450D01*
X11559Y49344D01*
X11592Y49255D01*
X11626Y49178D01*
X11664Y49117D01*
X11692Y49078D01*
X11714Y49050D01*
X11726Y49039D01*
X11803Y48972D01*
X11881Y48922D01*
X11959Y48883D01*
X12036Y48861D01*
X12097Y48845D01*
X12153Y48839D01*
X12186Y48833D01*
X12197D01*
X12297Y48845D01*
X12403Y48867D01*
X12497Y48906D01*
X12586Y48945D01*
X12658Y48989D01*
X12719Y49028D01*
X12741Y49039D01*
X12758Y49050D01*
X12763Y49061D01*
X12769D01*
X12830Y49105D01*
X12891Y49161D01*
X12958Y49222D01*
X13024Y49288D01*
X13157Y49427D01*
X13291Y49566D01*
X13352Y49638D01*
X13407Y49699D01*
X13457Y49760D01*
X13501Y49810D01*
X13535Y49849D01*
X13563Y49882D01*
X13579Y49905D01*
X13585Y49910D01*
X13701Y50049D01*
X13812Y50177D01*
X13912Y50282D01*
X13995Y50365D01*
X14068Y50437D01*
X14118Y50487D01*
X14151Y50515D01*
X14156Y50526D01*
X14162D01*
X14256Y50604D01*
X14345Y50665D01*
X14434Y50720D01*
X14512Y50765D01*
X14578Y50798D01*
X14628Y50820D01*
X14661Y50832D01*
X14667Y50837D01*
X14673D01*
X14734Y50859D01*
X14789Y50870D01*
X14845Y50881D01*
X14895Y50887D01*
X14939Y50893D01*
X15000D01*
Y48345D01*
D02*
G37*
G36*
Y53989D02*
X13296D01*
Y53401D01*
Y53334D01*
X13302Y53273D01*
Y53229D01*
X13307Y53190D01*
X13313Y53162D01*
Y53140D01*
X13318Y53129D01*
Y53124D01*
X13346Y53035D01*
X13363Y52996D01*
X13379Y52963D01*
X13396Y52929D01*
X13407Y52907D01*
X13413Y52896D01*
X13418Y52890D01*
X13452Y52846D01*
X13490Y52802D01*
X13574Y52718D01*
X13612Y52680D01*
X13646Y52652D01*
X13668Y52635D01*
X13674Y52630D01*
X13751Y52574D01*
X13835Y52513D01*
X13923Y52452D01*
X14006Y52391D01*
X14084Y52341D01*
X14145Y52302D01*
X14167Y52286D01*
X14184Y52275D01*
X14195Y52263D01*
X14201D01*
X15000Y51758D01*
Y51126D01*
X13957Y51786D01*
X13846Y51864D01*
X13746Y51936D01*
X13663Y52008D01*
X13585Y52069D01*
X13529Y52125D01*
X13485Y52169D01*
X13457Y52197D01*
X13446Y52208D01*
X13413Y52252D01*
X13374Y52302D01*
X13313Y52402D01*
X13291Y52447D01*
X13268Y52480D01*
X13257Y52502D01*
X13252Y52513D01*
X13235Y52413D01*
X13218Y52319D01*
X13191Y52236D01*
X13169Y52152D01*
X13141Y52080D01*
X13107Y52014D01*
X13080Y51952D01*
X13052Y51897D01*
X13019Y51853D01*
X12991Y51808D01*
X12969Y51775D01*
X12946Y51747D01*
X12930Y51725D01*
X12913Y51708D01*
X12908Y51703D01*
X12902Y51697D01*
X12847Y51653D01*
X12791Y51609D01*
X12675Y51542D01*
X12558Y51498D01*
X12447Y51464D01*
X12353Y51442D01*
X12314Y51436D01*
X12275D01*
X12247Y51431D01*
X12208D01*
X12092Y51436D01*
X11986Y51453D01*
X11886Y51481D01*
X11803Y51509D01*
X11731Y51542D01*
X11676Y51564D01*
X11642Y51586D01*
X11637Y51592D01*
X11631D01*
X11542Y51658D01*
X11465Y51725D01*
X11398Y51797D01*
X11348Y51864D01*
X11309Y51925D01*
X11287Y51975D01*
X11270Y52008D01*
X11265Y52014D01*
Y52019D01*
X11248Y52069D01*
X11232Y52130D01*
X11204Y52252D01*
X11187Y52385D01*
X11170Y52508D01*
X11165Y52624D01*
Y52674D01*
X11159Y52718D01*
Y52752D01*
Y52780D01*
Y52796D01*
Y52802D01*
Y54500D01*
X15000D01*
Y53989D01*
D02*
G37*
G36*
X14096Y74994D02*
X14196Y74989D01*
X14290Y74978D01*
X14373Y74967D01*
X14451Y74956D01*
X14523Y74939D01*
X14590Y74928D01*
X14651Y74917D01*
X14701Y74900D01*
X14745Y74889D01*
X14778Y74878D01*
X14806Y74867D01*
X14829Y74861D01*
X14840Y74856D01*
X14845D01*
X14967Y74795D01*
X15078Y74717D01*
X15167Y74639D01*
X15245Y74556D01*
X15306Y74484D01*
X15350Y74423D01*
X15361Y74401D01*
X15372Y74384D01*
X15383Y74373D01*
Y74367D01*
X15445Y74229D01*
X15489Y74084D01*
X15522Y73934D01*
X15544Y73796D01*
X15550Y73735D01*
X15555Y73674D01*
X15561Y73618D01*
Y73574D01*
X15567Y73535D01*
Y73507D01*
Y73490D01*
Y73485D01*
X15555Y73285D01*
X15544Y73196D01*
X15533Y73113D01*
X15517Y73030D01*
X15500Y72958D01*
X15483Y72891D01*
X15461Y72830D01*
X15439Y72774D01*
X15422Y72730D01*
X15406Y72686D01*
X15389Y72652D01*
X15372Y72625D01*
X15367Y72608D01*
X15356Y72597D01*
Y72591D01*
X15272Y72469D01*
X15178Y72369D01*
X15089Y72292D01*
X15000Y72225D01*
X14923Y72175D01*
X14862Y72142D01*
X14840Y72131D01*
X14823Y72120D01*
X14812Y72114D01*
X14806D01*
X14740Y72092D01*
X14668Y72070D01*
X14518Y72036D01*
X14362Y72014D01*
X14212Y71997D01*
X14146Y71992D01*
X14079Y71986D01*
X14024D01*
X13974Y71981D01*
X11659D01*
Y72491D01*
X14007D01*
X14129Y72502D01*
X14235Y72514D01*
X14334Y72530D01*
X14423Y72547D01*
X14506Y72569D01*
X14579Y72586D01*
X14640Y72608D01*
X14690Y72630D01*
X14740Y72652D01*
X14773Y72675D01*
X14806Y72691D01*
X14829Y72708D01*
X14845Y72719D01*
X14851Y72724D01*
X14856Y72730D01*
X14901Y72780D01*
X14939Y72835D01*
X15000Y72958D01*
X15045Y73085D01*
X15073Y73218D01*
X15095Y73340D01*
X15100Y73391D01*
Y73440D01*
X15106Y73474D01*
Y73507D01*
Y73524D01*
Y73529D01*
X15100Y73646D01*
X15084Y73751D01*
X15067Y73851D01*
X15039Y73929D01*
X15017Y73996D01*
X15000Y74045D01*
X14984Y74073D01*
X14978Y74084D01*
X14928Y74162D01*
X14867Y74229D01*
X14806Y74284D01*
X14751Y74323D01*
X14695Y74356D01*
X14656Y74384D01*
X14629Y74395D01*
X14617Y74401D01*
X14568Y74417D01*
X14518Y74428D01*
X14401Y74450D01*
X14279Y74467D01*
X14157Y74478D01*
X14051Y74484D01*
X14002D01*
X13963Y74489D01*
X11659D01*
Y75000D01*
X13990D01*
X14096Y74994D01*
D02*
G37*
G36*
X82530Y50382D02*
X82491Y50299D01*
X82452Y50215D01*
X82414Y50138D01*
X82380Y50071D01*
X82353Y50016D01*
X82330Y49982D01*
X82325Y49977D01*
Y49971D01*
X82264Y49871D01*
X82203Y49782D01*
X82147Y49705D01*
X82097Y49644D01*
X82059Y49588D01*
X82025Y49555D01*
X82003Y49527D01*
X81998Y49522D01*
X85000D01*
Y49050D01*
X81143D01*
Y49355D01*
X81237Y49411D01*
X81326Y49472D01*
X81415Y49544D01*
X81492Y49610D01*
X81559Y49677D01*
X81615Y49727D01*
X81631Y49749D01*
X81648Y49766D01*
X81653Y49771D01*
X81659Y49777D01*
X81753Y49894D01*
X81842Y50010D01*
X81920Y50121D01*
X81981Y50232D01*
X82036Y50326D01*
X82059Y50365D01*
X82075Y50399D01*
X82092Y50426D01*
X82097Y50449D01*
X82108Y50460D01*
Y50465D01*
X82564D01*
X82530Y50382D01*
D02*
G37*
G36*
X85000Y53989D02*
X83296D01*
Y53401D01*
Y53334D01*
X83302Y53273D01*
Y53229D01*
X83307Y53190D01*
X83313Y53162D01*
Y53140D01*
X83318Y53129D01*
Y53124D01*
X83346Y53035D01*
X83363Y52996D01*
X83379Y52963D01*
X83396Y52929D01*
X83407Y52907D01*
X83413Y52896D01*
X83418Y52890D01*
X83451Y52846D01*
X83490Y52802D01*
X83574Y52718D01*
X83613Y52680D01*
X83646Y52652D01*
X83668Y52635D01*
X83674Y52630D01*
X83751Y52574D01*
X83834Y52513D01*
X83923Y52452D01*
X84007Y52391D01*
X84084Y52341D01*
X84145Y52302D01*
X84167Y52286D01*
X84184Y52275D01*
X84195Y52263D01*
X84201D01*
X85000Y51758D01*
Y51126D01*
X83957Y51786D01*
X83846Y51864D01*
X83746Y51936D01*
X83662Y52008D01*
X83585Y52069D01*
X83529Y52125D01*
X83485Y52169D01*
X83457Y52197D01*
X83446Y52208D01*
X83413Y52252D01*
X83374Y52302D01*
X83313Y52402D01*
X83291Y52447D01*
X83268Y52480D01*
X83257Y52502D01*
X83252Y52513D01*
X83235Y52413D01*
X83218Y52319D01*
X83191Y52236D01*
X83169Y52152D01*
X83141Y52080D01*
X83107Y52014D01*
X83080Y51952D01*
X83052Y51897D01*
X83019Y51853D01*
X82991Y51808D01*
X82969Y51775D01*
X82946Y51747D01*
X82930Y51725D01*
X82913Y51708D01*
X82908Y51703D01*
X82902Y51697D01*
X82847Y51653D01*
X82791Y51609D01*
X82674Y51542D01*
X82558Y51498D01*
X82447Y51464D01*
X82353Y51442D01*
X82314Y51436D01*
X82275D01*
X82247Y51431D01*
X82208D01*
X82092Y51436D01*
X81986Y51453D01*
X81887Y51481D01*
X81803Y51509D01*
X81731Y51542D01*
X81675Y51564D01*
X81642Y51586D01*
X81637Y51592D01*
X81631D01*
X81542Y51658D01*
X81465Y51725D01*
X81398Y51797D01*
X81348Y51864D01*
X81309Y51925D01*
X81287Y51975D01*
X81270Y52008D01*
X81265Y52014D01*
Y52019D01*
X81248Y52069D01*
X81232Y52130D01*
X81204Y52252D01*
X81187Y52385D01*
X81170Y52508D01*
X81165Y52624D01*
Y52674D01*
X81159Y52718D01*
Y52752D01*
Y52780D01*
Y52796D01*
Y52802D01*
Y54500D01*
X85000D01*
Y53989D01*
D02*
G37*
G36*
X84073Y91654D02*
X84156Y91637D01*
X84312Y91587D01*
X84445Y91526D01*
X84500Y91493D01*
X84556Y91460D01*
X84606Y91426D01*
X84645Y91393D01*
X84684Y91365D01*
X84711Y91338D01*
X84734Y91321D01*
X84750Y91304D01*
X84761Y91293D01*
X84767Y91287D01*
X84817Y91221D01*
X84867Y91154D01*
X84906Y91088D01*
X84939Y91016D01*
X84994Y90877D01*
X85028Y90744D01*
X85039Y90683D01*
X85050Y90627D01*
X85056Y90577D01*
X85061Y90533D01*
X85067Y90500D01*
Y90472D01*
Y90455D01*
Y90450D01*
X85061Y90344D01*
X85050Y90250D01*
X85033Y90155D01*
X85011Y90066D01*
X84983Y89983D01*
X84956Y89911D01*
X84922Y89839D01*
X84889Y89778D01*
X84861Y89717D01*
X84828Y89667D01*
X84800Y89623D01*
X84772Y89589D01*
X84750Y89561D01*
X84734Y89539D01*
X84723Y89528D01*
X84717Y89523D01*
X84650Y89456D01*
X84578Y89401D01*
X84506Y89351D01*
X84434Y89306D01*
X84367Y89273D01*
X84295Y89240D01*
X84162Y89195D01*
X84101Y89184D01*
X84045Y89173D01*
X83995Y89162D01*
X83951Y89156D01*
X83918Y89151D01*
X83868D01*
X83735Y89156D01*
X83613Y89179D01*
X83507Y89212D01*
X83418Y89245D01*
X83346Y89278D01*
X83291Y89312D01*
X83257Y89334D01*
X83246Y89340D01*
X83163Y89417D01*
X83091Y89500D01*
X83035Y89589D01*
X82991Y89678D01*
X82958Y89756D01*
X82935Y89817D01*
X82930Y89839D01*
X82924Y89856D01*
X82919Y89867D01*
Y89872D01*
X82869Y89778D01*
X82819Y89700D01*
X82763Y89634D01*
X82713Y89578D01*
X82669Y89534D01*
X82630Y89500D01*
X82608Y89484D01*
X82597Y89478D01*
X82519Y89434D01*
X82441Y89401D01*
X82364Y89373D01*
X82292Y89356D01*
X82231Y89345D01*
X82186Y89340D01*
X82142D01*
X82047Y89345D01*
X81953Y89362D01*
X81870Y89384D01*
X81798Y89412D01*
X81737Y89439D01*
X81687Y89462D01*
X81659Y89478D01*
X81648Y89484D01*
X81564Y89539D01*
X81492Y89606D01*
X81431Y89672D01*
X81376Y89739D01*
X81337Y89795D01*
X81304Y89845D01*
X81287Y89878D01*
X81282Y89883D01*
Y89889D01*
X81237Y89989D01*
X81204Y90089D01*
X81176Y90189D01*
X81159Y90277D01*
X81148Y90350D01*
X81143Y90411D01*
Y90433D01*
Y90450D01*
Y90461D01*
Y90466D01*
Y90549D01*
X81154Y90627D01*
X81182Y90777D01*
X81226Y90905D01*
X81270Y91016D01*
X81298Y91066D01*
X81320Y91104D01*
X81343Y91143D01*
X81365Y91171D01*
X81381Y91193D01*
X81393Y91210D01*
X81398Y91221D01*
X81404Y91227D01*
X81509Y91332D01*
X81626Y91415D01*
X81748Y91482D01*
X81870Y91537D01*
X81975Y91571D01*
X82020Y91587D01*
X82059Y91598D01*
X82092Y91604D01*
X82114Y91610D01*
X82131Y91615D01*
X82136D01*
X82219Y91143D01*
X82097Y91121D01*
X81992Y91088D01*
X81903Y91049D01*
X81831Y91010D01*
X81775Y90971D01*
X81737Y90938D01*
X81709Y90916D01*
X81703Y90910D01*
X81648Y90838D01*
X81603Y90760D01*
X81576Y90688D01*
X81553Y90616D01*
X81542Y90549D01*
X81531Y90500D01*
Y90466D01*
Y90461D01*
Y90455D01*
X81537Y90355D01*
X81559Y90266D01*
X81587Y90189D01*
X81615Y90122D01*
X81648Y90072D01*
X81675Y90033D01*
X81698Y90005D01*
X81703Y90000D01*
X81770Y89939D01*
X81842Y89894D01*
X81914Y89867D01*
X81981Y89845D01*
X82042Y89833D01*
X82086Y89822D01*
X82192D01*
X82247Y89833D01*
X82341Y89861D01*
X82425Y89900D01*
X82497Y89944D01*
X82547Y89989D01*
X82586Y90028D01*
X82608Y90055D01*
X82613Y90061D01*
Y90066D01*
X82664Y90161D01*
X82702Y90250D01*
X82730Y90344D01*
X82747Y90427D01*
X82758Y90500D01*
X82769Y90561D01*
Y90583D01*
Y90599D01*
Y90605D01*
Y90610D01*
Y90633D01*
X82763Y90655D01*
Y90677D01*
Y90683D01*
X83180Y90738D01*
X83163Y90666D01*
X83152Y90599D01*
X83141Y90544D01*
X83135Y90494D01*
X83130Y90455D01*
Y90427D01*
Y90411D01*
Y90405D01*
X83141Y90289D01*
X83163Y90183D01*
X83196Y90089D01*
X83235Y90011D01*
X83274Y89950D01*
X83307Y89906D01*
X83329Y89878D01*
X83341Y89867D01*
X83424Y89795D01*
X83513Y89739D01*
X83601Y89700D01*
X83690Y89678D01*
X83762Y89661D01*
X83823Y89656D01*
X83846Y89650D01*
X83879D01*
X84001Y89661D01*
X84112Y89689D01*
X84206Y89723D01*
X84290Y89767D01*
X84356Y89811D01*
X84406Y89845D01*
X84439Y89872D01*
X84451Y89883D01*
X84528Y89972D01*
X84584Y90066D01*
X84623Y90161D01*
X84650Y90250D01*
X84667Y90327D01*
X84673Y90389D01*
X84678Y90411D01*
Y90427D01*
Y90438D01*
Y90444D01*
X84673Y90544D01*
X84650Y90638D01*
X84623Y90721D01*
X84589Y90788D01*
X84562Y90844D01*
X84534Y90888D01*
X84512Y90910D01*
X84506Y90921D01*
X84428Y90988D01*
X84339Y91043D01*
X84245Y91093D01*
X84145Y91132D01*
X84062Y91160D01*
X84023Y91171D01*
X83990Y91176D01*
X83962Y91182D01*
X83940Y91188D01*
X83929Y91193D01*
X83923D01*
X83984Y91665D01*
X84073Y91654D01*
D02*
G37*
G36*
X83252Y95489D02*
X83446Y95467D01*
X83618Y95439D01*
X83701Y95417D01*
X83773Y95400D01*
X83840Y95384D01*
X83901Y95361D01*
X83957Y95345D01*
X84001Y95333D01*
X84034Y95317D01*
X84062Y95311D01*
X84079Y95300D01*
X84084D01*
X84251Y95217D01*
X84401Y95123D01*
X84528Y95023D01*
X84578Y94973D01*
X84628Y94928D01*
X84673Y94884D01*
X84711Y94840D01*
X84745Y94801D01*
X84767Y94767D01*
X84789Y94745D01*
X84806Y94723D01*
X84811Y94712D01*
X84817Y94706D01*
X84861Y94629D01*
X84900Y94551D01*
X84961Y94384D01*
X85006Y94218D01*
X85033Y94057D01*
X85044Y93979D01*
X85056Y93913D01*
X85061Y93852D01*
Y93802D01*
X85067Y93757D01*
Y93724D01*
Y93702D01*
Y93696D01*
X85061Y93585D01*
X85050Y93480D01*
X85039Y93380D01*
X85017Y93286D01*
X84989Y93197D01*
X84961Y93113D01*
X84933Y93036D01*
X84900Y92964D01*
X84872Y92903D01*
X84845Y92842D01*
X84817Y92797D01*
X84789Y92753D01*
X84767Y92725D01*
X84756Y92697D01*
X84745Y92686D01*
X84739Y92681D01*
X84673Y92603D01*
X84606Y92536D01*
X84528Y92475D01*
X84451Y92414D01*
X84295Y92314D01*
X84140Y92237D01*
X84068Y92203D01*
X84001Y92176D01*
X83940Y92153D01*
X83890Y92137D01*
X83846Y92120D01*
X83812Y92109D01*
X83790Y92103D01*
X83785D01*
X83657Y92614D01*
X83746Y92636D01*
X83829Y92664D01*
X83907Y92692D01*
X83979Y92719D01*
X84045Y92753D01*
X84101Y92786D01*
X84156Y92825D01*
X84206Y92858D01*
X84251Y92886D01*
X84284Y92919D01*
X84317Y92947D01*
X84345Y92969D01*
X84362Y92991D01*
X84378Y93008D01*
X84384Y93014D01*
X84390Y93019D01*
X84434Y93075D01*
X84467Y93136D01*
X84528Y93258D01*
X84573Y93374D01*
X84600Y93491D01*
X84623Y93591D01*
X84628Y93630D01*
Y93669D01*
X84634Y93702D01*
Y93724D01*
Y93735D01*
Y93741D01*
X84628Y93868D01*
X84606Y93990D01*
X84578Y94101D01*
X84545Y94201D01*
X84512Y94279D01*
X84495Y94312D01*
X84484Y94340D01*
X84473Y94362D01*
X84462Y94379D01*
X84456Y94390D01*
Y94396D01*
X84378Y94501D01*
X84295Y94590D01*
X84201Y94668D01*
X84112Y94728D01*
X84034Y94779D01*
X83968Y94812D01*
X83940Y94823D01*
X83923Y94834D01*
X83912Y94840D01*
X83907D01*
X83762Y94884D01*
X83618Y94917D01*
X83474Y94945D01*
X83341Y94962D01*
X83280Y94967D01*
X83224Y94973D01*
X83174D01*
X83135Y94978D01*
X83052D01*
X82908Y94973D01*
X82775Y94962D01*
X82652Y94939D01*
X82541Y94917D01*
X82447Y94901D01*
X82408Y94889D01*
X82375Y94878D01*
X82347Y94873D01*
X82330Y94867D01*
X82319Y94862D01*
X82314D01*
X82186Y94806D01*
X82070Y94745D01*
X81975Y94679D01*
X81892Y94606D01*
X81825Y94545D01*
X81781Y94495D01*
X81753Y94457D01*
X81742Y94451D01*
Y94446D01*
X81670Y94329D01*
X81615Y94201D01*
X81576Y94079D01*
X81553Y93963D01*
X81537Y93857D01*
X81531Y93813D01*
Y93774D01*
X81526Y93746D01*
Y93724D01*
Y93707D01*
Y93702D01*
X81531Y93563D01*
X81553Y93435D01*
X81587Y93330D01*
X81620Y93236D01*
X81659Y93164D01*
X81687Y93108D01*
X81709Y93075D01*
X81720Y93063D01*
X81803Y92975D01*
X81898Y92892D01*
X81998Y92825D01*
X82097Y92769D01*
X82186Y92725D01*
X82231Y92708D01*
X82264Y92697D01*
X82292Y92686D01*
X82314Y92675D01*
X82325Y92669D01*
X82330D01*
X82214Y92170D01*
X82114Y92203D01*
X82025Y92237D01*
X81942Y92281D01*
X81859Y92320D01*
X81787Y92364D01*
X81720Y92414D01*
X81653Y92459D01*
X81598Y92503D01*
X81553Y92547D01*
X81509Y92586D01*
X81470Y92625D01*
X81442Y92653D01*
X81415Y92681D01*
X81398Y92703D01*
X81393Y92714D01*
X81387Y92719D01*
X81337Y92797D01*
X81287Y92875D01*
X81248Y92953D01*
X81215Y93036D01*
X81165Y93202D01*
X81132Y93352D01*
X81115Y93424D01*
X81109Y93485D01*
X81104Y93546D01*
X81098Y93596D01*
X81093Y93635D01*
Y93663D01*
Y93685D01*
Y93691D01*
X81104Y93874D01*
X81132Y94051D01*
X81165Y94207D01*
X81187Y94279D01*
X81209Y94346D01*
X81232Y94407D01*
X81254Y94462D01*
X81270Y94507D01*
X81287Y94551D01*
X81304Y94579D01*
X81315Y94601D01*
X81320Y94618D01*
X81326Y94623D01*
X81420Y94773D01*
X81531Y94901D01*
X81642Y95012D01*
X81753Y95106D01*
X81853Y95178D01*
X81898Y95206D01*
X81936Y95228D01*
X81964Y95250D01*
X81986Y95261D01*
X82003Y95267D01*
X82009Y95272D01*
X82181Y95350D01*
X82358Y95406D01*
X82536Y95445D01*
X82697Y95472D01*
X82769Y95483D01*
X82841Y95489D01*
X82897Y95494D01*
X82952D01*
X82991Y95500D01*
X83052D01*
X83252Y95489D01*
D02*
G37*
%LPC*%
G36*
X82858Y53989D02*
X81587D01*
Y52780D01*
X81592Y52630D01*
X81615Y52502D01*
X81642Y52391D01*
X81675Y52308D01*
X81709Y52236D01*
X81737Y52191D01*
X81759Y52163D01*
X81764Y52152D01*
X81836Y52086D01*
X81909Y52036D01*
X81986Y52003D01*
X82053Y51975D01*
X82120Y51964D01*
X82170Y51958D01*
X82203Y51952D01*
X82214D01*
X82280Y51958D01*
X82347Y51969D01*
X82403Y51986D01*
X82452Y52003D01*
X82497Y52025D01*
X82530Y52041D01*
X82552Y52052D01*
X82558Y52058D01*
X82613Y52097D01*
X82664Y52147D01*
X82702Y52197D01*
X82736Y52247D01*
X82758Y52291D01*
X82775Y52324D01*
X82786Y52347D01*
X82791Y52358D01*
X82813Y52435D01*
X82830Y52524D01*
X82841Y52613D01*
X82847Y52702D01*
X82852Y52780D01*
X82858Y52846D01*
Y52868D01*
Y52885D01*
Y52896D01*
Y52902D01*
Y53989D01*
D02*
G37*
G36*
X12858D02*
X11587D01*
Y52780D01*
X11592Y52630D01*
X11614Y52502D01*
X11642Y52391D01*
X11676Y52308D01*
X11709Y52236D01*
X11737Y52191D01*
X11759Y52163D01*
X11764Y52152D01*
X11836Y52086D01*
X11909Y52036D01*
X11986Y52003D01*
X12053Y51975D01*
X12120Y51964D01*
X12169Y51958D01*
X12203Y51952D01*
X12214D01*
X12280Y51958D01*
X12347Y51969D01*
X12403Y51986D01*
X12453Y52003D01*
X12497Y52025D01*
X12530Y52041D01*
X12552Y52052D01*
X12558Y52058D01*
X12614Y52097D01*
X12664Y52147D01*
X12702Y52197D01*
X12736Y52247D01*
X12758Y52291D01*
X12775Y52324D01*
X12786Y52347D01*
X12791Y52358D01*
X12813Y52435D01*
X12830Y52524D01*
X12841Y52613D01*
X12847Y52702D01*
X12852Y52780D01*
X12858Y52846D01*
Y52868D01*
Y52885D01*
Y52896D01*
Y52902D01*
Y53989D01*
D02*
G37*
%LPD*%
D20*
X22028Y80472D02*
G03*
X22028Y80472I-1181J0D01*
G01*
D21*
X17146Y90512D02*
G03*
X17146Y90512I-492J0D01*
G01*
D22*
X68091Y60591D02*
Y84409D01*
X16909Y60591D02*
Y84409D01*
Y60591D02*
X68091D01*
X16909Y84409D02*
X68091D01*
D23*
X79658Y48547D02*
Y54453D01*
X74343Y48547D02*
Y54453D01*
X79750Y89000D02*
Y96000D01*
X74250Y89000D02*
Y96000D01*
X4750Y89000D02*
Y96000D01*
X10250Y89000D02*
Y96000D01*
X10158Y48547D02*
Y54453D01*
X4843Y48547D02*
Y54453D01*
M02*
